<svg height="375px" opacity="0" preserveAspectRatio="xMidYMin meet" style="background-image: url(&quot;https://mmbiz.qpic.cn/mmbiz_gif/s37uxK5D5wnjdTBDc67Qh51JZibBKOIHKiaPO5uvsUu8XVjfhZqb6bqOheEGog2NV0BoSDDA1wYNf7ia4Fd6VibPhQ/640?wx_fmt=gif&amp;map_gif_id=QEVPusEtaR8d83HpY4LjgsMwRceIrqyaUejXg2rsizQ&quot;); background-size: contain; background-repeat: no-repeat; width: 100%; height: 375px; margin-bottom: -25px; margin-top: 232px;" viewBox="0 0 1080 375" width="100%" xmlns="http://www.w3.org/2000/svg">
	<animate attributeName="height" fill="freeze" restart="never" calcMode="spline" keySplines="0.42 0 0.58 1.0; 0.42 0 0.58 1.0" keyTimes="0;0.0035;1" values="375;8340;8340" dur="1200s" begin="click + 2.75s">
	</animate>
	<animate attributeName="opacity" begin="click" restart="never" dur="1200s" keyTimes="0;0.0001;1" values="0;1;1" fill="freeze">
	</animate>
	<g transform="translate(0, 965)">
		<rect width="1080" height="100" style="fill: #f3f3f5">
		</rect>
	</g>
	<g transform="translate(0, 965)">
		<path style="fill:#1D1D1F;" d="M322.02,1.22h5.84c9.9,10.2,21.39,18.24,34.45,24.13l-4.13,7.38c-3.78-1.82-7.44-3.81-10.99-5.98v7.21h-17.97 v11.07h22.02v8.22h-22.02v11.78h29.4v8.09H291.3v-8.09h29.36V53.25h-22.24v-8.22h22.24V33.96h-18.02v-7.38 c-3.57,2.34-7.35,4.45-11.34,6.33l-4.04-7.38c6.97-3.25,13.34-6.88,19.09-10.9C312.11,10.61,317.34,6.14,322.02,1.22z M303.92,25.96h41.92c-7.79-4.86-14.78-10.59-20.96-17.18C319.08,15.08,312.09,20.8,303.92,25.96z">
		</path>
		<path style="fill:#1D1D1F;" d="M376.57,50.35l7.56,1.54c-1.85,8.2-4.42,15.28-7.73,21.23l-7.03-4.48C372.79,62.98,375.19,56.88,376.57,50.35z M370.9,25.61h8.09c-0.47-1.38-0.99-2.65-1.56-3.82c-0.57-1.17-1.15-2.36-1.74-3.56l7.25-2.72c0.62,1.47,1.22,3.03,1.82,4.7 c0.6,1.67,1.16,3.47,1.69,5.41h7.03c1.08-3.25,2.14-6.62,3.16-10.11l7.38,2.64c-0.56,1.38-1.05,2.68-1.49,3.91 s-0.97,2.42-1.58,3.56h7.91v7.56h-14.59v6.46h13.05v7.56h-13.05v21.01c0,4.89-2.75,7.34-8.26,7.34h-4.22l-1.63-7.73 c0.47,0.21,0.99,0.37,1.56,0.48c0.57,0.12,1.11,0.18,1.6,0.18c1.79,0,2.68-0.79,2.68-2.37v-18.9h-13.84v-7.56h13.84v-6.46H370.9 V25.61z M371.6,7.5h13.89c-1.03-2.02-2.05-3.88-3.08-5.58l8.57-1.45c0.88,1.99,1.8,4.34,2.77,7.03h14.59v7.65H371.6V7.5z M395.64,51.71l6.77-1.89c1.96,5.04,3.52,9.6,4.66,13.67l-6.99,2.72c-0.62-2.46-1.28-4.89-2-7.29 C397.36,56.52,396.55,54.11,395.64,51.71z M438.22,1.83l4.13,7.56c-6.65,2.23-14.15,3.6-22.5,4.13v12.35h24.21v7.91h-7.29v41.48 h-8.26V33.78h-8.66v7.56c-0.41,14.12-3.5,25.4-9.27,33.84l-6.11-6.28c4.63-6.71,7.06-15.89,7.29-27.55V6.71 c4.98-0.12,9.66-0.56,14.04-1.32C430.19,4.63,434.33,3.44,438.22,1.83z">
		</path>
		<path style="fill:#1D1D1F;" d="M471.37,12.25c0-3.38,2.72-5.98,6.06-5.98c3.38,0,6.11,2.59,6.11,5.98c0,3.3-2.72,5.93-6.11,5.93 C474.09,18.18,471.37,15.54,471.37,12.25z M471.98,24.29h10.94v46.58h-10.94V24.29z">
		</path>
		<path style="fill:#1D1D1F;" d="M517.86,7.46c12.61,0,21.36,8.57,21.36,21.23s-9.01,21.23-21.84,21.23h-12.83v20.96h-11.34V7.46H517.86z M504.55,40.77h10.28c8.13,0,12.88-4.39,12.88-12.08c0-7.6-4.7-11.95-12.83-11.95h-10.33V40.77z">
		</path>
		<path style="fill:#1D1D1F;" d="M544.36,57.51c0-8.31,6.42-13.1,18.15-13.8l12.04-0.75v-3.3c0-4.88-3.3-7.56-8.92-7.56 c-4.75,0-8.13,2.46-8.83,6.15h-10.11c0.31-8.57,8.22-14.68,19.34-14.68c11.69,0,19.34,6.06,19.34,15.34v31.95h-10.55v-7.43h-0.22 c-2.59,4.97-8.35,8.09-14.5,8.09C550.95,71.53,544.36,65.82,544.36,57.51z M574.55,53.6v-3.52l-10.5,0.66 c-5.71,0.4-8.7,2.59-8.7,6.33c0,3.69,3.16,6.2,8.04,6.2C569.67,63.27,574.55,59.14,574.55,53.6z">
		</path>
		<path style="fill:#1D1D1F;" d="M592.22,47.54c0-14.5,7.73-23.77,19.34-23.77c6.68,0,11.95,3.21,14.41,8.35h0.26V7.46h10.94v63.41h-10.72 v-7.95h-0.18c-2.55,5.23-7.91,8.48-14.72,8.48C599.95,71.4,592.22,62.08,592.22,47.54z M603.42,47.58 c0,9.05,4.48,14.77,11.43,14.77c6.9,0,11.43-5.8,11.43-14.77c0-8.92-4.53-14.81-11.43-14.81C607.9,32.77,603.42,38.57,603.42,47.58 z">
		</path>
		<path style="fill:#1D1D1F;" d="M690.13,7.46c12.61,0,21.36,8.57,21.36,21.23s-9.01,21.23-21.84,21.23h-12.83v20.96h-11.34V7.46H690.13z M676.81,40.77h10.28c8.13,0,12.88-4.39,12.88-12.08c0-7.6-4.7-11.95-12.83-11.95h-10.33V40.77z">
		</path>
		<path style="fill:#1D1D1F;" d="M718.65,24.29h10.5v8.13h0.22c1.49-5.49,5.67-8.66,11.16-8.66c1.41,0,2.59,0.18,3.43,0.4v9.89 c-0.92-0.35-2.59-0.62-4.44-0.62c-6.2,0-9.93,4-9.93,10.59v26.85h-10.94V24.29z">
		</path>
		<path style="fill:#1D1D1F;" d="M747.65,47.58c0-14.81,8.79-23.99,22.54-23.99c13.75,0,22.54,9.14,22.54,23.99c0,14.9-8.7,23.99-22.54,23.99 C756.35,71.57,747.65,62.43,747.65,47.58z M781.62,47.58c0-9.62-4.31-15.34-11.43-15.34c-7.16,0-11.43,5.76-11.43,15.34 c0,9.67,4.26,15.29,11.43,15.29C777.36,62.87,781.62,57.25,781.62,47.58z">
		</path>
	</g>
</svg>
