<svg xmlns="http://www.w3.org/2000/svg" xml:space="preserve" id="Layer_1" x="0" y="0" style="enable-background:new 0 0 200 200" version="1.1" viewBox="0 0 200 200"><style>.st1,.st2{fill:#8b5e3c}.st2{opacity:.2}.st3{opacity:.25}.st4{fill:#fff}.st7{fill:#d9e052;stroke:#000;stroke-miterlimit:10}</style><pattern id="Pompadour" width="167" height="167" patternUnits="userSpaceOnUse" style="overflow:visible" viewBox="218.2 -350.2 167 167"><path d="M218.2-350.2h167v167h-167z" style="fill:none"/><path d="M407.3-96.4c.1 0 .2-.1.2-.2 2.4-16 11.7-29.4 24.4-37.4.1-.1.1-.2.1-.3 0-.1-.2-.2-.3-.2-10.5 2.1-19.8 7.9-26.4 16-4.6-13.4-15.2-22-28.3-25.7 4.8-5.6 2.3-13.5-5.1-14.8-.1 0-.2 0-.3.1 0 .1 0 .2.1.3 4 3.3 2.5 11.4-9.3 11.4-7.8 0-12.8-3.2-12.8-7.5 0-3.4 3.1-5.2 5.6-5.2 4.4 0 6.9 4 5 7.5-.1.1 0 .2.1.3.1.1.2.1.3 0 2.2-1.6 3.8-3.6 3.8-6.8 0-5.4-5-11.1-13.3-11.1-8.9 0-17 6.9-17 15.3 0 11.8 10 17.4 20.6 18.4 0 0-4.4 1.7-7.6 6.5-.1.1-.1.2 0 .3.1.1.2.1.3.1 5.8-3.1 12.5-4.7 19.5-4.7 19.6 0 36.5 16.4 40.2 37.4-.1.2 0 .3.2.3zm76.6-52.4c4.6-7.7 6.3-20.8 2-30.7 0-.1 0-.2.1-.3.1-.1.2-.1.3 0 4.8 4.6 8.9 15.2 6.7 27.5 3.1 2.4 5 4.8 6.5 8 0 .1 0 .2-.1.3-.1.1-.2.1-.3 0-4.9-3.4-9.4-4.5-15.2-4.8zM473.3-29c.1.1.1.2 0 .3-.1.1-.2.1-.3 0-6.8-5.5-15.9-9.1-27-9.1-27.6 0-45 16.5-47.7 33.9 0 .1-.1.2-.2.2s-.2 0-.3-.2c-2.7-6.3-4.4-15.3 4-27.5 5-7.3 11.1-12.3 11.1-18.8 0-4.3-2.3-7.2-5.7-7.2-3.6 0-5.9 3.1-5.9 6.6 0 1.7.5 3.5 1.4 5 .1.1 0 .2 0 .3-.1.1-.2.1-.3 0-3-1.9-5.6-5.4-5.6-10.3 0-7.2 6.1-13.2 14.5-13.2 9 0 16.3 7 16.3 17.2 0 3.5-1 7.7-3.5 11.1 3.4-2.8 5.2-4.8 6.7-9.2 10.4-1.8 21.5-.1 30.3 5.6.3-6.1 2.3-11.2 6.3-15.3.1-.1.2-.1.3 0 .1.1.1.2.1.3-2.9 8.4-.9 20.6 5.5 30.3zm87.4-6.6c-2.2 4.8-7.5 7.5-13.5 7.6-.1 0-.2-.1-.3-.2 0-.1 0-.2.2-.3 2-.8 3.7-2.1 4.5-3.9 2.2-4.7-1.4-11.1-8-14.4-.1 0-.1-.1-.1-.2s0-.2.1-.2c4.3-3.5 9.4-10.1 9.4-23.4 0-18.7-12.2-36.5-28.3-36.5-9.2 0-16.6 6.4-20.5 16 4.2-5.8 10-10.1 17.9-10.1 11.6 0 20.9 12.4 20.9 30.3 0 16.9-11.9 36.6-27.8 36.6-8.7 0-15.2-7-15.2-16.1 0-8.1 5.2-12.7 11.1-12.7 4.4 0 7.5 3.1 8.4 6.5 0 .1 0 .2-.1.3-.1.1-.2 0-.3-.1-.8-.9-1.9-1.6-3.7-1.6-2.9 0-4.5 2.5-4.5 4.3 0 3.5 2.6 5.9 6.4 5.9 5.2 0 9.3-5.8 9.3-13.2 0-9.2-8.8-17.7-17.7-17.7-9 0-18.7 8.1-18.7 23 0 14.7 10 31.6 25.8 31.6 9.2 0 17.1-4.2 23.1-11.1.1-.1.2-.1.3-.1.1.1.2.2.1.3-4.4 12.9-2 25.1 4.8 25.1 3.3 0 5-2.4 5-4.9 0-2.6-1.9-4.8-5-5.2-.1 0-.2-.1-.2-.2s.1-.2.2-.3c6.8-1.8 13.8 1.9 13.8 9 0 6.3-5.4 11.1-12.4 11.1-10.6 0-15.7-11.3-13.5-21.5-5.5 7-13.6 12.8-25.2 12.8-23.5 0-35.4-26.9-35.4-44.9 0-16.4 3.3-26.9 10.2-34.9-8.1 6.1-11.4 12.9-12.9 22.3 0 0-6.1 8.4-22.1 8.4-6.7 0-12.9-2.5-17.8-7.2l-.1-.1c-.3-.3-.6-.6-.9-1-5.1-4.8-15.2-9.4-24.4-5.6-.1 0-.2 0-.3-.1-.1-.1-.1-.2 0-.3 4.4-6 12-7.9 17.7-7.1-1-3.7-1.6-7.9-1.6-12.5 0-16.4 8.8-28 18.4-33.6-3.2-3.8-2.5-9.8 1-13.8.1-.1.2-.1.3-.1.1.1.2.2.1.3-1.7 5.5 3.4 10.1 10.2 9.9.1 0 .2.1.3.2 0 .1 0 .2-.2.3-10.1 4.2-16.9 13-16.9 24 0 11.5 6.9 20.9 18 20.9 9.1 0 18.2-8.3 18.2-18.7 0-8.1-4.5-12.8-10.2-12.8-5 0-9 3.5-9 7.5 0 5.9 6.6 8 10.1 3.3.1-.1.2-.1.3-.1.1 0 .2.2.2.3-.5 4.4-3.8 8.5-8.8 8.5-4.6 0-9.3-3.8-9.3-12 0-9.7 9.3-19.6 24.7-19.6 21 0 32.4 23.7 22.1 42.6 5.2-6 10-12.4 10-23.8 0-21.5-21.3-36-46.4-27.5-.1 0-.2 0-.3-.1-.1-.1 0-.2.1-.3 7-5.1 14.3-12.6 14.3-25.3 0-13.2-8.7-22.5-22.3-22.5-10.5 0-17.1 6.4-17.1 13.9 0 5.8 3.7 10.4 10.1 10.4 9.5 0 12.7-10.3 7.8-15-.1-.1-.1-.2 0-.3.1-.1.2-.2.3-.1 4.8 1.2 9.3 6.1 9.3 13.4 0 12.5-11.6 20.9-24.4 20.9-6 0-11.8-1.8-16.5-5 .6-4.2-.9-8.8-3-11.8 1.9 6.9-.2 18.2-10.7 18.2-5.9 0-9.8-4.5-9.8-9.9 0-6.3 5.3-9.3 9.7-8.7.1 0 .2.1.2.2s-.1.2-.2.3c-1.6.6-2.9 2.3-2.9 4.3 0 2.5 1.9 4 3.9 4 3.3 0 5.1-3.7 4-7.7-1.1-2.8-1.7-6-1.7-9.5 0-16.8 18.2-32.7 41.1-32.7 24.2 0 37.1 17.3 37.1 35.1 0 9.5-3.6 16.8-8.2 21.4 19.9-2.1 32.5 6.4 39.3 18.7-4.5 3.8-6.1 9.5-6.1 9.5 5.4-7 14.6-13.2 27.5-13.2 19.6 0 34.9 19.2 34.9 39.8 0 13.1-4.8 25.8-14.6 34.2 6.6 5.2 9.2 12.6 6.4 18.5z" class="st1"/><path d="M482.2-160.9c0 .1 0 .2.1.3 14.8 6.5 25.3 19 29.7 33.4 0 .1.1.2.3.2.1 0 .2-.1.2-.2.7-10.7-2.4-21.2-8.5-29.7 14.1-.9 25.2-8.9 32.2-20.5 4.1 6.1 12.5 5.8 15.7-1 .1-.1 0-.2-.1-.3-.1-.1-.2-.1-.3 0-4.3 3-11.7-.6-8.6-12 2.1-7.5 6.4-11.5 10.6-10.4 3.3.9 4.2 4.3 3.6 6.8-1.2 4.3-5.6 5.7-8.6 2.9-.1-.1-.2-.1-.3 0-.1.1-.1.2-.1.3.9 2.6 2.5 4.6 5.5 5.5 5.2 1.4 12.1-1.9 14.2-9.9 2.3-8.6-2.1-18.2-10.3-20.4-11.4-3.1-19.5 5.1-23.2 15 0 0-.5-4.7-4.3-9.1-.1-.1-.2-.1-.3-.1-.1.1-.2.2-.1.3 1.4 6.4 1.3 13.3-.6 20.1-5.2 18.9-25.4 30.9-46.6 28.9 0-.3-.2-.2-.2-.1zm30.4 87.8c6.2 6.5 18.5 11.5 29.1 10 .1 0 .2.1.3.2 0 .1 0 .2-.1.3-5.7 3.4-17 4.6-28.3-.8-3.1 2.4-5.9 3.6-9.4 4.2-.1 0-.2 0-.3-.1 0-.1 0-.2.1-.3 4.5-4 6.8-8.1 8.6-13.5zm-112.8-41.8c-.1 0-.2 0-.3-.1-.1-.1 0-.2.1-.3 7.1-5.1 12.9-12.9 15.9-23.7 7.3-26.6-4.1-47.7-20.2-55-.1 0-.2-.2-.1-.3 0-.1.1-.2.2-.2 6.8-1 15.9-.2 25.5 11.1 5.7 6.8 8.9 14 15.2 15.7 4.1 1.1 7.5-.3 8.4-3.6.9-3.5-1.4-6.5-4.8-7.5-1.7-.5-3.5-.4-5.2 0-.1 0-.2 0-.3-.1-.1-.1 0-.2.1-.3 2.7-2.4 6.7-4 11.4-2.7 6.9 1.9 11.1 9.4 8.9 17.4-2.4 8.7-11.1 13.9-20.9 11.2-3.4-.9-7.1-3-9.8-6.3 1.8 4 3.3 6.3 7.1 8.9-1 10.5-5.5 20.8-13.4 27.8 5.8 1.9 10.2 5.1 13.1 10.2.1.1 0 .2 0 .3-.1.1-.2.1-.3 0-7.2-4.8-19.5-6.2-30.6-2.5zm-16.6 86c-4-3.4-5.3-9.2-3.8-15 0-.1.1-.2.3-.2.1 0 .2.1.2.2.2 2.2 1 4.1 2.6 5.4 4 3.4 11.1 1.6 16-3.9.1-.1.1-.1.2-.1s.2.1.2.1c2.3 5.1 7.2 11.7 20.1 15.2 18 4.9 38.4-2.1 42.6-17.7 2.4-8.9-1.8-17.7-10-24 4.4 5.6 7.1 12.3 5 19.9-3.1 11.2-17.5 16.9-34.7 12.1-16.3-4.4-32.2-21.1-28-36.4 2.3-8.4 10.8-12.8 19.6-10.4 7.8 2.1 10.8 8.4 9.3 14.1-1.2 4.3-5 6.4-8.5 6.4-.1 0-.2-.1-.2-.2s0-.2.1-.3c1.1-.5 2.1-1.4 2.5-3.1.8-2.8-1.3-5-3-5.5-3.3-.9-6.4.9-7.4 4.6-1.4 5.1 3.1 10.5 10.3 12.5 8.9 2.4 19.4-3.9 21.7-12.4 2.4-8.7-2.9-20.1-17.3-24.1-14.2-3.9-33.1 1.3-37.3 16.6-2.4 8.9-.5 17.6 4.6 25.2.1.1.1.2 0 .3-.1.1-.2.1-.3 0-11.3-7.7-23.7-8.5-25.5-2-.9 3.2 1 5.5 3.4 6.1 2.5.7 5.1-.6 6.3-3.4 0-.1.2-.2.3-.2.1 0 .2.1.2.3-.1 7-5.5 12.8-12.4 11-6.1-1.7-9.3-8.1-7.5-14.9 2.8-10.3 15-12.2 24.3-7.3-5.4-7.1-8.8-16.5-5.8-27.7 6.2-22.7 35.3-27.1 52.7-22.4 15.8 4.3 25 10.3 31 19.1-3.8-9.4-9.5-14.4-18.1-18.3 0 0-6.5-8.1-2.3-23.6 1.8-6.5 5.8-11.8 11.6-15.3l.1-.1c.4-.2.8-.4 1.2-.7 6-3.6 13.1-12.2 11.8-22.1 0-.1 0-.2.2-.3.1 0 .2 0 .3.1 4.7 5.8 4.5 13.7 2.2 18.9 3.9 0 8 .5 12.5 1.7 15.8 4.3 24.7 15.9 27.6 26.6 4.5-2 10.1.2 13.1 4.6.1.1.1.2 0 .3-.1.1-.2.1-.3 0-4.9-3.1-10.7.6-12.2 7.2 0 .1-.1.2-.3.2-.1 0-.2-.1-.2-.2-1.3-10.9-8.1-19.7-18.7-22.6-11.1-3-21.9 1.2-24.9 11.9-2.4 8.8 3.2 19.7 13.2 22.4 7.8 2.1 13.5-1 15-6.5 1.3-4.8-1-9.5-4.9-10.6-5.6-1.5-9.4 4.2-5.9 8.9.1.1.1.2 0 .3-.1.1-.2.1-.3.1-4.1-1.7-7.2-5.9-5.9-10.7 1.2-4.4 6.2-8 14.1-5.8 9.4 2.6 16.4 14.2 12.4 29-5.5 20.2-31.4 25-46.9 10.1 4.4 6.6 9.3 12.9 20.3 15.9 20.8 5.7 40.4-11 38.7-37.5 0-.1.1-.2.2-.3.1 0 .2 0 .3.2 3.1 8.1 8.4 17.2 20.6 20.5 12.7 3.5 24-2.5 27.6-15.5 2.8-10.1-1.7-18.2-8.9-20.2-5.6-1.5-11 .9-12.7 7-2.5 9.2 6.6 15 12.4 11.5.1-.1.2 0 .3 0 .1.1.1.2 0 .3-2.4 4.3-8.3 7.4-15.3 5.5-12.1-3.3-17.1-16.7-13.7-29.1 1.6-5.8 4.8-10.9 9.2-14.6 3.9 1.6 8.7 1.5 12.2.3-7.1.1-17.5-4.9-14.7-15.1 1.6-5.7 6.9-8.2 12.1-6.8 6.1 1.7 7.5 7.6 5.8 11.6 0 .1-.2.2-.3.2-.1 0-.2-.1-.2-.2-.2-1.7-1.4-3.4-3.3-4-2.4-.7-4.3.8-4.9 2.7-.9 3.2 2.2 5.9 6.4 5.9 3-.3 6.2 0 9.6.9 16.2 4.4 26.8 26.2 20.8 48.3-6.4 23.4-26.4 31.2-43.6 26.5-9.2-2.5-15.2-7.9-18.5-13.5-3.2 19.8-14.7 29.7-28.4 33-2.5-5.3-7.5-8.4-7.5-8.4 5.4 7 8.9 17.5 5.5 30C474-11 451.5-1.2 431.6-6.7c-12.6-3.4-23.6-11.4-29.2-23-6.4 4.5-14.2 5.1-19.2.8z" class="st2"/><g class="st3"><path d="M530.1-103c-.1 0-.2.1-.2.2-2.4 16-11.7 29.4-24.4 37.4-.1.1-.1.2-.1.3 0 .1.2.2.3.2 10.5-2.1 19.8-7.9 26.4-16 4.6 13.4 15.2 22 28.3 25.7-4.8 5.6-2.3 13.5 5.1 14.8.1 0 .2 0 .3-.1 0-.1 0-.2-.1-.3-4-3.3-2.5-11.4 9.3-11.4 7.8 0 12.8 3.2 12.8 7.5 0 3.4-3.1 5.2-5.6 5.2-4.4 0-6.9-4-5-7.5.1-.1 0-.2-.1-.3-.1-.1-.2-.1-.3 0-2.2 1.6-3.8 3.6-3.8 6.8 0 5.4 5 11.1 13.3 11.1 8.9 0 17-6.9 17-15.3 0-11.8-10-17.4-20.6-18.4 0 0 4.4-1.7 7.6-6.5.1-.1.1-.2 0-.3-.1-.1-.2-.1-.3-.1-5.8 3.1-12.5 4.7-19.5 4.7-19.6 0-36.5-16.4-40.2-37.4.1-.2 0-.3-.2-.3zm-76.6 52.4c-4.6 7.7-6.3 20.8-2 30.7 0 .1 0 .2-.1.3-.1.1-.2.1-.3 0-4.8-4.6-8.9-15.2-6.7-27.5-3.1-2.4-5-4.8-6.5-8 0-.1 0-.2.1-.3.1-.1.2-.1.3 0 4.9 3.4 9.4 4.6 15.2 4.8zm10.6-119.8c-.1-.1-.1-.2 0-.3.1-.1.2-.1.3 0 6.8 5.5 15.9 9.1 27 9.1 27.6 0 45-16.5 47.7-33.9 0-.1.1-.2.2-.2s.2 0 .3.1c2.7 6.3 4.4 15.3-4 27.5-5 7.3-11.1 12.3-11.1 18.8 0 4.3 2.3 7.2 5.7 7.2 3.6 0 5.9-3.1 5.9-6.6 0-1.7-.5-3.5-1.4-5-.1-.1 0-.2 0-.3.1-.1.2-.1.3 0 3 1.9 5.6 5.4 5.6 10.3 0 7.2-6.1 13.2-14.5 13.2-9 0-16.3-7-16.3-17.2 0-3.5 1-7.7 3.5-11.1-3.4 2.8-5.2 4.8-6.7 9.2-10.4 1.8-21.5.1-30.3-5.6-.3 6.1-2.2 11.2-6.3 15.3-.1.1-.2.1-.3 0-.1-.1-.1-.2-.1-.3 2.9-8.2.9-20.4-5.5-30.2zm-87.4 6.7c2.2-4.8 7.5-7.5 13.5-7.6.1 0 .2.1.3.2 0 .1 0 .2-.2.3-2 .8-3.7 2.1-4.5 3.9-2.2 4.7 1.4 11.1 8 14.4.1 0 .1.1.1.2s0 .2-.1.2c-4.3 3.5-9.4 10.1-9.4 23.4 0 18.7 12.2 36.5 28.3 36.5 9.2 0 16.6-6.4 20.5-16-4.2 5.8-10 10.1-17.9 10.1-11.6 0-20.9-12.4-20.9-30.3 0-16.9 11.9-36.6 27.8-36.6 8.7 0 15.2 7 15.2 16.1 0 8.1-5.2 12.7-11.1 12.7-4.4 0-7.5-3.1-8.4-6.5 0-.1 0-.2.1-.3.1-.1.2 0 .3.1.8.9 1.9 1.6 3.7 1.6 2.9 0 4.5-2.5 4.5-4.3 0-3.5-2.6-5.9-6.4-5.9-5.2 0-9.3 5.8-9.3 13.2 0 9.2 8.8 17.7 17.7 17.7 9 0 18.7-8.1 18.7-23 0-14.7-10-31.6-25.8-31.6-9.2 0-17.1 4.2-23.1 11.1-.1.1-.2.1-.3.1-.1-.1-.2-.2-.1-.3 4.4-12.9 2-25.1-4.8-25.1-3.3 0-5 2.4-5 4.9 0 2.6 1.9 4.8 5 5.2.1 0 .2.1.2.2s-.1.2-.2.3c-6.8 1.8-13.8-1.9-13.8-9 0-6.3 5.4-11.1 12.4-11.1 10.6 0 15.7 11.3 13.5 21.5 5.5-7 13.6-12.8 25.2-12.8 23.5 0 35.4 26.9 35.4 44.9 0 16.4-3.3 26.9-10.2 34.9 8.1-6.1 11.4-12.9 12.9-22.3 0 0 6.1-8.4 22.1-8.4 6.7 0 12.9 2.5 17.8 7.2l.1.1c.3.3.6.6.9 1 5.1 4.8 15.2 9.4 24.4 5.6.1 0 .2 0 .3.1.1.1.1.2 0 .3-4.4 6-12 7.9-17.7 7.1 1 3.7 1.6 7.9 1.6 12.5 0 16.4-8.8 28-18.4 33.6 3.2 3.8 2.5 9.8-1 13.8-.1.1-.2.1-.3.1-.1-.1-.2-.2-.1-.3 1.7-5.5-3.4-10.1-10.2-9.9-.1 0-.2-.1-.3-.2 0-.1 0-.2.2-.3 10.1-4.2 16.9-13 16.9-24 0-11.5-6.9-20.9-18-20.9-9.1 0-18.2 8.3-18.2 18.7 0 8.1 4.5 12.8 10.2 12.8 5 0 9-3.5 9-7.6 0-5.9-6.6-8-10.1-3.3-.1.1-.2.1-.3.1-.1 0-.2-.2-.2-.3.5-4.4 3.8-8.5 8.8-8.5 4.6 0 9.3 3.8 9.3 12 0 9.7-9.3 19.6-24.7 19.6-21 0-32.4-23.7-22.1-42.6-5.2 6-10 12.4-10 23.8 0 21.5 21.3 36 46.4 27.5.1 0 .2 0 .3.1.1.1 0 .2-.1.3-7 5.1-14.3 12.6-14.3 25.3 0 13.2 8.7 22.5 22.3 22.5 10.5 0 17.1-6.4 17.1-13.9 0-5.8-3.7-10.4-10.1-10.4-9.5 0-12.7 10.3-7.8 15 .1.1.1.2 0 .3-.1.1-.2.2-.3.1-4.8-1.2-9.3-6.1-9.3-13.4 0-12.5 11.6-20.9 24.4-20.9 6 0 11.8 1.8 16.5 5-.6 4.2.9 8.7 3 11.8-1.9-6.9.2-18.2 10.7-18.2 5.9 0 9.8 4.5 9.8 9.9 0 6.3-5.3 9.3-9.7 8.7-.1 0-.2-.1-.2-.2s.1-.2.2-.3c1.6-.6 2.9-2.3 2.9-4.3 0-2.5-1.9-4-3.9-4-3.3 0-5.1 3.7-4 7.7 1.1 2.8 1.7 6 1.7 9.5C533.6-16 515.4 0 492.4 0c-24.2 0-37.1-17.3-37.1-35.1 0-9.5 3.6-16.8 8.2-21.4-19.9 2.1-32.5-6.4-39.3-18.7 4.5-3.8 6.1-9.5 6.1-9.5-5.4 7-14.6 13.2-27.5 13.2-19.6 0-34.9-19.2-34.9-39.8 0-13.1 4.8-25.8 14.6-34.2-6-5-8.6-12.3-5.8-18.2z" class="st4"/></g><path d="M240.3-96.4c.1 0 .2-.1.2-.2 2.4-16 11.7-29.4 24.4-37.4.1-.1.1-.2.1-.3 0-.1-.2-.2-.3-.2-10.5 2.1-19.8 7.9-26.4 16-4.6-13.4-15.2-22-28.3-25.7 4.8-5.6 2.3-13.5-5.1-14.8-.1 0-.2 0-.3.1 0 .1 0 .2.1.3 4 3.3 2.5 11.4-9.3 11.4-7.8 0-12.8-3.2-12.8-7.5 0-3.4 3.1-5.2 5.6-5.2 4.4 0 6.9 4 5 7.5-.1.1 0 .2.1.3.1.1.2.1.3 0 2.2-1.6 3.8-3.6 3.8-6.8 0-5.4-5-11.1-13.3-11.1-8.9 0-17 6.9-17 15.3 0 11.8 10 17.4 20.6 18.4 0 0-4.4 1.7-7.6 6.5-.1.1-.1.2 0 .3.1.1.2.1.3.1 5.8-3.1 12.5-4.7 19.5-4.7 19.6 0 36.5 16.4 40.2 37.4-.1.2 0 .3.2.3zm76.6-52.4c4.6-7.7 6.3-20.8 2-30.7 0-.1 0-.2.1-.3.1-.1.2-.1.3 0 4.8 4.6 8.9 15.2 6.7 27.5 3.1 2.4 5 4.8 6.5 8 0 .1 0 .2-.1.3-.1.1-.2.1-.3 0-4.9-3.4-9.4-4.5-15.2-4.8zM306.3-29c.1.1.1.2 0 .3-.1.1-.2.1-.3 0-6.8-5.5-15.9-9.1-27-9.1-27.6 0-45 16.5-47.7 33.9 0 .1-.1.2-.2.2s-.2 0-.3-.2c-2.7-6.3-4.4-15.3 4-27.5 5-7.3 11.1-12.3 11.1-18.8 0-4.3-2.3-7.2-5.7-7.2-3.6 0-5.9 3.1-5.9 6.6 0 1.7.5 3.5 1.4 5 .1.1 0 .2 0 .3-.1.1-.2.1-.3 0-3-1.9-5.6-5.4-5.6-10.3 0-7.2 6.1-13.2 14.5-13.2 9 0 16.3 7 16.3 17.2 0 3.5-1 7.7-3.5 11.1 3.4-2.8 5.2-4.8 6.7-9.2 10.4-1.8 21.5-.1 30.3 5.6.3-6.1 2.3-11.2 6.3-15.3.1-.1.2-.1.3 0 .1.1.1.2.1.3-2.9 8.4-.9 20.6 5.5 30.3zm87.4-6.6c-2.2 4.8-7.5 7.5-13.5 7.6-.1 0-.2-.1-.3-.2 0-.1 0-.2.2-.3 2-.8 3.7-2.1 4.5-3.9 2.2-4.7-1.4-11.1-8-14.4-.1 0-.1-.1-.1-.2s0-.2.1-.2c4.3-3.5 9.4-10.1 9.4-23.4 0-18.7-12.2-36.5-28.3-36.5-9.2 0-16.6 6.4-20.5 16 4.2-5.8 10-10.1 17.9-10.1 11.6 0 20.9 12.4 20.9 30.3 0 16.9-11.9 36.6-27.8 36.6-8.7 0-15.2-7-15.2-16.1 0-8.1 5.2-12.7 11.1-12.7 4.4 0 7.5 3.1 8.4 6.5 0 .1 0 .2-.1.3-.1.1-.2 0-.3-.1-.8-.9-1.9-1.6-3.7-1.6-2.9 0-4.5 2.5-4.5 4.3 0 3.5 2.6 5.9 6.4 5.9 5.2 0 9.3-5.8 9.3-13.2 0-9.2-8.8-17.7-17.7-17.7-9 0-18.7 8.1-18.7 23 0 14.7 10 31.6 25.8 31.6 9.2 0 17.1-4.2 23.1-11.1.1-.1.2-.1.3-.1.1.1.2.2.1.3-4.4 12.9-2 25.1 4.8 25.1 3.3 0 5-2.4 5-4.9 0-2.6-1.9-4.8-5-5.2-.1 0-.2-.1-.2-.2s.1-.2.2-.3c6.8-1.8 13.8 1.9 13.8 9 0 6.3-5.4 11.1-12.4 11.1-10.6 0-15.7-11.3-13.5-21.5-5.5 7-13.6 12.8-25.2 12.8-23.5 0-35.4-26.9-35.4-44.9 0-16.4 3.3-26.9 10.2-34.9-8.1 6.1-11.4 12.9-12.9 22.3 0 0-6.1 8.4-22.1 8.4-6.7 0-12.9-2.5-17.8-7.2l-.1-.1c-.3-.3-.6-.6-.9-1-5.1-4.8-15.2-9.4-24.4-5.6-.1 0-.2 0-.3-.1-.1-.1-.1-.2 0-.3 4.4-6 12-7.9 17.7-7.1-1-3.7-1.6-7.9-1.6-12.5 0-16.4 8.8-28 18.4-33.6-3.2-3.8-2.5-9.8 1-13.8.1-.1.2-.1.3-.1.1.1.2.2.1.3-1.7 5.5 3.4 10.1 10.2 9.9.1 0 .2.1.3.2 0 .1 0 .2-.2.3-10.1 4.2-16.9 13-16.9 24 0 11.5 6.9 20.9 18 20.9 9.1 0 18.2-8.3 18.2-18.7 0-8.1-4.5-12.8-10.2-12.8-5 0-9 3.5-9 7.5 0 5.9 6.6 8 10.1 3.3.1-.1.2-.1.3-.1.1 0 .2.2.2.3-.5 4.4-3.8 8.5-8.8 8.5-4.6 0-9.3-3.8-9.3-12 0-9.7 9.3-19.6 24.7-19.6 21 0 32.4 23.7 22.1 42.6 5.2-6 10-12.4 10-23.8 0-21.5-21.3-36-46.4-27.5-.1 0-.2 0-.3-.1-.1-.1 0-.2.1-.3 7-5.1 14.3-12.6 14.3-25.3 0-13.2-8.7-22.5-22.3-22.5-10.5 0-17.1 6.4-17.1 13.9 0 5.8 3.7 10.4 10.1 10.4 9.5 0 12.7-10.3 7.8-15-.1-.1-.1-.2 0-.3.1-.1.2-.2.3-.1 4.8 1.2 9.3 6.1 9.3 13.4 0 12.5-11.6 20.9-24.4 20.9-6 0-11.8-1.8-16.5-5 .6-4.2-.9-8.8-3-11.8 1.9 6.9-.2 18.2-10.7 18.2-5.9 0-9.8-4.5-9.8-9.9 0-6.3 5.3-9.3 9.7-8.7.1 0 .2.1.2.2s-.1.2-.2.3c-1.6.6-2.9 2.3-2.9 4.3 0 2.5 1.9 4 3.9 4 3.3 0 5.1-3.7 4-7.7-1.1-2.8-1.7-6-1.7-9.5 0-16.8 18.2-32.7 41.1-32.7 24.2 0 37.1 17.3 37.1 35.1 0 9.5-3.6 16.8-8.2 21.4 19.9-2.1 32.5 6.4 39.3 18.7-4.5 3.8-6.1 9.5-6.1 9.5 5.4-7 14.6-13.2 27.5-13.2 19.6 0 34.9 19.2 34.9 39.8 0 13.1-4.8 25.8-14.6 34.2 6.6 5.2 9.2 12.6 6.4 18.5z" class="st1"/><path d="M315.2-160.9c0 .1 0 .2.1.3 14.8 6.5 25.3 19 29.7 33.4 0 .1.1.2.3.2.1 0 .2-.1.2-.2.7-10.7-2.4-21.2-8.5-29.7 14.1-.9 25.2-8.9 32.2-20.5 4.1 6.1 12.5 5.8 15.7-1 .1-.1 0-.2-.1-.3-.1-.1-.2-.1-.3 0-4.3 3-11.7-.6-8.6-12 2.1-7.5 6.4-11.5 10.6-10.4 3.3.9 4.2 4.3 3.6 6.8-1.2 4.3-5.6 5.7-8.6 2.9-.1-.1-.2-.1-.3 0-.1.1-.1.2-.1.3.9 2.6 2.5 4.6 5.5 5.5 5.2 1.4 12.1-1.9 14.2-9.9 2.3-8.6-2.1-18.2-10.3-20.4-11.4-3.1-19.5 5.1-23.2 15 0 0-.5-4.7-4.3-9.1-.1-.1-.2-.1-.3-.1-.1.1-.2.2-.1.3 1.4 6.4 1.3 13.3-.6 20.1-5.2 18.9-25.4 30.9-46.6 28.9 0-.3-.2-.2-.2-.1zm30.4 87.8c6.2 6.5 18.5 11.5 29.1 10 .1 0 .2.1.3.2 0 .1 0 .2-.1.3-5.7 3.4-17 4.6-28.3-.8-3.1 2.4-5.9 3.6-9.4 4.2-.1 0-.2 0-.3-.1 0-.1 0-.2.1-.3 4.5-4 6.8-8.1 8.6-13.5zm-112.8-41.8c-.1 0-.2 0-.3-.1-.1-.1 0-.2.1-.3 7.1-5.1 12.9-12.9 15.9-23.7 7.3-26.6-4.1-47.7-20.2-55-.1 0-.2-.2-.1-.3 0-.1.1-.2.2-.2 6.8-1 15.9-.2 25.5 11.1 5.7 6.8 8.9 14 15.2 15.7 4.1 1.1 7.5-.3 8.4-3.6.9-3.5-1.4-6.5-4.8-7.5-1.7-.5-3.5-.4-5.2 0-.1 0-.2 0-.3-.1-.1-.1 0-.2.1-.3 2.7-2.4 6.7-4 11.4-2.7 6.9 1.9 11.1 9.4 8.9 17.4-2.4 8.7-11.1 13.9-20.9 11.2-3.4-.9-7.1-3-9.8-6.3 1.8 4 3.3 6.3 7.1 8.9-1 10.5-5.5 20.8-13.4 27.8 5.8 1.9 10.2 5.1 13.1 10.2.1.1 0 .2 0 .3-.1.1-.2.1-.3 0-7.2-4.8-19.5-6.2-30.6-2.5zm-16.6 86c-4-3.4-5.3-9.2-3.8-15 0-.1.1-.2.3-.2.1 0 .2.1.2.2.2 2.2 1 4.1 2.6 5.4 4 3.4 11.1 1.6 16-3.9.1-.1.1-.1.2-.1s.2.1.2.1c2.3 5.1 7.2 11.7 20.1 15.2 18 4.9 38.4-2.1 42.6-17.7 2.4-8.9-1.8-17.7-10-24 4.4 5.6 7.1 12.3 5 19.9-3.1 11.2-17.5 16.9-34.7 12.1-16.3-4.4-32.2-21.1-28-36.4 2.3-8.4 10.8-12.8 19.6-10.4 7.8 2.1 10.8 8.4 9.3 14.1-1.2 4.3-5 6.4-8.5 6.4-.1 0-.2-.1-.2-.2s0-.2.1-.3c1.1-.5 2.1-1.4 2.5-3.1.8-2.8-1.3-5-3-5.5-3.3-.9-6.4.9-7.4 4.6-1.4 5.1 3.1 10.5 10.3 12.5 8.9 2.4 19.4-3.9 21.7-12.4 2.4-8.7-2.9-20.1-17.3-24.1-14.2-3.9-33.1 1.3-37.3 16.6-2.4 8.9-.5 17.6 4.6 25.2.1.1.1.2 0 .3-.1.1-.2.1-.3 0-11.3-7.7-23.7-8.5-25.5-2-.9 3.2 1 5.5 3.4 6.1 2.5.7 5.1-.6 6.3-3.4 0-.1.2-.2.3-.2.1 0 .2.1.2.3-.1 7-5.5 12.8-12.4 11-6.1-1.7-9.3-8.1-7.5-14.9 2.8-10.3 15-12.2 24.3-7.3-5.4-7.1-8.8-16.5-5.8-27.7 6.2-22.7 35.3-27.1 52.7-22.4 15.8 4.3 25 10.3 31 19.1-3.8-9.4-9.5-14.4-18.1-18.3 0 0-6.5-8.1-2.3-23.6 1.8-6.5 5.8-11.8 11.6-15.3l.1-.1c.4-.2.8-.4 1.2-.7 6-3.6 13.1-12.2 11.8-22.1 0-.1 0-.2.2-.3.1 0 .2 0 .3.1 4.7 5.8 4.5 13.7 2.2 18.9 3.9 0 8 .5 12.5 1.7 15.8 4.3 24.7 15.9 27.6 26.6 4.5-2 10.1.2 13.1 4.6.1.1.1.2 0 .3-.1.1-.2.1-.3 0-4.9-3.1-10.7.6-12.2 7.2 0 .1-.1.2-.3.2-.1 0-.2-.1-.2-.2-1.3-10.9-8.1-19.7-18.7-22.6-11.1-3-21.9 1.2-24.9 11.9-2.4 8.8 3.2 19.7 13.2 22.4 7.8 2.1 13.5-1 15-6.5 1.3-4.8-1-9.5-4.9-10.6-5.6-1.5-9.4 4.2-5.9 8.9.1.1.1.2 0 .3-.1.1-.2.1-.3.1-4.1-1.7-7.2-5.9-5.9-10.7 1.2-4.4 6.2-8 14.1-5.8 9.4 2.6 16.4 14.2 12.4 29-5.5 20.2-31.4 25-46.9 10.1 4.4 6.6 9.3 12.9 20.3 15.9 20.8 5.7 40.4-11 38.7-37.5 0-.1.1-.2.2-.3.1 0 .2 0 .3.2 3.1 8.1 8.4 17.2 20.6 20.5 12.7 3.5 24-2.5 27.6-15.5 2.8-10.1-1.7-18.2-8.9-20.2-5.6-1.5-11 .9-12.7 7-2.5 9.2 6.6 15 12.4 11.5.1-.1.2 0 .3 0 .1.1.1.2 0 .3-2.4 4.3-8.3 7.4-15.3 5.5-12.1-3.3-17.1-16.7-13.7-29.1 1.6-5.8 4.8-10.9 9.2-14.6 3.9 1.6 8.7 1.5 12.2.3-7.1.1-17.5-4.9-14.7-15.1 1.6-5.7 6.9-8.2 12.1-6.8 6.1 1.7 7.5 7.6 5.8 11.6 0 .1-.2.2-.3.2-.1 0-.2-.1-.2-.2-.2-1.7-1.4-3.4-3.3-4-2.4-.7-4.3.8-4.9 2.7-.9 3.2 2.2 5.9 6.4 5.9 3-.3 6.2 0 9.6.9 16.2 4.4 26.8 26.2 20.8 48.3-6.4 23.4-26.4 31.2-43.6 26.5-9.2-2.5-15.2-7.9-18.5-13.5-3.2 19.8-14.7 29.7-28.4 33-2.5-5.3-7.5-8.4-7.5-8.4 5.4 7 8.9 17.5 5.5 30C307-11 284.5-1.2 264.6-6.7c-12.6-3.4-23.6-11.4-29.2-23-6.4 4.5-14.2 5.1-19.2.8z" class="st2"/><g class="st3"><path d="M363.1-103c-.1 0-.2.1-.2.2-2.4 16-11.7 29.4-24.4 37.4-.1.1-.1.2-.1.3 0 .1.2.2.3.2 10.5-2.1 19.8-7.9 26.4-16 4.6 13.4 15.2 22 28.3 25.7-4.8 5.6-2.3 13.5 5.1 14.8.1 0 .2 0 .3-.1 0-.1 0-.2-.1-.3-4-3.3-2.5-11.4 9.3-11.4 7.8 0 12.8 3.2 12.8 7.5 0 3.4-3.1 5.2-5.6 5.2-4.4 0-6.9-4-5-7.5.1-.1 0-.2-.1-.3-.1-.1-.2-.1-.3 0-2.2 1.6-3.8 3.6-3.8 6.8 0 5.4 5 11.1 13.3 11.1 8.9 0 17-6.9 17-15.3 0-11.8-10-17.4-20.6-18.4 0 0 4.4-1.7 7.6-6.5.1-.1.1-.2 0-.3-.1-.1-.2-.1-.3-.1-5.8 3.1-12.5 4.7-19.5 4.7-19.6 0-36.5-16.4-40.2-37.4.1-.2 0-.3-.2-.3zm-76.6 52.4c-4.6 7.7-6.3 20.8-2 30.7 0 .1 0 .2-.1.3-.1.1-.2.1-.3 0-4.8-4.6-8.9-15.2-6.7-27.5-3.1-2.4-5-4.8-6.5-8 0-.1 0-.2.1-.3.1-.1.2-.1.3 0 4.9 3.4 9.4 4.6 15.2 4.8zm10.6-119.8c-.1-.1-.1-.2 0-.3.1-.1.2-.1.3 0 6.8 5.5 15.9 9.1 27 9.1 27.6 0 45-16.5 47.7-33.9 0-.1.1-.2.2-.2s.2 0 .3.1c2.7 6.3 4.4 15.3-4 27.5-5 7.3-11.1 12.3-11.1 18.8 0 4.3 2.3 7.2 5.7 7.2 3.6 0 5.9-3.1 5.9-6.6 0-1.7-.5-3.5-1.4-5-.1-.1 0-.2 0-.3.1-.1.2-.1.3 0 3 1.9 5.6 5.4 5.6 10.3 0 7.2-6.1 13.2-14.5 13.2-9 0-16.3-7-16.3-17.2 0-3.5 1-7.7 3.5-11.1-3.4 2.8-5.2 4.8-6.7 9.2-10.4 1.8-21.5.1-30.3-5.6-.3 6.1-2.2 11.2-6.3 15.3-.1.1-.2.1-.3 0-.1-.1-.1-.2-.1-.3 2.9-8.2.9-20.4-5.5-30.2zm-87.4 6.7c2.2-4.8 7.5-7.5 13.5-7.6.1 0 .2.1.3.2 0 .1 0 .2-.2.3-2 .8-3.7 2.1-4.5 3.9-2.2 4.7 1.4 11.1 8 14.4.1 0 .1.1.1.2s0 .2-.1.2c-4.3 3.5-9.4 10.1-9.4 23.4 0 18.7 12.2 36.5 28.3 36.5 9.2 0 16.6-6.4 20.5-16-4.2 5.8-10 10.1-17.9 10.1-11.6 0-20.9-12.4-20.9-30.3 0-16.9 11.9-36.6 27.8-36.6 8.7 0 15.2 7 15.2 16.1 0 8.1-5.2 12.7-11.1 12.7-4.4 0-7.5-3.1-8.4-6.5 0-.1 0-.2.1-.3.1-.1.2 0 .3.1.8.9 1.9 1.6 3.7 1.6 2.9 0 4.5-2.5 4.5-4.3 0-3.5-2.6-5.9-6.4-5.9-5.2 0-9.3 5.8-9.3 13.2 0 9.2 8.8 17.7 17.7 17.7 9 0 18.7-8.1 18.7-23 0-14.7-10-31.6-25.8-31.6-9.2 0-17.1 4.2-23.1 11.1-.1.1-.2.1-.3.1-.1-.1-.2-.2-.1-.3 4.4-12.9 2-25.1-4.8-25.1-3.3 0-5 2.4-5 4.9 0 2.6 1.9 4.8 5 5.2.1 0 .2.1.2.2s-.1.2-.2.3c-6.8 1.8-13.8-1.9-13.8-9 0-6.3 5.4-11.1 12.4-11.1 10.6 0 15.7 11.3 13.5 21.5 5.5-7 13.6-12.8 25.2-12.8 23.5 0 35.4 26.9 35.4 44.9 0 16.4-3.3 26.9-10.2 34.9 8.1-6.1 11.4-12.9 12.9-22.3 0 0 6.1-8.4 22.1-8.4 6.7 0 12.9 2.5 17.8 7.2l.1.1c.3.3.6.6.9 1 5.1 4.8 15.2 9.4 24.4 5.6.1 0 .2 0 .3.1.1.1.1.2 0 .3-4.4 6-12 7.9-17.7 7.1 1 3.7 1.6 7.9 1.6 12.5 0 16.4-8.8 28-18.4 33.6 3.2 3.8 2.5 9.8-1 13.8-.1.1-.2.1-.3.1-.1-.1-.2-.2-.1-.3 1.7-5.5-3.4-10.1-10.2-9.9-.1 0-.2-.1-.3-.2 0-.1 0-.2.2-.3 10.1-4.2 16.9-13 16.9-24 0-11.5-6.9-20.9-18-20.9-9.1 0-18.2 8.3-18.2 18.7 0 8.1 4.5 12.8 10.2 12.8 5 0 9-3.5 9-7.6 0-5.9-6.6-8-10.1-3.3-.1.1-.2.1-.3.1-.1 0-.2-.2-.2-.3.5-4.4 3.8-8.5 8.8-8.5 4.6 0 9.3 3.8 9.3 12 0 9.7-9.3 19.6-24.7 19.6-21 0-32.4-23.7-22.1-42.6-5.2 6-10 12.4-10 23.8 0 21.5 21.3 36 46.4 27.5.1 0 .2 0 .3.1.1.1 0 .2-.1.3-7 5.1-14.3 12.6-14.3 25.3 0 13.2 8.7 22.5 22.3 22.5 10.5 0 17.1-6.4 17.1-13.9 0-5.8-3.7-10.4-10.1-10.4-9.5 0-12.7 10.3-7.8 15 .1.1.1.2 0 .3-.1.1-.2.2-.3.1-4.8-1.2-9.3-6.1-9.3-13.4 0-12.5 11.6-20.9 24.4-20.9 6 0 11.8 1.8 16.5 5-.6 4.2.9 8.7 3 11.8-1.9-6.9.2-18.2 10.7-18.2 5.9 0 9.8 4.5 9.8 9.9 0 6.3-5.3 9.3-9.7 8.7-.1 0-.2-.1-.2-.2s.1-.2.2-.3c1.6-.6 2.9-2.3 2.9-4.3 0-2.5-1.9-4-3.9-4-3.3 0-5.1 3.7-4 7.7 1.1 2.8 1.7 6 1.7 9.5C366.6-16 348.4 0 325.4 0c-24.2 0-37.1-17.3-37.1-35.1 0-9.5 3.6-16.8 8.2-21.4-19.9 2.1-32.5-6.4-39.3-18.7 4.5-3.8 6.1-9.5 6.1-9.5-5.4 7-14.6 13.2-27.5 13.2-19.6 0-34.9-19.2-34.9-39.8 0-13.1 4.8-25.8 14.6-34.2-6-5-8.6-12.3-5.8-18.2z" class="st4"/></g><path d="M73.3-96.4c.1 0 .2-.1.2-.2 2.4-16 11.7-29.4 24.4-37.4.1-.1.1-.2.1-.3 0-.1-.2-.2-.3-.2-10.5 2.1-19.8 7.9-26.4 16-4.6-13.4-15.2-22-28.3-25.7 4.8-5.6 2.3-13.5-5.1-14.8-.1 0-.2 0-.3.1 0 .1 0 .2.1.3 4 3.3 2.5 11.4-9.3 11.4-7.8 0-12.8-3.2-12.8-7.5 0-3.4 3.1-5.2 5.6-5.2 4.4 0 6.9 4 5 7.5-.1.1 0 .2.1.3.1.1.2.1.3 0 2.2-1.6 3.8-3.6 3.8-6.8 0-5.4-5-11.1-13.3-11.1-8.9 0-17 6.9-17 15.3 0 11.8 10 17.4 20.6 18.4 0 0-4.4 1.7-7.6 6.5-.1.1-.1.2 0 .3.1.1.2.1.3.1 5.8-3.1 12.5-4.7 19.5-4.7 19.6 0 36.5 16.4 40.2 37.4-.1.2 0 .3.2.3zm76.6-52.4c4.6-7.7 6.3-20.8 2-30.7 0-.1 0-.2.1-.3.1-.1.2-.1.3 0 4.8 4.6 8.9 15.2 6.7 27.5 3.1 2.4 5 4.8 6.5 8 0 .1 0 .2-.1.3-.1.1-.2.1-.3 0-4.9-3.4-9.4-4.5-15.2-4.8zM139.3-29c.1.1.1.2 0 .3-.1.1-.2.1-.3 0-6.8-5.5-15.9-9.1-27-9.1-27.6 0-45 16.5-47.7 33.9 0 .1-.1.2-.2.2s-.2 0-.3-.2C61-10 59.4-19 67.8-31.2c5-7.3 11.1-12.3 11.1-18.8 0-4.3-2.3-7.2-5.7-7.2-3.6 0-5.9 3.1-5.9 6.6 0 1.7.5 3.5 1.4 5 .1.1 0 .2 0 .3-.1.1-.2.1-.3 0-3-1.9-5.6-5.4-5.6-10.3 0-7.2 6.1-13.2 14.5-13.2 9 0 16.3 7 16.3 17.2 0 3.5-1 7.7-3.5 11.1 3.4-2.8 5.2-4.8 6.7-9.2 10.4-1.8 21.5-.1 30.3 5.6.3-6.1 2.3-11.2 6.3-15.3.1-.1.2-.1.3 0 .1.1.1.2.1.3-2.9 8.2-.9 20.4 5.5 30.1zm87.4-6.6c-2.2 4.8-7.5 7.5-13.5 7.6-.1 0-.2-.1-.3-.2 0-.1 0-.2.2-.3 2-.8 3.7-2.1 4.5-3.9 2.2-4.7-1.4-11.1-8-14.4-.1 0-.1-.1-.1-.2s0-.2.1-.2c4.3-3.5 9.4-10.1 9.4-23.4 0-18.7-12.2-36.5-28.3-36.5-9.2 0-16.6 6.4-20.5 16 4.2-5.8 10-10.1 17.9-10.1 11.6 0 20.9 12.4 20.9 30.3 0 16.9-11.9 36.6-27.8 36.6-8.7 0-15.2-7-15.2-16.1 0-8.1 5.2-12.7 11.1-12.7 4.4 0 7.5 3.1 8.4 6.5 0 .1 0 .2-.1.3-.1.1-.2 0-.3-.1-.8-.9-1.9-1.6-3.7-1.6-2.9 0-4.5 2.5-4.5 4.3 0 3.5 2.6 5.9 6.4 5.9 5.2 0 9.3-5.8 9.3-13.2 0-9.2-8.8-17.7-17.7-17.7-9 0-18.7 8.1-18.7 23 0 14.7 10 31.6 25.8 31.6 9.2 0 17.1-4.2 23.1-11.1.1-.1.2-.1.3-.1.1.1.2.2.1.3-4.4 12.9-2 25.1 4.8 25.1 3.3 0 5-2.4 5-4.9 0-2.6-1.9-4.8-5-5.2-.1 0-.2-.1-.2-.2s.1-.2.2-.3c6.8-1.8 13.8 1.9 13.8 9 0 6.3-5.4 11.1-12.4 11.1-10.6 0-15.7-11.3-13.5-21.5-5.5 7-13.6 12.8-25.2 12.8-23.5 0-35.4-26.9-35.4-44.9 0-16.4 3.3-26.9 10.2-34.9-8.1 6.1-11.4 12.9-12.9 22.3 0 0-6.1 8.4-22.1 8.4-6.7 0-12.9-2.5-17.8-7.2l-.1-.1c-.3-.3-.6-.6-.9-1-5.1-4.8-15.2-9.4-24.4-5.6-.1 0-.2 0-.3-.1-.1-.1-.1-.2 0-.3 4.4-6 12-7.9 17.7-7.1-1-3.7-1.6-7.9-1.6-12.5 0-16.4 8.8-28 18.4-33.6-3.2-3.8-2.5-9.8 1-13.8.1-.1.2-.1.3-.1.1.1.2.2.1.3-1.7 5.5 3.4 10.1 10.2 9.9.1 0 .2.1.3.2 0 .1 0 .2-.2.3-10.1 4.2-16.9 13-16.9 24 0 11.5 6.9 20.9 18 20.9 9.1 0 18.2-8.3 18.2-18.7 0-8.1-4.5-12.8-10.2-12.8-5 0-9 3.5-9 7.5 0 5.9 6.6 8 10.1 3.3.1-.1.2-.1.3-.1.1 0 .2.2.2.3-.5 4.4-3.8 8.5-8.8 8.5-4.6 0-9.3-3.8-9.3-12 0-9.7 9.3-19.6 24.7-19.6 21 0 32.4 23.7 22.1 42.6 5.2-6 10-12.4 10-23.8 0-21.5-21.3-36-46.4-27.5-.1 0-.2 0-.3-.1-.1-.1 0-.2.1-.3 7-5.1 14.3-12.6 14.3-25.3 0-13.2-8.7-22.5-22.3-22.5-10.5 0-17.1 6.4-17.1 13.9 0 5.8 3.7 10.4 10.1 10.4 9.5 0 12.7-10.3 7.8-15-.1-.1-.1-.2 0-.3.1-.1.2-.2.3-.1 4.8 1.2 9.3 6.1 9.3 13.4 0 12.5-11.6 20.9-24.4 20.9-6 0-11.8-1.8-16.5-5 .6-4.2-.9-8.8-3-11.8 1.9 6.9-.2 18.2-10.7 18.2-5.9 0-9.8-4.5-9.8-9.9 0-6.3 5.3-9.3 9.7-8.7.1 0 .2.1.2.2s-.1.2-.2.3c-1.6.6-2.9 2.3-2.9 4.3 0 2.5 1.9 4 3.9 4 3.3 0 5.1-3.7 4-7.7-1.1-2.8-1.7-6-1.7-9.5 0-16.8 18.2-32.7 41.1-32.7 24.2 0 37.1 17.3 37.1 35.1 0 9.5-3.6 16.8-8.2 21.4 19.9-2.1 32.5 6.4 39.3 18.7-4.5 3.8-6.1 9.5-6.1 9.5 5.4-7 14.6-13.2 27.5-13.2 19.6 0 34.9 19.2 34.9 39.8 0 13.1-4.8 25.8-14.6 34.2 6.6 5.2 9.2 12.6 6.4 18.5z" class="st1"/><path d="M148.2-160.9c0 .1 0 .2.1.3 14.8 6.5 25.3 19 29.7 33.4 0 .1.1.2.3.2.1 0 .2-.1.2-.2.7-10.7-2.4-21.2-8.5-29.7 14.1-.9 25.2-8.9 32.2-20.5 4.1 6.1 12.5 5.8 15.7-1 .1-.1 0-.2-.1-.3-.1-.1-.2-.1-.3 0-4.3 3-11.7-.6-8.6-12 2.1-7.5 6.4-11.5 10.6-10.4 3.3.9 4.2 4.3 3.6 6.8-1.2 4.3-5.6 5.7-8.6 2.9-.1-.1-.2-.1-.3 0-.1.1-.1.2-.1.3.9 2.6 2.5 4.6 5.5 5.5 5.2 1.4 12.1-1.9 14.2-9.9 2.3-8.6-2.1-18.2-10.3-20.4-11.4-3.1-19.5 5.1-23.2 15 0 0-.5-4.7-4.3-9.1-.1-.1-.2-.1-.3-.1-.1.1-.2.2-.1.3 1.4 6.4 1.3 13.3-.6 20.1-5.2 18.9-25.4 30.9-46.6 28.9 0-.3-.2-.2-.2-.1zm30.4 87.8c6.2 6.5 18.5 11.5 29.1 10 .1 0 .2.1.3.2 0 .1 0 .2-.1.3-5.7 3.4-17 4.6-28.3-.8-3.1 2.4-5.9 3.6-9.4 4.2-.1 0-.2 0-.3-.1 0-.1 0-.2.1-.3 4.5-4 6.8-8.1 8.6-13.5zM65.8-114.9c-.1 0-.2 0-.3-.1-.1-.1 0-.2.1-.3 7.1-5.1 12.9-12.9 15.9-23.7 7.3-26.6-4.1-47.7-20.2-55-.1 0-.2-.2-.1-.3 0-.1.1-.2.2-.2 6.8-1 15.9-.2 25.5 11.1 5.7 6.8 8.9 14 15.2 15.7 4.1 1.1 7.5-.3 8.4-3.6.9-3.5-1.4-6.5-4.8-7.5-1.7-.5-3.5-.4-5.2 0-.1 0-.2 0-.3-.1-.1-.1 0-.2.1-.3 2.7-2.4 6.7-4 11.4-2.7 6.9 1.9 11.1 9.4 8.9 17.4-2.4 8.7-11.1 13.9-20.9 11.2-3.4-.9-7.1-3-9.8-6.3 1.8 4 3.3 6.3 7.1 8.9-1 10.5-5.5 20.8-13.4 27.8 5.8 1.9 10.2 5.1 13.1 10.2.1.1 0 .2 0 .3-.1.1-.2.1-.3 0-7.2-4.8-19.5-6.2-30.6-2.5zm-16.6 86c-4-3.4-5.3-9.2-3.8-15 0-.1.1-.2.3-.2.1 0 .2.1.2.2.2 2.2 1 4.1 2.6 5.4 4 3.4 11.1 1.6 16-3.9.1-.1.1-.1.2-.1s.2.1.2.1c2.3 5.1 7.2 11.7 20.1 15.2 18 4.9 38.4-2.1 42.6-17.7 2.4-8.9-1.8-17.7-10-24 4.4 5.6 7.1 12.3 5 19.9-3.1 11.2-17.5 16.9-34.7 12.1-16.3-4.4-32.2-21.1-28-36.4 2.3-8.4 10.8-12.8 19.6-10.4 7.8 2.1 10.8 8.4 9.3 14.1-1.2 4.3-5 6.4-8.5 6.4-.1 0-.2-.1-.2-.2s0-.2.1-.3c1.1-.5 2.1-1.4 2.5-3.1.8-2.8-1.3-5-3-5.5-3.3-.9-6.4.9-7.4 4.6-1.4 5.1 3.1 10.5 10.3 12.5 8.9 2.4 19.4-3.9 21.7-12.4 2.4-8.7-2.9-20.1-17.3-24.1-14.2-3.9-33.1 1.3-37.3 16.6-2.4 8.9-.5 17.6 4.6 25.2.1.1.1.2 0 .3-.1.1-.2.1-.3 0-11.3-7.7-23.7-8.5-25.5-2-.9 3.2 1 5.5 3.4 6.1 2.5.7 5.1-.6 6.3-3.4 0-.1.2-.2.3-.2.1 0 .2.1.2.3-.1 7-5.5 12.8-12.4 11-6.1-1.7-9.3-8.1-7.5-14.9 2.8-10.3 15-12.2 24.3-7.3-5.4-7.1-8.8-16.5-5.8-27.7 6.2-22.7 35.3-27.1 52.7-22.4 15.8 4.3 25 10.3 31 19.1-3.8-9.4-9.5-14.4-18.1-18.3 0 0-6.5-8.1-2.3-23.6 1.8-6.5 5.8-11.8 11.6-15.3l.1-.1c.4-.2.8-.4 1.2-.7 6-3.6 13.1-12.2 11.8-22.1 0-.1 0-.2.2-.3.1 0 .2 0 .3.1 4.7 5.8 4.5 13.7 2.2 18.9 3.9 0 8 .5 12.5 1.7 15.8 4.3 24.7 15.9 27.6 26.6 4.5-2 10.1.2 13.1 4.6.1.1.1.2 0 .3-.1.1-.2.1-.3 0-4.9-3.1-10.7.6-12.2 7.2 0 .1-.1.2-.3.2-.1 0-.2-.1-.2-.2-1.3-10.9-8.1-19.7-18.7-22.6-11.1-3-21.9 1.2-24.9 11.9-2.4 8.8 3.2 19.7 13.2 22.4 7.8 2.1 13.5-1 15-6.5 1.3-4.8-1-9.5-4.9-10.6-5.6-1.5-9.4 4.2-5.9 8.9.1.1.1.2 0 .3-.1.1-.2.1-.3.1-4.1-1.7-7.2-5.9-5.9-10.7 1.2-4.4 6.2-8 14.1-5.8 9.4 2.6 16.4 14.2 12.4 29-5.5 20.2-31.4 25-46.9 10.1 4.4 6.6 9.3 12.9 20.3 15.9 20.8 5.7 40.4-11 38.7-37.5 0-.1.1-.2.2-.3.1 0 .2 0 .3.2 3.1 8.1 8.4 17.2 20.6 20.5 12.7 3.5 24-2.5 27.6-15.5 2.8-10.1-1.7-18.2-8.9-20.2-5.6-1.5-11 .9-12.7 7-2.5 9.2 6.6 15 12.4 11.5.1-.1.2 0 .3 0 .1.1.1.2 0 .3-2.4 4.3-8.3 7.4-15.3 5.5-12.1-3.3-17.1-16.7-13.7-29.1 1.6-5.8 4.8-10.9 9.2-14.6 3.9 1.6 8.7 1.5 12.2.3-7.1.1-17.5-4.9-14.7-15.1 1.6-5.7 6.9-8.2 12.1-6.8 6.1 1.7 7.5 7.6 5.8 11.6 0 .1-.2.2-.3.2-.1 0-.2-.1-.2-.2-.2-1.7-1.4-3.4-3.3-4-2.4-.7-4.3.8-4.9 2.7-.9 3.2 2.2 5.9 6.4 5.9 3-.3 6.2 0 9.6.9 16.2 4.4 26.8 26.2 20.8 48.3-6.4 23.4-26.4 31.2-43.6 26.5-9.2-2.5-15.2-7.9-18.5-13.5-3.2 19.8-14.7 29.7-28.4 33-2.5-5.3-7.5-8.4-7.5-8.4 5.4 7 8.9 17.5 5.5 30C140-11 117.5-1.2 97.6-6.7 85-10.1 74-18.1 68.4-29.7c-6.4 4.5-14.2 5.1-19.2.8z" class="st2"/><g class="st3"><path d="M196.1-103c-.1 0-.2.1-.2.2-2.4 16-11.7 29.4-24.4 37.4-.1.1-.1.2-.1.3 0 .1.2.2.3.2 10.5-2.1 19.8-7.9 26.4-16 4.6 13.4 15.2 22 28.3 25.7-4.8 5.6-2.3 13.5 5.1 14.8.1 0 .2 0 .3-.1 0-.1 0-.2-.1-.3-4-3.3-2.5-11.4 9.3-11.4 7.8 0 12.8 3.2 12.8 7.5 0 3.4-3.1 5.2-5.6 5.2-4.4 0-6.9-4-5-7.5.1-.1 0-.2-.1-.3-.1-.1-.2-.1-.3 0-2.2 1.6-3.8 3.6-3.8 6.8 0 5.4 5 11.1 13.3 11.1 8.9 0 17-6.9 17-15.3 0-11.8-10-17.4-20.6-18.4 0 0 4.4-1.7 7.6-6.5.1-.1.1-.2 0-.3-.1-.1-.2-.1-.3-.1-5.8 3.1-12.5 4.7-19.5 4.7-19.6 0-36.5-16.4-40.2-37.4.1-.2 0-.3-.2-.3zm-76.6 52.4c-4.6 7.7-6.3 20.8-2 30.7 0 .1 0 .2-.1.3-.1.1-.2.1-.3 0-4.8-4.6-8.9-15.2-6.7-27.5-3.1-2.4-5-4.8-6.5-8 0-.1 0-.2.1-.3.1-.1.2-.1.3 0 4.9 3.4 9.4 4.6 15.2 4.8zm10.6-119.8c-.1-.1-.1-.2 0-.3.1-.1.2-.1.3 0 6.8 5.5 15.9 9.1 27 9.1 27.6 0 45-16.5 47.7-33.9 0-.1.1-.2.2-.2s.2 0 .3.1c2.7 6.3 4.4 15.3-4 27.5-5 7.3-11.1 12.3-11.1 18.8 0 4.3 2.3 7.2 5.7 7.2 3.6 0 5.9-3.1 5.9-6.6 0-1.7-.5-3.5-1.4-5-.1-.1 0-.2 0-.3.1-.1.2-.1.3 0 3 1.9 5.6 5.4 5.6 10.3 0 7.2-6.1 13.2-14.5 13.2-9 0-16.3-7-16.3-17.2 0-3.5 1-7.7 3.5-11.1-3.4 2.8-5.2 4.8-6.7 9.2-10.4 1.8-21.5.1-30.3-5.6-.3 6.1-2.2 11.2-6.3 15.3-.1.1-.2.1-.3 0-.1-.1-.1-.2-.1-.3 2.9-8.2.9-20.4-5.5-30.2zm-87.4 6.7c2.2-4.8 7.5-7.5 13.5-7.6.1 0 .2.1.3.2 0 .1 0 .2-.2.3-2 .8-3.7 2.1-4.5 3.9-2.2 4.7 1.4 11.1 8 14.4.1 0 .1.1.1.2s0 .2-.1.2c-4.3 3.5-9.4 10.1-9.4 23.4 0 18.7 12.2 36.5 28.3 36.5 9.2 0 16.6-6.4 20.5-16-4.2 5.8-10 10.1-17.9 10.1-11.6 0-20.9-12.4-20.9-30.3 0-16.9 11.9-36.6 27.8-36.6 8.7 0 15.2 7 15.2 16.1 0 8.1-5.2 12.7-11.1 12.7-4.4 0-7.5-3.1-8.4-6.5 0-.1 0-.2.1-.3.1-.1.2 0 .3.1.8.9 1.9 1.6 3.7 1.6 2.9 0 4.5-2.5 4.5-4.3 0-3.5-2.6-5.9-6.4-5.9-5.2 0-9.3 5.8-9.3 13.2 0 9.2 8.8 17.7 17.7 17.7 9 0 18.7-8.1 18.7-23 0-14.7-10-31.6-25.8-31.6-9.2 0-17.1 4.2-23.1 11.1-.1.1-.2.1-.3.1-.1-.1-.2-.2-.1-.3 4.4-12.9 2-25.1-4.8-25.1-3.3 0-5 2.4-5 4.9 0 2.6 1.9 4.8 5 5.2.1 0 .2.1.2.2s-.1.2-.2.3c-6.8 1.8-13.8-1.9-13.8-9 0-6.3 5.4-11.1 12.4-11.1 10.6 0 15.7 11.3 13.5 21.5 5.5-7 13.6-12.8 25.2-12.8 23.5 0 35.4 26.9 35.4 44.9 0 16.4-3.3 26.9-10.2 34.9 8.1-6.1 11.4-12.9 12.9-22.3 0 0 6.1-8.4 22.1-8.4 6.7 0 12.9 2.5 17.8 7.2l.1.1c.3.3.6.6.9 1 5.1 4.8 15.2 9.4 24.4 5.6.1 0 .2 0 .3.1.1.1.1.2 0 .3-4.4 6-12 7.9-17.7 7.1 1 3.7 1.6 7.9 1.6 12.5 0 16.4-8.8 28-18.4 33.6 3.2 3.8 2.5 9.8-1 13.8-.1.1-.2.1-.3.1-.1-.1-.2-.2-.1-.3 1.7-5.5-3.4-10.1-10.2-9.9-.1 0-.2-.1-.3-.2 0-.1 0-.2.2-.3 10.1-4.2 16.9-13 16.9-24 0-11.5-6.9-20.9-18-20.9-9.1 0-18.2 8.3-18.2 18.7 0 8.1 4.5 12.8 10.2 12.8 5 0 9-3.5 9-7.6 0-5.9-6.6-8-10.1-3.3-.1.1-.2.1-.3.1-.1 0-.2-.2-.2-.3.5-4.4 3.8-8.5 8.8-8.5 4.6 0 9.3 3.8 9.3 12 0 9.7-9.3 19.6-24.7 19.6-21 0-32.4-23.7-22.1-42.6-5.2 6-10 12.4-10 23.8 0 21.5 21.3 36 46.4 27.5.1 0 .2 0 .3.1.1.1 0 .2-.1.3-7 5.1-14.3 12.6-14.3 25.3 0 13.2 8.7 22.5 22.3 22.5 10.5 0 17.1-6.4 17.1-13.9 0-5.8-3.7-10.4-10.1-10.4-9.5 0-12.7 10.3-7.8 15 .1.1.1.2 0 .3-.1.1-.2.2-.3.1-4.8-1.2-9.3-6.1-9.3-13.4 0-12.5 11.6-20.9 24.4-20.9 6 0 11.8 1.8 16.5 5-.6 4.2.9 8.7 3 11.8-1.9-6.9.2-18.2 10.7-18.2 5.9 0 9.8 4.5 9.8 9.9 0 6.3-5.3 9.3-9.7 8.7-.1 0-.2-.1-.2-.2s.1-.2.2-.3c1.6-.6 2.9-2.3 2.9-4.3 0-2.5-1.9-4-3.9-4-3.3 0-5.1 3.7-4 7.7 1.1 2.8 1.7 6 1.7 9.5C199.6-16 181.4 0 158.4 0c-24.2 0-37.1-17.3-37.1-35.1 0-9.5 3.6-16.8 8.2-21.4-19.9 2.1-32.5-6.4-39.3-18.7 4.5-3.8 6.1-9.5 6.1-9.5-5.4 7-14.6 13.2-27.5 13.2-19.4.1-34.8-19.1-34.8-39.7 0-13.1 4.8-25.8 14.6-34.2-6.1-5.1-8.7-12.4-5.9-18.3z" class="st4"/></g><path d="M407.3-263.4c.1 0 .2-.1.2-.2 2.4-16 11.7-29.4 24.4-37.4.1-.1.1-.2.1-.3 0-.1-.2-.2-.3-.2-10.5 2.1-19.8 7.9-26.4 16-4.6-13.4-15.2-22-28.3-25.7 4.8-5.6 2.3-13.5-5.1-14.8-.1 0-.2 0-.3.1 0 .1 0 .2.1.3 4 3.3 2.5 11.4-9.3 11.4-7.8 0-12.8-3.2-12.8-7.5 0-3.4 3.1-5.2 5.6-5.2 4.4 0 6.9 4 5 7.5-.1.1 0 .2.1.3.1.1.2.1.3 0 2.2-1.6 3.8-3.6 3.8-6.8 0-5.4-5-11.1-13.3-11.1-8.9 0-17 6.9-17 15.3 0 11.8 10 17.4 20.6 18.4 0 0-4.4 1.7-7.6 6.5-.1.1-.1.2 0 .3.1.1.2.1.3.1 5.8-3.1 12.5-4.7 19.5-4.7 19.6 0 36.5 16.4 40.2 37.4-.1.2 0 .3.2.3zm76.6-52.4c4.6-7.7 6.3-20.8 2-30.7 0-.1 0-.2.1-.3.1-.1.2-.1.3 0 4.8 4.6 8.9 15.2 6.7 27.5 3.1 2.4 5 4.8 6.5 8 0 .1 0 .2-.1.3-.1.1-.2.1-.3 0-4.9-3.4-9.4-4.5-15.2-4.8zM473.3-196c.1.1.1.2 0 .3-.1.1-.2.1-.3 0-6.8-5.5-15.9-9.1-27-9.1-27.6 0-45 16.5-47.7 33.9 0 .1-.1.2-.2.2s-.2 0-.3-.2c-2.7-6.3-4.4-15.3 4-27.5 5-7.3 11.1-12.3 11.1-18.8 0-4.3-2.3-7.2-5.7-7.2-3.6 0-5.9 3.1-5.9 6.6 0 1.7.5 3.5 1.4 5 .1.1 0 .2 0 .3-.1.1-.2.1-.3 0-3-1.9-5.6-5.4-5.6-10.3 0-7.2 6.1-13.2 14.5-13.2 9 0 16.3 7 16.3 17.2 0 3.5-1 7.7-3.5 11.1 3.4-2.8 5.2-4.8 6.7-9.2 10.4-1.8 21.5-.1 30.3 5.6.3-6.1 2.3-11.2 6.3-15.3.1-.1.2-.1.3 0 .1.1.1.2.1.3-2.9 8.4-.9 20.6 5.5 30.3zm87.4-6.6c-2.2 4.8-7.5 7.5-13.5 7.6-.1 0-.2-.1-.3-.2 0-.1 0-.2.2-.3 2-.8 3.7-2.1 4.5-3.9 2.2-4.7-1.4-11.1-8-14.4-.1 0-.1-.1-.1-.2s0-.2.1-.2c4.3-3.5 9.4-10.1 9.4-23.4 0-18.7-12.2-36.5-28.3-36.5-9.2 0-16.6 6.4-20.5 16 4.2-5.8 10-10.1 17.9-10.1 11.6 0 20.9 12.4 20.9 30.3 0 16.9-11.9 36.6-27.8 36.6-8.7 0-15.2-7-15.2-16.1 0-8.1 5.2-12.7 11.1-12.7 4.4 0 7.5 3.1 8.4 6.5 0 .1 0 .2-.1.3-.1.1-.2 0-.3-.1-.8-.9-1.9-1.6-3.7-1.6-2.9 0-4.5 2.5-4.5 4.3 0 3.5 2.6 5.9 6.4 5.9 5.2 0 9.3-5.8 9.3-13.2 0-9.2-8.8-17.7-17.7-17.7-9 0-18.7 8.1-18.7 23 0 14.7 10 31.6 25.8 31.6 9.2 0 17.1-4.2 23.1-11.1.1-.1.2-.1.3-.1.1.1.2.2.1.3-4.4 12.9-2 25.1 4.8 25.1 3.3 0 5-2.4 5-4.9 0-2.6-1.9-4.8-5-5.2-.1 0-.2-.1-.2-.2s.1-.2.2-.3c6.8-1.8 13.8 1.9 13.8 9 0 6.3-5.4 11.1-12.4 11.1-10.6 0-15.7-11.3-13.5-21.5-5.5 7-13.6 12.8-25.2 12.8-23.5 0-35.4-26.9-35.4-44.9 0-16.4 3.3-26.9 10.2-34.9-8.1 6.1-11.4 12.9-12.9 22.3 0 0-6.1 8.4-22.1 8.4-6.7 0-12.9-2.5-17.8-7.2l-.1-.1c-.3-.3-.6-.6-.9-1-5.1-4.8-15.2-9.4-24.4-5.6-.1 0-.2 0-.3-.1-.1-.1-.1-.2 0-.3 4.4-6 12-7.9 17.7-7.1-1-3.7-1.6-7.9-1.6-12.5 0-16.4 8.8-28 18.4-33.6-3.2-3.8-2.5-9.8 1-13.8.1-.1.2-.1.3-.1.1.1.2.2.1.3-1.7 5.5 3.4 10.1 10.2 9.9.1 0 .2.1.3.2 0 .1 0 .2-.2.3-10.1 4.2-16.9 13-16.9 24 0 11.5 6.9 20.9 18 20.9 9.1 0 18.2-8.3 18.2-18.7 0-8.1-4.5-12.8-10.2-12.8-5 0-9 3.5-9 7.5 0 5.9 6.6 8 10.1 3.3.1-.1.2-.1.3-.1.1 0 .2.2.2.3-.5 4.4-3.8 8.5-8.8 8.5-4.6 0-9.3-3.8-9.3-12 0-9.7 9.3-19.6 24.7-19.6 21 0 32.4 23.7 22.1 42.6 5.2-6 10-12.4 10-23.8 0-21.5-21.3-36-46.4-27.5-.1 0-.2 0-.3-.1-.1-.1 0-.2.1-.3 7-5.1 14.3-12.6 14.3-25.3 0-13.2-8.7-22.5-22.3-22.5-10.5 0-17.1 6.4-17.1 13.9 0 5.8 3.7 10.4 10.1 10.4 9.5 0 12.7-10.3 7.8-15-.1-.1-.1-.2 0-.3.1-.1.2-.2.3-.1 4.8 1.2 9.3 6.1 9.3 13.4 0 12.5-11.6 20.9-24.4 20.9-6 0-11.8-1.8-16.5-5 .6-4.2-.9-8.8-3-11.8 1.9 6.9-.2 18.2-10.7 18.2-5.9 0-9.8-4.5-9.8-9.9 0-6.3 5.3-9.3 9.7-8.7.1 0 .2.1.2.2s-.1.2-.2.3c-1.6.6-2.9 2.3-2.9 4.3 0 2.5 1.9 4 3.9 4 3.3 0 5.1-3.7 4-7.7-1.1-2.8-1.7-6-1.7-9.5 0-16.8 18.2-32.7 41.1-32.7 24.2 0 37.1 17.3 37.1 35.1 0 9.5-3.6 16.8-8.2 21.4 19.9-2.1 32.5 6.4 39.3 18.7-4.5 3.8-6.1 9.5-6.1 9.5 5.4-7 14.6-13.2 27.5-13.2 19.6 0 34.9 19.2 34.9 39.8 0 13.1-4.8 25.8-14.6 34.2 6.6 5.2 9.2 12.6 6.4 18.5z" class="st1"/><path d="M482.2-327.9c0 .1 0 .2.1.3 14.8 6.5 25.3 19 29.7 33.4 0 .1.1.2.3.2.1 0 .2-.1.2-.2.7-10.7-2.4-21.2-8.5-29.7 14.1-.9 25.2-8.9 32.2-20.5 4.1 6.1 12.5 5.8 15.7-1 .1-.1 0-.2-.1-.3-.1-.1-.2-.1-.3 0-4.3 3-11.7-.6-8.6-12 2.1-7.5 6.4-11.5 10.6-10.4 3.3.9 4.2 4.3 3.6 6.8-1.2 4.3-5.6 5.7-8.6 2.9-.1-.1-.2-.1-.3 0-.1.1-.1.2-.1.3.9 2.6 2.5 4.6 5.5 5.5 5.2 1.4 12.1-1.9 14.2-9.9 2.3-8.6-2.1-18.2-10.3-20.4-11.4-3.1-19.5 5.1-23.2 15 0 0-.5-4.7-4.3-9.1-.1-.1-.2-.1-.3-.1-.1.1-.2.2-.1.3 1.4 6.4 1.3 13.3-.6 20.1-5.2 18.9-25.4 30.9-46.6 28.9 0-.3-.2-.2-.2-.1zm30.4 87.8c6.2 6.5 18.5 11.5 29.1 10 .1 0 .2.1.3.2 0 .1 0 .2-.1.3-5.7 3.4-17 4.6-28.3-.8-3.1 2.4-5.9 3.6-9.4 4.2-.1 0-.2 0-.3-.1 0-.1 0-.2.1-.3 4.5-4 6.8-8.1 8.6-13.5zm-112.8-41.8c-.1 0-.2 0-.3-.1-.1-.1 0-.2.1-.3 7.1-5.1 12.9-12.9 15.9-23.7 7.3-26.6-4.1-47.7-20.2-55-.1 0-.2-.2-.1-.3 0-.1.1-.2.2-.2 6.8-1 15.9-.2 25.5 11.1 5.7 6.8 8.9 14 15.2 15.7 4.1 1.1 7.5-.3 8.4-3.6.9-3.5-1.4-6.5-4.8-7.5-1.7-.5-3.5-.4-5.2 0-.1 0-.2 0-.3-.1-.1-.1 0-.2.1-.3 2.7-2.4 6.7-4 11.4-2.7 6.9 1.9 11.1 9.4 8.9 17.4-2.4 8.7-11.1 13.9-20.9 11.2-3.4-.9-7.1-3-9.8-6.3 1.8 4 3.3 6.3 7.1 8.9-1 10.5-5.5 20.8-13.4 27.8 5.8 1.9 10.2 5.1 13.1 10.2.1.1 0 .2 0 .3-.1.1-.2.1-.3 0-7.2-4.8-19.5-6.2-30.6-2.5zm-16.6 86c-4-3.4-5.3-9.2-3.8-15 0-.1.1-.2.3-.2.1 0 .2.1.2.2.2 2.2 1 4.1 2.6 5.4 4 3.4 11.1 1.6 16-3.9.1-.1.1-.1.2-.1s.2.1.2.1c2.3 5.1 7.2 11.7 20.1 15.2 18 4.9 38.4-2.1 42.6-17.7 2.4-8.9-1.8-17.7-10-24 4.4 5.6 7.1 12.3 5 19.9-3.1 11.2-17.5 16.9-34.7 12.1-16.3-4.4-32.2-21.1-28-36.4 2.3-8.4 10.8-12.8 19.6-10.4 7.8 2.1 10.8 8.4 9.3 14.1-1.2 4.3-5 6.4-8.5 6.4-.1 0-.2-.1-.2-.2s0-.2.1-.3c1.1-.5 2.1-1.4 2.5-3.1.8-2.8-1.3-5-3-5.5-3.3-.9-6.4.9-7.4 4.6-1.4 5.1 3.1 10.5 10.3 12.5 8.9 2.4 19.4-3.9 21.7-12.4 2.4-8.7-2.9-20.1-17.3-24.1-14.2-3.9-33.1 1.3-37.3 16.6-2.4 8.9-.5 17.6 4.6 25.2.1.1.1.2 0 .3-.1.1-.2.1-.3 0-11.3-7.7-23.7-8.5-25.5-2-.9 3.2 1 5.5 3.4 6.1 2.5.7 5.1-.6 6.3-3.4 0-.1.2-.2.3-.2.1 0 .2.1.2.3-.1 7-5.5 12.8-12.4 11-6.1-1.7-9.3-8.1-7.5-14.9 2.8-10.3 15-12.2 24.3-7.3-5.4-7.1-8.8-16.5-5.8-27.7 6.2-22.7 35.3-27.1 52.7-22.4 15.8 4.3 25 10.3 31 19.1-3.8-9.4-9.5-14.4-18.1-18.3 0 0-6.5-8.1-2.3-23.6 1.8-6.5 5.8-11.8 11.6-15.3l.1-.1c.4-.2.8-.4 1.2-.7 6-3.6 13.1-12.2 11.8-22.1 0-.1 0-.2.2-.3.1 0 .2 0 .3.1 4.7 5.8 4.5 13.7 2.2 18.9 3.9 0 8 .5 12.5 1.7 15.8 4.3 24.7 15.9 27.6 26.6 4.5-2 10.1.2 13.1 4.6.1.1.1.2 0 .3-.1.1-.2.1-.3 0-4.9-3.1-10.7.6-12.2 7.2 0 .1-.1.2-.3.2-.1 0-.2-.1-.2-.2-1.3-10.9-8.1-19.7-18.7-22.6-11.1-3-21.9 1.2-24.9 11.9-2.4 8.8 3.2 19.7 13.2 22.4 7.8 2.1 13.5-1 15-6.5 1.3-4.8-1-9.5-4.9-10.6-5.6-1.5-9.4 4.2-5.9 8.9.1.1.1.2 0 .3-.1.1-.2.1-.3.1-4.1-1.7-7.2-5.9-5.9-10.7 1.2-4.4 6.2-8 14.1-5.8 9.4 2.6 16.4 14.2 12.4 29-5.5 20.2-31.4 25-46.9 10.1 4.4 6.6 9.3 12.9 20.3 15.9 20.8 5.7 40.4-11 38.7-37.5 0-.1.1-.2.2-.3.1 0 .2 0 .3.2 3.1 8.1 8.4 17.2 20.6 20.5 12.7 3.5 24-2.5 27.6-15.5 2.8-10.1-1.7-18.2-8.9-20.2-5.6-1.5-11 .9-12.7 7-2.5 9.2 6.6 15 12.4 11.5.1-.1.2 0 .3 0 .1.1.1.2 0 .3-2.4 4.3-8.3 7.4-15.3 5.5-12.1-3.3-17.1-16.7-13.7-29.1 1.6-5.8 4.8-10.9 9.2-14.6 3.9 1.6 8.7 1.5 12.2.3-7.1.1-17.5-4.9-14.7-15.1 1.6-5.7 6.9-8.2 12.1-6.8 6.1 1.7 7.5 7.6 5.8 11.6 0 .1-.2.2-.3.2-.1 0-.2-.1-.2-.2-.2-1.7-1.4-3.4-3.3-4-2.4-.7-4.3.8-4.9 2.7-.9 3.2 2.2 5.9 6.4 5.9 3-.3 6.2 0 9.6.9 16.2 4.4 26.8 26.2 20.8 48.3-6.4 23.4-26.4 31.2-43.6 26.5-9.2-2.5-15.2-7.9-18.5-13.5-3.2 19.8-14.7 29.7-28.4 33-2.5-5.3-7.5-8.4-7.5-8.4 5.4 7 8.9 17.5 5.5 30-5.2 18.9-27.7 28.6-47.6 23.2-12.6-3.4-23.6-11.4-29.2-23.1-6.6 5.1-14.4 5.7-19.4 1.4z" class="st2"/><g class="st3"><path d="M530.1-270c-.1 0-.2.1-.2.2-2.4 16-11.7 29.4-24.4 37.4-.1.1-.1.2-.1.3 0 .1.2.2.3.2 10.5-2.1 19.8-7.9 26.4-16 4.6 13.4 15.2 22 28.3 25.7-4.8 5.6-2.3 13.5 5.1 14.8.1 0 .2 0 .3-.1 0-.1 0-.2-.1-.3-4-3.3-2.5-11.4 9.3-11.4 7.8 0 12.8 3.2 12.8 7.5 0 3.4-3.1 5.2-5.6 5.2-4.4 0-6.9-4-5-7.5.1-.1 0-.2-.1-.3-.1-.1-.2-.1-.3 0-2.2 1.6-3.8 3.6-3.8 6.8 0 5.4 5 11.1 13.3 11.1 8.9 0 17-6.9 17-15.3 0-11.8-10-17.4-20.6-18.4 0 0 4.4-1.7 7.6-6.5.1-.1.1-.2 0-.3-.1-.1-.2-.1-.3-.1-5.8 3.1-12.5 4.7-19.5 4.7-19.6 0-36.5-16.4-40.2-37.4.1-.2 0-.3-.2-.3zm-76.6 52.4c-4.6 7.7-6.3 20.8-2 30.7 0 .1 0 .2-.1.3-.1.1-.2.1-.3 0-4.8-4.6-8.9-15.2-6.7-27.5-3.1-2.4-5-4.8-6.5-8 0-.1 0-.2.1-.3.1-.1.2-.1.3 0 4.9 3.4 9.4 4.6 15.2 4.8zm10.6-119.8c-.1-.1-.1-.2 0-.3.1-.1.2-.1.3 0 6.8 5.5 15.9 9.1 27 9.1 27.6 0 45-16.5 47.7-33.9 0-.1.1-.2.2-.2s.2 0 .3.1c2.7 6.3 4.4 15.3-4 27.5-5 7.3-11.1 12.3-11.1 18.8 0 4.3 2.3 7.2 5.7 7.2 3.6 0 5.9-3.1 5.9-6.6 0-1.7-.5-3.5-1.4-5-.1-.1 0-.2 0-.3.1-.1.2-.1.3 0 3 1.9 5.6 5.4 5.6 10.3 0 7.2-6.1 13.2-14.5 13.2-9 0-16.3-7-16.3-17.2 0-3.5 1-7.7 3.5-11.1-3.4 2.8-5.2 4.8-6.7 9.2-10.4 1.8-21.5.1-30.3-5.6-.3 6.1-2.2 11.2-6.3 15.3-.1.1-.2.1-.3 0-.1-.1-.1-.2-.1-.3 2.9-8.2.9-20.4-5.5-30.2zm-87.4 6.7c2.2-4.8 7.5-7.5 13.5-7.6.1 0 .2.1.3.2 0 .1 0 .2-.2.3-2 .8-3.7 2.1-4.5 3.9-2.2 4.7 1.4 11.1 8 14.4.1 0 .1.1.1.2s0 .2-.1.2c-4.3 3.5-9.4 10.1-9.4 23.4 0 18.7 12.2 36.5 28.3 36.5 9.2 0 16.6-6.4 20.5-16-4.2 5.8-10 10.1-17.9 10.1-11.6 0-20.9-12.4-20.9-30.3 0-16.9 11.9-36.6 27.8-36.6 8.7 0 15.2 7 15.2 16.1 0 8.1-5.2 12.7-11.1 12.7-4.4 0-7.5-3.1-8.4-6.5 0-.1 0-.2.1-.3.1-.1.2 0 .3.1.8.9 1.9 1.6 3.7 1.6 2.9 0 4.5-2.5 4.5-4.3 0-3.5-2.6-5.9-6.4-5.9-5.2 0-9.3 5.8-9.3 13.2 0 9.2 8.8 17.7 17.7 17.7 9 0 18.7-8.1 18.7-23 0-14.7-10-31.6-25.8-31.6-9.2 0-17.1 4.2-23.1 11.1-.1.1-.2.1-.3.1-.1-.1-.2-.2-.1-.3 4.4-12.9 2-25.1-4.8-25.1-3.3 0-5 2.4-5 4.9 0 2.6 1.9 4.8 5 5.2.1 0 .2.1.2.2s-.1.2-.2.3c-6.8 1.8-13.8-1.9-13.8-9 0-6.3 5.4-11.1 12.4-11.1 10.6 0 15.7 11.3 13.5 21.5 5.5-7 13.6-12.8 25.2-12.8 23.5 0 35.4 26.9 35.4 44.9 0 16.4-3.3 26.9-10.2 34.9 8.1-6.1 11.4-12.9 12.9-22.3 0 0 6.1-8.4 22.1-8.4 6.7 0 12.9 2.5 17.8 7.2l.1.1c.3.3.6.6.9 1 5.1 4.8 15.2 9.4 24.4 5.6.1 0 .2 0 .3.1.1.1.1.2 0 .3-4.4 6-12 7.9-17.7 7.1 1 3.7 1.6 7.9 1.6 12.5 0 16.4-8.8 28-18.4 33.6 3.2 3.8 2.5 9.8-1 13.8-.1.1-.2.1-.3.1-.1-.1-.2-.2-.1-.3 1.7-5.5-3.4-10.1-10.2-9.9-.1 0-.2-.1-.3-.2 0-.1 0-.2.2-.3 10.1-4.2 16.9-13 16.9-24 0-11.5-6.9-20.9-18-20.9-9.1 0-18.2 8.3-18.2 18.7 0 8.1 4.5 12.8 10.2 12.8 5 0 9-3.5 9-7.6 0-5.9-6.6-8-10.1-3.3-.1.1-.2.1-.3.1-.1 0-.2-.2-.2-.3.5-4.4 3.8-8.5 8.8-8.5 4.6 0 9.3 3.8 9.3 12 0 9.7-9.3 19.6-24.7 19.6-21 0-32.4-23.7-22.1-42.6-5.2 6-10 12.4-10 23.8 0 21.5 21.3 36 46.4 27.5.1 0 .2 0 .3.1.1.1 0 .2-.1.3-7 5.1-14.3 12.6-14.3 25.3 0 13.2 8.7 22.5 22.3 22.5 10.5 0 17.1-6.4 17.1-13.9 0-5.8-3.7-10.4-10.1-10.4-9.5 0-12.7 10.3-7.8 15 .1.1.1.2 0 .3-.1.1-.2.2-.3.1-4.8-1.2-9.3-6.1-9.3-13.4 0-12.5 11.6-20.9 24.4-20.9 6 0 11.8 1.8 16.5 5-.6 4.2.9 8.7 3 11.8-1.9-6.9.2-18.2 10.7-18.2 5.9 0 9.8 4.5 9.8 9.9 0 6.3-5.3 9.3-9.7 8.7-.1 0-.2-.1-.2-.2s.1-.2.2-.3c1.6-.6 2.9-2.3 2.9-4.3 0-2.5-1.9-4-3.9-4-3.3 0-5.1 3.7-4 7.7 1.1 2.8 1.7 6 1.7 9.5 0 16.8-18.2 32.7-41.1 32.7-24.2 0-37.1-17.3-37.1-35.1 0-9.5 3.6-16.8 8.2-21.4-19.9 2.1-32.5-6.4-39.3-18.7 4.5-3.8 6.1-9.5 6.1-9.5-5.4 7-14.6 13.2-27.5 13.2-19.6 0-34.9-19.2-34.9-39.8 0-13.1 4.8-25.8 14.6-34.2-6.6-5.2-9.2-12.5-6.4-18.4z" class="st4"/></g><path d="M240.3-263.4c.1 0 .2-.1.2-.2 2.4-16 11.7-29.4 24.4-37.4.1-.1.1-.2.1-.3 0-.1-.2-.2-.3-.2-10.5 2.1-19.8 7.9-26.4 16-4.6-13.4-15.2-22-28.3-25.7 4.8-5.6 2.3-13.5-5.1-14.8-.1 0-.2 0-.3.1 0 .1 0 .2.1.3 4 3.3 2.5 11.4-9.3 11.4-7.8 0-12.8-3.2-12.8-7.5 0-3.4 3.1-5.2 5.6-5.2 4.4 0 6.9 4 5 7.5-.1.1 0 .2.1.3.1.1.2.1.3 0 2.2-1.6 3.8-3.6 3.8-6.8 0-5.4-5-11.1-13.3-11.1-8.9 0-17 6.9-17 15.3 0 11.8 10 17.4 20.6 18.4 0 0-4.4 1.7-7.6 6.5-.1.1-.1.2 0 .3.1.1.2.1.3.1 5.8-3.1 12.5-4.7 19.5-4.7 19.6 0 36.5 16.4 40.2 37.4-.1.2 0 .3.2.3zm76.6-52.4c4.6-7.7 6.3-20.8 2-30.7 0-.1 0-.2.1-.3.1-.1.2-.1.3 0 4.8 4.6 8.9 15.2 6.7 27.5 3.1 2.4 5 4.8 6.5 8 0 .1 0 .2-.1.3-.1.1-.2.1-.3 0-4.9-3.4-9.4-4.5-15.2-4.8zM306.3-196c.1.1.1.2 0 .3-.1.1-.2.1-.3 0-6.8-5.5-15.9-9.1-27-9.1-27.6 0-45 16.5-47.7 33.9 0 .1-.1.2-.2.2s-.2 0-.3-.2c-2.7-6.3-4.4-15.3 4-27.5 5-7.3 11.1-12.3 11.1-18.8 0-4.3-2.3-7.2-5.7-7.2-3.6 0-5.9 3.1-5.9 6.6 0 1.7.5 3.5 1.4 5 .1.1 0 .2 0 .3-.1.1-.2.1-.3 0-3-1.9-5.6-5.4-5.6-10.3 0-7.2 6.1-13.2 14.5-13.2 9 0 16.3 7 16.3 17.2 0 3.5-1 7.7-3.5 11.1 3.4-2.8 5.2-4.8 6.7-9.2 10.4-1.8 21.5-.1 30.3 5.6.3-6.1 2.3-11.2 6.3-15.3.1-.1.2-.1.3 0 .1.1.1.2.1.3-2.9 8.4-.9 20.6 5.5 30.3zm87.4-6.6c-2.2 4.8-7.5 7.5-13.5 7.6-.1 0-.2-.1-.3-.2 0-.1 0-.2.2-.3 2-.8 3.7-2.1 4.5-3.9 2.2-4.7-1.4-11.1-8-14.4-.1 0-.1-.1-.1-.2s0-.2.1-.2c4.3-3.5 9.4-10.1 9.4-23.4 0-18.7-12.2-36.5-28.3-36.5-9.2 0-16.6 6.4-20.5 16 4.2-5.8 10-10.1 17.9-10.1 11.6 0 20.9 12.4 20.9 30.3 0 16.9-11.9 36.6-27.8 36.6-8.7 0-15.2-7-15.2-16.1 0-8.1 5.2-12.7 11.1-12.7 4.4 0 7.5 3.1 8.4 6.5 0 .1 0 .2-.1.3-.1.1-.2 0-.3-.1-.8-.9-1.9-1.6-3.7-1.6-2.9 0-4.5 2.5-4.5 4.3 0 3.5 2.6 5.9 6.4 5.9 5.2 0 9.3-5.8 9.3-13.2 0-9.2-8.8-17.7-17.7-17.7-9 0-18.7 8.1-18.7 23 0 14.7 10 31.6 25.8 31.6 9.2 0 17.1-4.2 23.1-11.1.1-.1.2-.1.3-.1.1.1.2.2.1.3-4.4 12.9-2 25.1 4.8 25.1 3.3 0 5-2.4 5-4.9 0-2.6-1.9-4.8-5-5.2-.1 0-.2-.1-.2-.2s.1-.2.2-.3c6.8-1.8 13.8 1.9 13.8 9 0 6.3-5.4 11.1-12.4 11.1-10.6 0-15.7-11.3-13.5-21.5-5.5 7-13.6 12.8-25.2 12.8-23.5 0-35.4-26.9-35.4-44.9 0-16.4 3.3-26.9 10.2-34.9-8.1 6.1-11.4 12.9-12.9 22.3 0 0-6.1 8.4-22.1 8.4-6.7 0-12.9-2.5-17.8-7.2l-.1-.1c-.3-.3-.6-.6-.9-1-5.1-4.8-15.2-9.4-24.4-5.6-.1 0-.2 0-.3-.1-.1-.1-.1-.2 0-.3 4.4-6 12-7.9 17.7-7.1-1-3.7-1.6-7.9-1.6-12.5 0-16.4 8.8-28 18.4-33.6-3.2-3.8-2.5-9.8 1-13.8.1-.1.2-.1.3-.1.1.1.2.2.1.3-1.7 5.5 3.4 10.1 10.2 9.9.1 0 .2.1.3.2 0 .1 0 .2-.2.3-10.1 4.2-16.9 13-16.9 24 0 11.5 6.9 20.9 18 20.9 9.1 0 18.2-8.3 18.2-18.7 0-8.1-4.5-12.8-10.2-12.8-5 0-9 3.5-9 7.5 0 5.9 6.6 8 10.1 3.3.1-.1.2-.1.3-.1.1 0 .2.2.2.3-.5 4.4-3.8 8.5-8.8 8.5-4.6 0-9.3-3.8-9.3-12 0-9.7 9.3-19.6 24.7-19.6 21 0 32.4 23.7 22.1 42.6 5.2-6 10-12.4 10-23.8 0-21.5-21.3-36-46.4-27.5-.1 0-.2 0-.3-.1-.1-.1 0-.2.1-.3 7-5.1 14.3-12.6 14.3-25.3 0-13.2-8.7-22.5-22.3-22.5-10.5 0-17.1 6.4-17.1 13.9 0 5.8 3.7 10.4 10.1 10.4 9.5 0 12.7-10.3 7.8-15-.1-.1-.1-.2 0-.3.1-.1.2-.2.3-.1 4.8 1.2 9.3 6.1 9.3 13.4 0 12.5-11.6 20.9-24.4 20.9-6 0-11.8-1.8-16.5-5 .6-4.2-.9-8.8-3-11.8 1.9 6.9-.2 18.2-10.7 18.2-5.9 0-9.8-4.5-9.8-9.9 0-6.3 5.3-9.3 9.7-8.7.1 0 .2.1.2.2s-.1.2-.2.3c-1.6.6-2.9 2.3-2.9 4.3 0 2.5 1.9 4 3.9 4 3.3 0 5.1-3.7 4-7.7-1.1-2.8-1.7-6-1.7-9.5 0-16.8 18.2-32.7 41.1-32.7 24.2 0 37.1 17.3 37.1 35.1 0 9.5-3.6 16.8-8.2 21.4 19.9-2.1 32.5 6.4 39.3 18.7-4.5 3.8-6.1 9.5-6.1 9.5 5.4-7 14.6-13.2 27.5-13.2 19.6 0 34.9 19.2 34.9 39.8 0 13.1-4.8 25.8-14.6 34.2 6.6 5.2 9.2 12.6 6.4 18.5z" class="st1"/><path d="M315.2-327.9c0 .1 0 .2.1.3 14.8 6.5 25.3 19 29.7 33.4 0 .1.1.2.3.2.1 0 .2-.1.2-.2.7-10.7-2.4-21.2-8.5-29.7 14.1-.9 25.2-8.9 32.2-20.5 4.1 6.1 12.5 5.8 15.7-1 .1-.1 0-.2-.1-.3-.1-.1-.2-.1-.3 0-4.3 3-11.7-.6-8.6-12 2.1-7.5 6.4-11.5 10.6-10.4 3.3.9 4.2 4.3 3.6 6.8-1.2 4.3-5.6 5.7-8.6 2.9-.1-.1-.2-.1-.3 0-.1.1-.1.2-.1.3.9 2.6 2.5 4.6 5.5 5.5 5.2 1.4 12.1-1.9 14.2-9.9 2.3-8.6-2.1-18.2-10.3-20.4-11.4-3.1-19.5 5.1-23.2 15 0 0-.5-4.7-4.3-9.1-.1-.1-.2-.1-.3-.1-.1.1-.2.2-.1.3 1.4 6.4 1.3 13.3-.6 20.1-5.2 18.9-25.4 30.9-46.6 28.9 0-.3-.2-.2-.2-.1zm30.4 87.8c6.2 6.5 18.5 11.5 29.1 10 .1 0 .2.1.3.2 0 .1 0 .2-.1.3-5.7 3.4-17 4.6-28.3-.8-3.1 2.4-5.9 3.6-9.4 4.2-.1 0-.2 0-.3-.1 0-.1 0-.2.1-.3 4.5-4 6.8-8.1 8.6-13.5zm-112.8-41.8c-.1 0-.2 0-.3-.1-.1-.1 0-.2.1-.3 7.1-5.1 12.9-12.9 15.9-23.7 7.3-26.6-4.1-47.7-20.2-55-.1 0-.2-.2-.1-.3 0-.1.1-.2.2-.2 6.8-1 15.9-.2 25.5 11.1 5.7 6.8 8.9 14 15.2 15.7 4.1 1.1 7.5-.3 8.4-3.6.9-3.5-1.4-6.5-4.8-7.5-1.7-.5-3.5-.4-5.2 0-.1 0-.2 0-.3-.1-.1-.1 0-.2.1-.3 2.7-2.4 6.7-4 11.4-2.7 6.9 1.9 11.1 9.4 8.9 17.4-2.4 8.7-11.1 13.9-20.9 11.2-3.4-.9-7.1-3-9.8-6.3 1.8 4 3.3 6.3 7.1 8.9-1 10.5-5.5 20.8-13.4 27.8 5.8 1.9 10.2 5.1 13.1 10.2.1.1 0 .2 0 .3-.1.1-.2.1-.3 0-7.2-4.8-19.5-6.2-30.6-2.5zm-16.6 86c-4-3.4-5.3-9.2-3.8-15 0-.1.1-.2.3-.2.1 0 .2.1.2.2.2 2.2 1 4.1 2.6 5.4 4 3.4 11.1 1.6 16-3.9.1-.1.1-.1.2-.1s.2.1.2.1c2.3 5.1 7.2 11.7 20.1 15.2 18 4.9 38.4-2.1 42.6-17.7 2.4-8.9-1.8-17.7-10-24 4.4 5.6 7.1 12.3 5 19.9-3.1 11.2-17.5 16.9-34.7 12.1-16.3-4.4-32.2-21.1-28-36.4 2.3-8.4 10.8-12.8 19.6-10.4 7.8 2.1 10.8 8.4 9.3 14.1-1.2 4.3-5 6.4-8.5 6.4-.1 0-.2-.1-.2-.2s0-.2.1-.3c1.1-.5 2.1-1.4 2.5-3.1.8-2.8-1.3-5-3-5.5-3.3-.9-6.4.9-7.4 4.6-1.4 5.1 3.1 10.5 10.3 12.5 8.9 2.4 19.4-3.9 21.7-12.4 2.4-8.7-2.9-20.1-17.3-24.1-14.2-3.9-33.1 1.3-37.3 16.6-2.4 8.9-.5 17.6 4.6 25.2.1.1.1.2 0 .3-.1.1-.2.1-.3 0-11.3-7.7-23.7-8.5-25.5-2-.9 3.2 1 5.5 3.4 6.1 2.5.7 5.1-.6 6.3-3.4 0-.1.2-.2.3-.2.1 0 .2.1.2.3-.1 7-5.5 12.8-12.4 11-6.1-1.7-9.3-8.1-7.5-14.9 2.8-10.3 15-12.2 24.3-7.3-5.4-7.1-8.8-16.5-5.8-27.7 6.2-22.7 35.3-27.1 52.7-22.4 15.8 4.3 25 10.3 31 19.1-3.8-9.4-9.5-14.4-18.1-18.3 0 0-6.5-8.1-2.3-23.6 1.8-6.5 5.8-11.8 11.6-15.3l.1-.1c.4-.2.8-.4 1.2-.7 6-3.6 13.1-12.2 11.8-22.1 0-.1 0-.2.2-.3.1 0 .2 0 .3.1 4.7 5.8 4.5 13.7 2.2 18.9 3.9 0 8 .5 12.5 1.7 15.8 4.3 24.7 15.9 27.6 26.6 4.5-2 10.1.2 13.1 4.6.1.1.1.2 0 .3-.1.1-.2.1-.3 0-4.9-3.1-10.7.6-12.2 7.2 0 .1-.1.2-.3.2-.1 0-.2-.1-.2-.2-1.3-10.9-8.1-19.7-18.7-22.6-11.1-3-21.9 1.2-24.9 11.9-2.4 8.8 3.2 19.7 13.2 22.4 7.8 2.1 13.5-1 15-6.5 1.3-4.8-1-9.5-4.9-10.6-5.6-1.5-9.4 4.2-5.9 8.9.1.1.1.2 0 .3-.1.1-.2.1-.3.1-4.1-1.7-7.2-5.9-5.9-10.7 1.2-4.4 6.2-8 14.1-5.8 9.4 2.6 16.4 14.2 12.4 29-5.5 20.2-31.4 25-46.9 10.1 4.4 6.6 9.3 12.9 20.3 15.9 20.8 5.7 40.4-11 38.7-37.5 0-.1.1-.2.2-.3.1 0 .2 0 .3.2 3.1 8.1 8.4 17.2 20.6 20.5 12.7 3.5 24-2.5 27.6-15.5 2.8-10.1-1.7-18.2-8.9-20.2-5.6-1.5-11 .9-12.7 7-2.5 9.2 6.6 15 12.4 11.5.1-.1.2 0 .3 0 .1.1.1.2 0 .3-2.4 4.3-8.3 7.4-15.3 5.5-12.1-3.3-17.1-16.7-13.7-29.1 1.6-5.8 4.8-10.9 9.2-14.6 3.9 1.6 8.7 1.5 12.2.3-7.1.1-17.5-4.9-14.7-15.1 1.6-5.7 6.9-8.2 12.1-6.8 6.1 1.7 7.5 7.6 5.8 11.6 0 .1-.2.2-.3.2-.1 0-.2-.1-.2-.2-.2-1.7-1.4-3.4-3.3-4-2.4-.7-4.3.8-4.9 2.7-.9 3.2 2.2 5.9 6.4 5.9 3-.3 6.2 0 9.6.9 16.2 4.4 26.8 26.2 20.8 48.3-6.4 23.4-26.4 31.2-43.6 26.5-9.2-2.5-15.2-7.9-18.5-13.5-3.2 19.8-14.7 29.7-28.4 33-2.5-5.3-7.5-8.4-7.5-8.4 5.4 7 8.9 17.5 5.5 30-5.2 18.9-27.7 28.6-47.6 23.2-12.6-3.4-23.6-11.4-29.2-23.1-6.6 5.1-14.4 5.7-19.4 1.4z" class="st2"/><g class="st3"><path d="M363.1-270c-.1 0-.2.1-.2.2-2.4 16-11.7 29.4-24.4 37.4-.1.1-.1.2-.1.3 0 .1.2.2.3.2 10.5-2.1 19.8-7.9 26.4-16 4.6 13.4 15.2 22 28.3 25.7-4.8 5.6-2.3 13.5 5.1 14.8.1 0 .2 0 .3-.1 0-.1 0-.2-.1-.3-4-3.3-2.5-11.4 9.3-11.4 7.8 0 12.8 3.2 12.8 7.5 0 3.4-3.1 5.2-5.6 5.2-4.4 0-6.9-4-5-7.5.1-.1 0-.2-.1-.3-.1-.1-.2-.1-.3 0-2.2 1.6-3.8 3.6-3.8 6.8 0 5.4 5 11.1 13.3 11.1 8.9 0 17-6.9 17-15.3 0-11.8-10-17.4-20.6-18.4 0 0 4.4-1.7 7.6-6.5.1-.1.1-.2 0-.3-.1-.1-.2-.1-.3-.1-5.8 3.1-12.5 4.7-19.5 4.7-19.6 0-36.5-16.4-40.2-37.4.1-.2 0-.3-.2-.3zm-76.6 52.4c-4.6 7.7-6.3 20.8-2 30.7 0 .1 0 .2-.1.3-.1.1-.2.1-.3 0-4.8-4.6-8.9-15.2-6.7-27.5-3.1-2.4-5-4.8-6.5-8 0-.1 0-.2.1-.3.1-.1.2-.1.3 0 4.9 3.4 9.4 4.6 15.2 4.8zm10.6-119.8c-.1-.1-.1-.2 0-.3.1-.1.2-.1.3 0 6.8 5.5 15.9 9.1 27 9.1 27.6 0 45-16.5 47.7-33.9 0-.1.1-.2.2-.2s.2 0 .3.1c2.7 6.3 4.4 15.3-4 27.5-5 7.3-11.1 12.3-11.1 18.8 0 4.3 2.3 7.2 5.7 7.2 3.6 0 5.9-3.1 5.9-6.6 0-1.7-.5-3.5-1.4-5-.1-.1 0-.2 0-.3.1-.1.2-.1.3 0 3 1.9 5.6 5.4 5.6 10.3 0 7.2-6.1 13.2-14.5 13.2-9 0-16.3-7-16.3-17.2 0-3.5 1-7.7 3.5-11.1-3.4 2.8-5.2 4.8-6.7 9.2-10.4 1.8-21.5.1-30.3-5.6-.3 6.1-2.2 11.2-6.3 15.3-.1.1-.2.1-.3 0-.1-.1-.1-.2-.1-.3 2.9-8.2.9-20.4-5.5-30.2zm-87.4 6.7c2.2-4.8 7.5-7.5 13.5-7.6.1 0 .2.1.3.2 0 .1 0 .2-.2.3-2 .8-3.7 2.1-4.5 3.9-2.2 4.7 1.4 11.1 8 14.4.1 0 .1.1.1.2s0 .2-.1.2c-4.3 3.5-9.4 10.1-9.4 23.4 0 18.7 12.2 36.5 28.3 36.5 9.2 0 16.6-6.4 20.5-16-4.2 5.8-10 10.1-17.9 10.1-11.6 0-20.9-12.4-20.9-30.3 0-16.9 11.9-36.6 27.8-36.6 8.7 0 15.2 7 15.2 16.1 0 8.1-5.2 12.7-11.1 12.7-4.4 0-7.5-3.1-8.4-6.5 0-.1 0-.2.1-.3.1-.1.2 0 .3.1.8.9 1.9 1.6 3.7 1.6 2.9 0 4.5-2.5 4.5-4.3 0-3.5-2.6-5.9-6.4-5.9-5.2 0-9.3 5.8-9.3 13.2 0 9.2 8.8 17.7 17.7 17.7 9 0 18.7-8.1 18.7-23 0-14.7-10-31.6-25.8-31.6-9.2 0-17.1 4.2-23.1 11.1-.1.1-.2.1-.3.1-.1-.1-.2-.2-.1-.3 4.4-12.9 2-25.1-4.8-25.1-3.3 0-5 2.4-5 4.9 0 2.6 1.9 4.8 5 5.2.1 0 .2.1.2.2s-.1.2-.2.3c-6.8 1.8-13.8-1.9-13.8-9 0-6.3 5.4-11.1 12.4-11.1 10.6 0 15.7 11.3 13.5 21.5 5.5-7 13.6-12.8 25.2-12.8 23.5 0 35.4 26.9 35.4 44.9 0 16.4-3.3 26.9-10.2 34.9 8.1-6.1 11.4-12.9 12.9-22.3 0 0 6.1-8.4 22.1-8.4 6.7 0 12.9 2.5 17.8 7.2l.1.1c.3.3.6.6.9 1 5.1 4.8 15.2 9.4 24.4 5.6.1 0 .2 0 .3.1.1.1.1.2 0 .3-4.4 6-12 7.9-17.7 7.1 1 3.7 1.6 7.9 1.6 12.5 0 16.4-8.8 28-18.4 33.6 3.2 3.8 2.5 9.8-1 13.8-.1.1-.2.1-.3.1-.1-.1-.2-.2-.1-.3 1.7-5.5-3.4-10.1-10.2-9.9-.1 0-.2-.1-.3-.2 0-.1 0-.2.2-.3 10.1-4.2 16.9-13 16.9-24 0-11.5-6.9-20.9-18-20.9-9.1 0-18.2 8.3-18.2 18.7 0 8.1 4.5 12.8 10.2 12.8 5 0 9-3.5 9-7.6 0-5.9-6.6-8-10.1-3.3-.1.1-.2.1-.3.1-.1 0-.2-.2-.2-.3.5-4.4 3.8-8.5 8.8-8.5 4.6 0 9.3 3.8 9.3 12 0 9.7-9.3 19.6-24.7 19.6-21 0-32.4-23.7-22.1-42.6-5.2 6-10 12.4-10 23.8 0 21.5 21.3 36 46.4 27.5.1 0 .2 0 .3.1.1.1 0 .2-.1.3-7 5.1-14.3 12.6-14.3 25.3 0 13.2 8.7 22.5 22.3 22.5 10.5 0 17.1-6.4 17.1-13.9 0-5.8-3.7-10.4-10.1-10.4-9.5 0-12.7 10.3-7.8 15 .1.1.1.2 0 .3-.1.1-.2.2-.3.1-4.8-1.2-9.3-6.1-9.3-13.4 0-12.5 11.6-20.9 24.4-20.9 6 0 11.8 1.8 16.5 5-.6 4.2.9 8.7 3 11.8-1.9-6.9.2-18.2 10.7-18.2 5.9 0 9.8 4.5 9.8 9.9 0 6.3-5.3 9.3-9.7 8.7-.1 0-.2-.1-.2-.2s.1-.2.2-.3c1.6-.6 2.9-2.3 2.9-4.3 0-2.5-1.9-4-3.9-4-3.3 0-5.1 3.7-4 7.7 1.1 2.8 1.7 6 1.7 9.5 0 16.8-18.2 32.7-41.1 32.7-24.2 0-37.1-17.3-37.1-35.1 0-9.5 3.6-16.8 8.2-21.4-19.9 2.1-32.5-6.4-39.3-18.7 4.5-3.8 6.1-9.5 6.1-9.5-5.4 7-14.6 13.2-27.5 13.2-19.6 0-34.9-19.2-34.9-39.8 0-13.1 4.8-25.8 14.6-34.2-6.6-5.2-9.2-12.5-6.4-18.4z" class="st4"/></g><path d="M73.3-263.4c.1 0 .2-.1.2-.2 2.4-16 11.7-29.4 24.4-37.4.1-.1.1-.2.1-.3 0-.1-.2-.2-.3-.2-10.5 2.1-19.8 7.9-26.4 16-4.6-13.4-15.2-22-28.3-25.7 4.8-5.6 2.3-13.5-5.1-14.8-.1 0-.2 0-.3.1 0 .1 0 .2.1.3 4 3.3 2.5 11.4-9.3 11.4-7.8 0-12.8-3.2-12.8-7.5 0-3.4 3.1-5.2 5.6-5.2 4.4 0 6.9 4 5 7.5-.1.1 0 .2.1.3.1.1.2.1.3 0 2.2-1.6 3.8-3.6 3.8-6.8 0-5.4-5-11.1-13.3-11.1-8.9 0-17 6.9-17 15.3 0 11.8 10 17.4 20.6 18.4 0 0-4.4 1.7-7.6 6.5-.1.1-.1.2 0 .3.1.1.2.1.3.1 5.8-3.1 12.5-4.7 19.5-4.7 19.6 0 36.5 16.4 40.2 37.4-.1.2 0 .3.2.3zm76.6-52.4c4.6-7.7 6.3-20.8 2-30.7 0-.1 0-.2.1-.3.1-.1.2-.1.3 0 4.8 4.6 8.9 15.2 6.7 27.5 3.1 2.4 5 4.8 6.5 8 0 .1 0 .2-.1.3-.1.1-.2.1-.3 0-4.9-3.4-9.4-4.5-15.2-4.8zM139.3-196c.1.1.1.2 0 .3-.1.1-.2.1-.3 0-6.8-5.5-15.9-9.1-27-9.1-27.6 0-45 16.5-47.7 33.9 0 .1-.1.2-.2.2s-.2 0-.3-.2c-2.7-6.3-4.4-15.3 4-27.5 5-7.3 11.1-12.3 11.1-18.8 0-4.3-2.3-7.2-5.7-7.2-3.6 0-5.9 3.1-5.9 6.6 0 1.7.5 3.5 1.4 5 .1.1 0 .2 0 .3-.1.1-.2.1-.3 0-3-1.9-5.6-5.4-5.6-10.3 0-7.2 6.1-13.2 14.5-13.2 9 0 16.3 7 16.3 17.2 0 3.5-1 7.7-3.5 11.1 3.4-2.8 5.2-4.8 6.7-9.2 10.4-1.8 21.5-.1 30.3 5.6.3-6.1 2.3-11.2 6.3-15.3.1-.1.2-.1.3 0 .1.1.1.2.1.3-2.9 8.4-.9 20.6 5.5 30.3zm87.4-6.6c-2.2 4.8-7.5 7.5-13.5 7.6-.1 0-.2-.1-.3-.2 0-.1 0-.2.2-.3 2-.8 3.7-2.1 4.5-3.9 2.2-4.7-1.4-11.1-8-14.4-.1 0-.1-.1-.1-.2s0-.2.1-.2c4.3-3.5 9.4-10.1 9.4-23.4 0-18.7-12.2-36.5-28.3-36.5-9.2 0-16.6 6.4-20.5 16 4.2-5.8 10-10.1 17.9-10.1 11.6 0 20.9 12.4 20.9 30.3 0 16.9-11.9 36.6-27.8 36.6-8.7 0-15.2-7-15.2-16.1 0-8.1 5.2-12.7 11.1-12.7 4.4 0 7.5 3.1 8.4 6.5 0 .1 0 .2-.1.3-.1.1-.2 0-.3-.1-.8-.9-1.9-1.6-3.7-1.6-2.9 0-4.5 2.5-4.5 4.3 0 3.5 2.6 5.9 6.4 5.9 5.2 0 9.3-5.8 9.3-13.2 0-9.2-8.8-17.7-17.7-17.7-9 0-18.7 8.1-18.7 23 0 14.7 10 31.6 25.8 31.6 9.2 0 17.1-4.2 23.1-11.1.1-.1.2-.1.3-.1.1.1.2.2.1.3-4.4 12.9-2 25.1 4.8 25.1 3.3 0 5-2.4 5-4.9 0-2.6-1.9-4.8-5-5.2-.1 0-.2-.1-.2-.2s.1-.2.2-.3c6.8-1.8 13.8 1.9 13.8 9 0 6.3-5.4 11.1-12.4 11.1-10.6 0-15.7-11.3-13.5-21.5-5.5 7-13.6 12.8-25.2 12.8-23.5 0-35.4-26.9-35.4-44.9 0-16.4 3.3-26.9 10.2-34.9-8.1 6.1-11.4 12.9-12.9 22.3 0 0-6.1 8.4-22.1 8.4-6.7 0-12.9-2.5-17.8-7.2l-.1-.1c-.3-.3-.6-.6-.9-1-5.1-4.8-15.2-9.4-24.4-5.6-.1 0-.2 0-.3-.1-.1-.1-.1-.2 0-.3 4.4-6 12-7.9 17.7-7.1-1-3.7-1.6-7.9-1.6-12.5 0-16.4 8.8-28 18.4-33.6-3.2-3.8-2.5-9.8 1-13.8.1-.1.2-.1.3-.1.1.1.2.2.1.3-1.7 5.5 3.4 10.1 10.2 9.9.1 0 .2.1.3.2 0 .1 0 .2-.2.3-10.1 4.2-16.9 13-16.9 24 0 11.5 6.9 20.9 18 20.9 9.1 0 18.2-8.3 18.2-18.7 0-8.1-4.5-12.8-10.2-12.8-5 0-9 3.5-9 7.5 0 5.9 6.6 8 10.1 3.3.1-.1.2-.1.3-.1.1 0 .2.2.2.3-.5 4.4-3.8 8.5-8.8 8.5-4.6 0-9.3-3.8-9.3-12 0-9.7 9.3-19.6 24.7-19.6 21 0 32.4 23.7 22.1 42.6 5.2-6 10-12.4 10-23.8 0-21.5-21.3-36-46.4-27.5-.1 0-.2 0-.3-.1-.1-.1 0-.2.1-.3 7-5.1 14.3-12.6 14.3-25.3 0-13.2-8.7-22.5-22.3-22.5-10.5 0-17.1 6.4-17.1 13.9 0 5.8 3.7 10.4 10.1 10.4 9.5 0 12.7-10.3 7.8-15-.1-.1-.1-.2 0-.3.1-.1.2-.2.3-.1 4.8 1.2 9.3 6.1 9.3 13.4 0 12.5-11.6 20.9-24.4 20.9-6 0-11.8-1.8-16.5-5 .6-4.2-.9-8.8-3-11.8 1.9 6.9-.2 18.2-10.7 18.2-5.9 0-9.8-4.5-9.8-9.9 0-6.3 5.3-9.3 9.7-8.7.1 0 .2.1.2.2s-.1.2-.2.3c-1.6.6-2.9 2.3-2.9 4.3 0 2.5 1.9 4 3.9 4 3.3 0 5.1-3.7 4-7.7-1.1-2.8-1.7-6-1.7-9.5 0-16.8 18.2-32.7 41.1-32.7 24.2 0 37.1 17.3 37.1 35.1 0 9.5-3.6 16.8-8.2 21.4 19.9-2.1 32.5 6.4 39.3 18.7-4.5 3.8-6.1 9.5-6.1 9.5 5.4-7 14.6-13.2 27.5-13.2 19.6 0 34.9 19.2 34.9 39.8 0 13.1-4.8 25.8-14.6 34.2 6.6 5.2 9.2 12.6 6.4 18.5z" class="st1"/><path d="M148.2-327.9c0 .1 0 .2.1.3 14.8 6.5 25.3 19 29.7 33.4 0 .1.1.2.3.2.1 0 .2-.1.2-.2.7-10.7-2.4-21.2-8.5-29.7 14.1-.9 25.2-8.9 32.2-20.5 4.1 6.1 12.5 5.8 15.7-1 .1-.1 0-.2-.1-.3-.1-.1-.2-.1-.3 0-4.3 3-11.7-.6-8.6-12 2.1-7.5 6.4-11.5 10.6-10.4 3.3.9 4.2 4.3 3.6 6.8-1.2 4.3-5.6 5.7-8.6 2.9-.1-.1-.2-.1-.3 0-.1.1-.1.2-.1.3.9 2.6 2.5 4.6 5.5 5.5 5.2 1.4 12.1-1.9 14.2-9.9 2.3-8.6-2.1-18.2-10.3-20.4-11.4-3.1-19.5 5.1-23.2 15 0 0-.5-4.7-4.3-9.1-.1-.1-.2-.1-.3-.1-.1.1-.2.2-.1.3 1.4 6.4 1.3 13.3-.6 20.1-5.2 18.9-25.4 30.9-46.6 28.9 0-.3-.2-.2-.2-.1zm30.4 87.8c6.2 6.5 18.5 11.5 29.1 10 .1 0 .2.1.3.2 0 .1 0 .2-.1.3-5.7 3.4-17 4.6-28.3-.8-3.1 2.4-5.9 3.6-9.4 4.2-.1 0-.2 0-.3-.1 0-.1 0-.2.1-.3 4.5-4 6.8-8.1 8.6-13.5zM65.8-281.9c-.1 0-.2 0-.3-.1-.1-.1 0-.2.1-.3 7.1-5.1 12.9-12.9 15.9-23.7 7.3-26.6-4.1-47.7-20.2-55-.1 0-.2-.2-.1-.3 0-.1.1-.2.2-.2 6.8-1 15.9-.2 25.5 11.1 5.7 6.8 8.9 14 15.2 15.7 4.1 1.1 7.5-.3 8.4-3.6.9-3.5-1.4-6.5-4.8-7.5-1.7-.5-3.5-.4-5.2 0-.1 0-.2 0-.3-.1-.1-.1 0-.2.1-.3 2.7-2.4 6.7-4 11.4-2.7 6.9 1.9 11.1 9.4 8.9 17.4-2.4 8.7-11.1 13.9-20.9 11.2-3.4-.9-7.1-3-9.8-6.3 1.8 4 3.3 6.3 7.1 8.9-1 10.5-5.5 20.8-13.4 27.8 5.8 1.9 10.2 5.1 13.1 10.2.1.1 0 .2 0 .3-.1.1-.2.1-.3 0-7.2-4.8-19.5-6.2-30.6-2.5zm-16.6 86c-4-3.4-5.3-9.2-3.8-15 0-.1.1-.2.3-.2.1 0 .2.1.2.2.2 2.2 1 4.1 2.6 5.4 4 3.4 11.1 1.6 16-3.9.1-.1.1-.1.2-.1s.2.1.2.1c2.3 5.1 7.2 11.7 20.1 15.2 18 4.9 38.4-2.1 42.6-17.7 2.4-8.9-1.8-17.7-10-24 4.4 5.6 7.1 12.3 5 19.9-3.1 11.2-17.5 16.9-34.7 12.1-16.3-4.4-32.2-21.1-28-36.4 2.3-8.4 10.8-12.8 19.6-10.4 7.8 2.1 10.8 8.4 9.3 14.1-1.2 4.3-5 6.4-8.5 6.4-.1 0-.2-.1-.2-.2s0-.2.1-.3c1.1-.5 2.1-1.4 2.5-3.1.8-2.8-1.3-5-3-5.5-3.3-.9-6.4.9-7.4 4.6-1.4 5.1 3.1 10.5 10.3 12.5 8.9 2.4 19.4-3.9 21.7-12.4 2.4-8.7-2.9-20.1-17.3-24.1-14.2-3.9-33.1 1.3-37.3 16.6-2.4 8.9-.5 17.6 4.6 25.2.1.1.1.2 0 .3-.1.1-.2.1-.3 0-11.3-7.7-23.7-8.5-25.5-2-.9 3.2 1 5.5 3.4 6.1 2.5.7 5.1-.6 6.3-3.4 0-.1.2-.2.3-.2.1 0 .2.1.2.3-.1 7-5.5 12.8-12.4 11-6.1-1.7-9.3-8.1-7.5-14.9 2.8-10.3 15-12.2 24.3-7.3-5.4-7.1-8.8-16.5-5.8-27.7 6.2-22.7 35.3-27.1 52.7-22.4 15.8 4.3 25 10.3 31 19.1-3.8-9.4-9.5-14.4-18.1-18.3 0 0-6.5-8.1-2.3-23.6 1.8-6.5 5.8-11.8 11.6-15.3l.1-.1c.4-.2.8-.4 1.2-.7 6-3.6 13.1-12.2 11.8-22.1 0-.1 0-.2.2-.3.1 0 .2 0 .3.1 4.7 5.8 4.5 13.7 2.2 18.9 3.9 0 8 .5 12.5 1.7 15.8 4.3 24.7 15.9 27.6 26.6 4.5-2 10.1.2 13.1 4.6.1.1.1.2 0 .3-.1.1-.2.1-.3 0-4.9-3.1-10.7.6-12.2 7.2 0 .1-.1.2-.3.2-.1 0-.2-.1-.2-.2-1.3-10.9-8.1-19.7-18.7-22.6-11.1-3-21.9 1.2-24.9 11.9-2.4 8.8 3.2 19.7 13.2 22.4 7.8 2.1 13.5-1 15-6.5 1.3-4.8-1-9.5-4.9-10.6-5.6-1.5-9.4 4.2-5.9 8.9.1.1.1.2 0 .3-.1.1-.2.1-.3.1-4.1-1.7-7.2-5.9-5.9-10.7 1.2-4.4 6.2-8 14.1-5.8 9.4 2.6 16.4 14.2 12.4 29-5.5 20.2-31.4 25-46.9 10.1 4.4 6.6 9.3 12.9 20.3 15.9 20.8 5.7 40.4-11 38.7-37.5 0-.1.1-.2.2-.3.1 0 .2 0 .3.2 3.1 8.1 8.4 17.2 20.6 20.5 12.7 3.5 24-2.5 27.6-15.5 2.8-10.1-1.7-18.2-8.9-20.2-5.6-1.5-11 .9-12.7 7-2.5 9.2 6.6 15 12.4 11.5.1-.1.2 0 .3 0 .1.1.1.2 0 .3-2.4 4.3-8.3 7.4-15.3 5.5-12.1-3.3-17.1-16.7-13.7-29.1 1.6-5.8 4.8-10.9 9.2-14.6 3.9 1.6 8.7 1.5 12.2.3-7.1.1-17.5-4.9-14.7-15.1 1.6-5.7 6.9-8.2 12.1-6.8 6.1 1.7 7.5 7.6 5.8 11.6 0 .1-.2.2-.3.2-.1 0-.2-.1-.2-.2-.2-1.7-1.4-3.4-3.3-4-2.4-.7-4.3.8-4.9 2.7-.9 3.2 2.2 5.9 6.4 5.9 3-.3 6.2 0 9.6.9 16.2 4.4 26.8 26.2 20.8 48.3-6.4 23.4-26.4 31.2-43.6 26.5-9.2-2.5-15.2-7.9-18.5-13.5-3.2 19.8-14.7 29.7-28.4 33-2.5-5.3-7.5-8.4-7.5-8.4 5.4 7 8.9 17.5 5.5 30-5.2 18.9-27.7 28.6-47.6 23.2-12.8-2.9-23.8-10.9-29.4-22.5-6.4 4.5-14.2 5.1-19.2.8z" class="st2"/><g class="st3"><path d="M196.1-270c-.1 0-.2.1-.2.2-2.4 16-11.7 29.4-24.4 37.4-.1.1-.1.2-.1.3 0 .1.2.2.3.2 10.5-2.1 19.8-7.9 26.4-16 4.6 13.4 15.2 22 28.3 25.7-4.8 5.6-2.3 13.5 5.1 14.8.1 0 .2 0 .3-.1 0-.1 0-.2-.1-.3-4-3.3-2.5-11.4 9.3-11.4 7.8 0 12.8 3.2 12.8 7.5 0 3.4-3.1 5.2-5.6 5.2-4.4 0-6.9-4-5-7.5.1-.1 0-.2-.1-.3-.1-.1-.2-.1-.3 0-2.2 1.6-3.8 3.6-3.8 6.8 0 5.4 5 11.1 13.3 11.1 8.9 0 17-6.9 17-15.3 0-11.8-10-17.4-20.6-18.4 0 0 4.4-1.7 7.6-6.5.1-.1.1-.2 0-.3-.1-.1-.2-.1-.3-.1-5.8 3.1-12.5 4.7-19.5 4.7-19.6 0-36.5-16.4-40.2-37.4.1-.2 0-.3-.2-.3zm-76.6 52.4c-4.6 7.7-6.3 20.8-2 30.7 0 .1 0 .2-.1.3-.1.1-.2.1-.3 0-4.8-4.6-8.9-15.2-6.7-27.5-3.1-2.4-5-4.8-6.5-8 0-.1 0-.2.1-.3.1-.1.2-.1.3 0 4.9 3.4 9.4 4.6 15.2 4.8zm10.6-119.8c-.1-.1-.1-.2 0-.3.1-.1.2-.1.3 0 6.8 5.5 15.9 9.1 27 9.1 27.6 0 45-16.5 47.7-33.9 0-.1.1-.2.2-.2s.2 0 .3.1c2.7 6.3 4.4 15.3-4 27.5-5 7.3-11.1 12.3-11.1 18.8 0 4.3 2.3 7.2 5.7 7.2 3.6 0 5.9-3.1 5.9-6.6 0-1.7-.5-3.5-1.4-5-.1-.1 0-.2 0-.3.1-.1.2-.1.3 0 3 1.9 5.6 5.4 5.6 10.3 0 7.2-6.1 13.2-14.5 13.2-9 0-16.3-7-16.3-17.2 0-3.5 1-7.7 3.5-11.1-3.4 2.8-5.2 4.8-6.7 9.2-10.4 1.8-21.5.1-30.3-5.6-.3 6.1-2.2 11.2-6.3 15.3-.1.1-.2.1-.3 0-.1-.1-.1-.2-.1-.3 2.9-8.2.9-20.4-5.5-30.2zm-87.4 6.7c2.2-4.8 7.5-7.5 13.5-7.6.1 0 .2.1.3.2 0 .1 0 .2-.2.3-2 .8-3.7 2.1-4.5 3.9-2.2 4.7 1.4 11.1 8 14.4.1 0 .1.1.1.2s0 .2-.1.2c-4.3 3.5-9.4 10.1-9.4 23.4 0 18.7 12.2 36.5 28.3 36.5 9.2 0 16.6-6.4 20.5-16-4.2 5.8-10 10.1-17.9 10.1-11.6 0-20.9-12.4-20.9-30.3 0-16.9 11.9-36.6 27.8-36.6 8.7 0 15.2 7 15.2 16.1 0 8.1-5.2 12.7-11.1 12.7-4.4 0-7.5-3.1-8.4-6.5 0-.1 0-.2.1-.3.1-.1.2 0 .3.1.8.9 1.9 1.6 3.7 1.6 2.9 0 4.5-2.5 4.5-4.3 0-3.5-2.6-5.9-6.4-5.9-5.2 0-9.3 5.8-9.3 13.2 0 9.2 8.8 17.7 17.7 17.7 9 0 18.7-8.1 18.7-23 0-14.7-10-31.6-25.8-31.6-9.2 0-17.1 4.2-23.1 11.1-.1.1-.2.1-.3.1-.1-.1-.2-.2-.1-.3 4.4-12.9 2-25.1-4.8-25.1-3.3 0-5 2.4-5 4.9 0 2.6 1.9 4.8 5 5.2.1 0 .2.1.2.2s-.1.2-.2.3c-6.8 1.8-13.8-1.9-13.8-9 0-6.3 5.4-11.1 12.4-11.1 10.6 0 15.7 11.3 13.5 21.5 5.5-7 13.6-12.8 25.2-12.8 23.5 0 35.4 26.9 35.4 44.9 0 16.4-3.3 26.9-10.2 34.9 8.1-6.1 11.4-12.9 12.9-22.3 0 0 6.1-8.4 22.1-8.4 6.7 0 12.9 2.5 17.8 7.2l.1.1c.3.3.6.6.9 1 5.1 4.8 15.2 9.4 24.4 5.6.1 0 .2 0 .3.1.1.1.1.2 0 .3-4.4 6-12 7.9-17.7 7.1 1 3.7 1.6 7.9 1.6 12.5 0 16.4-8.8 28-18.4 33.6 3.2 3.8 2.5 9.8-1 13.8-.1.1-.2.1-.3.1-.1-.1-.2-.2-.1-.3 1.7-5.5-3.4-10.1-10.2-9.9-.1 0-.2-.1-.3-.2 0-.1 0-.2.2-.3 10.1-4.2 16.9-13 16.9-24 0-11.5-6.9-20.9-18-20.9-9.1 0-18.2 8.3-18.2 18.7 0 8.1 4.5 12.8 10.2 12.8 5 0 9-3.5 9-7.6 0-5.9-6.6-8-10.1-3.3-.1.1-.2.1-.3.1-.1 0-.2-.2-.2-.3.5-4.4 3.8-8.5 8.8-8.5 4.6 0 9.3 3.8 9.3 12 0 9.7-9.3 19.6-24.7 19.6-21 0-32.4-23.7-22.1-42.6-5.2 6-10 12.4-10 23.8 0 21.5 21.3 36 46.4 27.5.1 0 .2 0 .3.1.1.1 0 .2-.1.3-7 5.1-14.3 12.6-14.3 25.3 0 13.2 8.7 22.5 22.3 22.5 10.5 0 17.1-6.4 17.1-13.9 0-5.8-3.7-10.4-10.1-10.4-9.5 0-12.7 10.3-7.8 15 .1.1.1.2 0 .3-.1.1-.2.2-.3.1-4.8-1.2-9.3-6.1-9.3-13.4 0-12.5 11.6-20.9 24.4-20.9 6 0 11.8 1.8 16.5 5-.6 4.2.9 8.7 3 11.8-1.9-6.9.2-18.2 10.7-18.2 5.9 0 9.8 4.5 9.8 9.9 0 6.3-5.3 9.3-9.7 8.7-.1 0-.2-.1-.2-.2s.1-.2.2-.3c1.6-.6 2.9-2.3 2.9-4.3 0-2.5-1.9-4-3.9-4-3.3 0-5.1 3.7-4 7.7 1.1 2.8 1.7 6 1.7 9.5 0 16.8-18.2 32.7-41.1 32.7-24.2 0-37.1-17.3-37.1-35.1 0-9.5 3.6-16.8 8.2-21.4-19.9 2.1-32.5-6.4-39.3-18.7 4.5-3.8 6.1-9.5 6.1-9.5-5.4 7-14.6 13.2-27.5 13.2-19.6 0-34.9-19.2-34.9-39.8 0-13.1 4.8-25.8 14.6-34.2-6.6-5.2-9.2-12.5-6.4-18.4z" class="st4"/></g><path d="M407.3-430.4c.1 0 .2-.1.2-.2 2.4-16 11.7-29.4 24.4-37.4.1-.1.1-.2.1-.3 0-.1-.2-.2-.3-.2-10.5 2.1-19.8 7.9-26.4 16-4.6-13.4-15.2-22-28.3-25.7 4.8-5.6 2.3-13.5-5.1-14.8-.1 0-.2 0-.3.1 0 .1 0 .2.1.3 4 3.3 2.5 11.4-9.3 11.4-7.8 0-12.8-3.2-12.8-7.5 0-3.4 3.1-5.2 5.6-5.2 4.4 0 6.9 4 5 7.5-.1.1 0 .2.1.3.1.1.2.1.3 0 2.2-1.6 3.8-3.6 3.8-6.8 0-5.4-5-11.1-13.3-11.1-8.9 0-17 6.9-17 15.3 0 11.8 10 17.4 20.6 18.4 0 0-4.4 1.7-7.6 6.5-.1.1-.1.2 0 .3.1.1.2.1.3.1 5.8-3.1 12.5-4.7 19.5-4.7 19.6 0 36.5 16.4 40.2 37.4-.1.2 0 .3.2.3zm76.6-52.4c4.6-7.7 6.3-20.8 2-30.7 0-.1 0-.2.1-.3.1-.1.2-.1.3 0 4.8 4.6 8.9 15.2 6.7 27.5 3.1 2.4 5 4.8 6.5 8 0 .1 0 .2-.1.3-.1.1-.2.1-.3 0-4.9-3.4-9.4-4.5-15.2-4.8zM473.3-363c.1.1.1.2 0 .3-.1.1-.2.1-.3 0-6.8-5.5-15.9-9.1-27-9.1-27.6 0-45 16.5-47.7 33.9 0 .1-.1.2-.2.2s-.2 0-.3-.2c-2.7-6.3-4.4-15.3 4-27.5 5-7.3 11.1-12.3 11.1-18.8 0-4.3-2.3-7.2-5.7-7.2-3.6 0-5.9 3.1-5.9 6.6 0 1.7.5 3.5 1.4 5 .1.1 0 .2 0 .3-.1.1-.2.1-.3 0-3-1.9-5.6-5.4-5.6-10.3 0-7.2 6.1-13.2 14.5-13.2 9 0 16.3 7 16.3 17.2 0 3.5-1 7.7-3.5 11.1 3.4-2.8 5.2-4.8 6.7-9.2 10.4-1.8 21.5-.1 30.3 5.6.3-6.1 2.3-11.2 6.3-15.3.1-.1.2-.1.3 0 .1.1.1.2.1.3-2.9 8.4-.9 20.6 5.5 30.3zm87.4-6.6c-2.2 4.8-7.5 7.5-13.5 7.6-.1 0-.2-.1-.3-.2 0-.1 0-.2.2-.3 2-.8 3.7-2.1 4.5-3.9 2.2-4.7-1.4-11.1-8-14.4-.1 0-.1-.1-.1-.2s0-.2.1-.2c4.3-3.5 9.4-10.1 9.4-23.4 0-18.7-12.2-36.5-28.3-36.5-9.2 0-16.6 6.4-20.5 16 4.2-5.8 10-10.1 17.9-10.1 11.6 0 20.9 12.4 20.9 30.3 0 16.9-11.9 36.6-27.8 36.6-8.7 0-15.2-7-15.2-16.1 0-8.1 5.2-12.7 11.1-12.7 4.4 0 7.5 3.1 8.4 6.5 0 .1 0 .2-.1.3-.1.1-.2 0-.3-.1-.8-.9-1.9-1.6-3.7-1.6-2.9 0-4.5 2.5-4.5 4.3 0 3.5 2.6 5.9 6.4 5.9 5.2 0 9.3-5.8 9.3-13.2 0-9.2-8.8-17.7-17.7-17.7-9 0-18.7 8.1-18.7 23 0 14.7 10 31.6 25.8 31.6 9.2 0 17.1-4.2 23.1-11.1.1-.1.2-.1.3-.1.1.1.2.2.1.3-4.4 12.9-2 25.1 4.8 25.1 3.3 0 5-2.4 5-4.9 0-2.6-1.9-4.8-5-5.2-.1 0-.2-.1-.2-.2s.1-.2.2-.3c6.8-1.8 13.8 1.9 13.8 9 0 6.3-5.4 11.1-12.4 11.1-10.6 0-15.7-11.3-13.5-21.5-5.5 7-13.6 12.8-25.2 12.8-23.5 0-35.4-26.9-35.4-44.9 0-16.4 3.3-26.9 10.2-34.9-8.1 6.1-11.4 12.9-12.9 22.3 0 0-6.1 8.4-22.1 8.4-6.7 0-12.9-2.5-17.8-7.2l-.1-.1c-.3-.3-.6-.6-.9-1-5.1-4.8-15.2-9.4-24.4-5.6-.1 0-.2 0-.3-.1-.1-.1-.1-.2 0-.3 4.4-6 12-7.9 17.7-7.1-1-3.7-1.6-7.9-1.6-12.5 0-16.4 8.8-28 18.4-33.6-3.2-3.8-2.5-9.8 1-13.8.1-.1.2-.1.3-.1.1.1.2.2.1.3-1.7 5.5 3.4 10.1 10.2 9.9.1 0 .2.1.3.2 0 .1 0 .2-.2.3-10.1 4.2-16.9 13-16.9 24 0 11.5 6.9 20.9 18 20.9 9.1 0 18.2-8.3 18.2-18.7 0-8.1-4.5-12.8-10.2-12.8-5 0-9 3.5-9 7.5 0 5.9 6.6 8 10.1 3.3.1-.1.2-.1.3-.1.1 0 .2.2.2.3-.5 4.4-3.8 8.5-8.8 8.5-4.6 0-9.3-3.8-9.3-12 0-9.7 9.3-19.6 24.7-19.6 21 0 32.4 23.7 22.1 42.6 5.2-6 10-12.4 10-23.8 0-21.5-21.3-36-46.4-27.5-.1 0-.2 0-.3-.1-.1-.1 0-.2.1-.3 7-5.1 14.3-12.6 14.3-25.3 0-13.2-8.7-22.5-22.3-22.5-10.5 0-17.1 6.4-17.1 13.9 0 5.8 3.7 10.4 10.1 10.4 9.5 0 12.7-10.3 7.8-15-.1-.1-.1-.2 0-.3.1-.1.2-.2.3-.1 4.8 1.2 9.3 6.1 9.3 13.4 0 12.5-11.6 20.9-24.4 20.9-6 0-11.8-1.8-16.5-5 .6-4.2-.9-8.8-3-11.8 1.9 6.9-.2 18.2-10.7 18.2-5.9 0-9.8-4.5-9.8-9.9 0-6.3 5.3-9.3 9.7-8.7.1 0 .2.1.2.2s-.1.2-.2.3c-1.6.6-2.9 2.3-2.9 4.3 0 2.5 1.9 4 3.9 4 3.3 0 5.1-3.7 4-7.7-1.1-2.8-1.7-6-1.7-9.5 0-16.8 18.2-32.7 41.1-32.7 24.2 0 37.1 17.3 37.1 35.1 0 9.5-3.6 16.8-8.2 21.4 19.9-2.1 32.5 6.4 39.3 18.7-4.5 3.8-6.1 9.5-6.1 9.5 5.4-7 14.6-13.2 27.5-13.2 19.6 0 34.9 19.2 34.9 39.8 0 13.1-4.8 25.8-14.6 34.2 6.6 5.2 9.2 12.6 6.4 18.5z" class="st1"/><path d="M482.2-494.9c0 .1 0 .2.1.3 14.8 6.5 25.3 19 29.7 33.4 0 .1.1.2.3.2.1 0 .2-.1.2-.2.7-10.7-2.4-21.2-8.5-29.7 14.1-.9 25.2-8.9 32.2-20.5 4.1 6.1 12.5 5.8 15.7-1 .1-.1 0-.2-.1-.3-.1-.1-.2-.1-.3 0-4.3 3-11.7-.6-8.6-12 2.1-7.5 6.4-11.5 10.6-10.4 3.3.9 4.2 4.3 3.6 6.8-1.2 4.3-5.6 5.7-8.6 2.9-.1-.1-.2-.1-.3 0-.1.1-.1.2-.1.3.9 2.6 2.5 4.6 5.5 5.5 5.2 1.4 12.1-1.9 14.2-9.9 2.3-8.6-2.1-18.2-10.3-20.4-11.4-3.1-19.5 5.1-23.2 15 0 0-.5-4.7-4.3-9.1-.1-.1-.2-.1-.3-.1-.1.1-.2.2-.1.3 1.4 6.4 1.3 13.3-.6 20.1-5.2 18.9-25.4 30.9-46.6 28.9 0-.3-.2-.2-.2-.1zm30.4 87.8c6.2 6.5 18.5 11.5 29.1 10 .1 0 .2.1.3.2 0 .1 0 .2-.1.3-5.7 3.4-17 4.6-28.3-.8-3.1 2.4-5.9 3.6-9.4 4.2-.1 0-.2 0-.3-.1 0-.1 0-.2.1-.3 4.5-4 6.8-8.1 8.6-13.5zm-112.8-41.8c-.1 0-.2 0-.3-.1-.1-.1 0-.2.1-.3 7.1-5.1 12.9-12.9 15.9-23.7 7.3-26.6-4.1-47.7-20.2-55-.1 0-.2-.2-.1-.3 0-.1.1-.2.2-.2 6.8-1 15.9-.2 25.5 11.1 5.7 6.8 8.9 14 15.2 15.7 4.1 1.1 7.5-.3 8.4-3.6.9-3.5-1.4-6.5-4.8-7.5-1.7-.5-3.5-.4-5.2 0-.1 0-.2 0-.3-.1-.1-.1 0-.2.1-.3 2.7-2.4 6.7-4 11.4-2.7 6.9 1.9 11.1 9.4 8.9 17.4-2.4 8.7-11.1 13.9-20.9 11.2-3.4-.9-7.1-3-9.8-6.3 1.8 4 3.3 6.3 7.1 8.9-1 10.5-5.5 20.8-13.4 27.8 5.8 1.9 10.2 5.1 13.1 10.2.1.1 0 .2 0 .3-.1.1-.2.1-.3 0-7.2-4.8-19.5-6.2-30.6-2.5zm-16.6 86c-4-3.4-5.3-9.2-3.8-15 0-.1.1-.2.3-.2.1 0 .2.1.2.2.2 2.2 1 4.1 2.6 5.4 4 3.4 11.1 1.6 16-3.9.1-.1.1-.1.2-.1s.2.1.2.1c2.3 5.1 7.2 11.7 20.1 15.2 18 4.9 38.4-2.1 42.6-17.7 2.4-8.9-1.8-17.7-10-24 4.4 5.6 7.1 12.3 5 19.9-3.1 11.2-17.5 16.9-34.7 12.1-16.3-4.4-32.2-21.1-28-36.4 2.3-8.4 10.8-12.8 19.6-10.4 7.8 2.1 10.8 8.4 9.3 14.1-1.2 4.3-5 6.4-8.5 6.4-.1 0-.2-.1-.2-.2s0-.2.1-.3c1.1-.5 2.1-1.4 2.5-3.1.8-2.8-1.3-5-3-5.5-3.3-.9-6.4.9-7.4 4.6-1.4 5.1 3.1 10.5 10.3 12.5 8.9 2.4 19.4-3.9 21.7-12.4 2.4-8.7-2.9-20.1-17.3-24.1-14.2-3.9-33.1 1.3-37.3 16.6-2.4 8.9-.5 17.6 4.6 25.2.1.1.1.2 0 .3-.1.1-.2.1-.3 0-11.3-7.7-23.7-8.5-25.5-2-.9 3.2 1 5.5 3.4 6.1 2.5.7 5.1-.6 6.3-3.4 0-.1.2-.2.3-.2.1 0 .2.1.2.3-.1 7-5.5 12.8-12.4 11-6.1-1.7-9.3-8.1-7.5-14.9 2.8-10.3 15-12.2 24.3-7.3-5.4-7.1-8.8-16.5-5.8-27.7 6.2-22.7 35.3-27.1 52.7-22.4 15.8 4.3 25 10.3 31 19.1-3.8-9.4-9.5-14.4-18.1-18.3 0 0-6.5-8.1-2.3-23.6 1.8-6.5 5.8-11.8 11.6-15.3l.1-.1c.4-.2.8-.4 1.2-.7 6-3.6 13.1-12.2 11.8-22.1 0-.1 0-.2.2-.3.1 0 .2 0 .3.1 4.7 5.8 4.5 13.7 2.2 18.9 3.9 0 8 .5 12.5 1.7 15.8 4.3 24.7 15.9 27.6 26.6 4.5-2 10.1.2 13.1 4.6.1.1.1.2 0 .3-.1.1-.2.1-.3 0-4.9-3.1-10.7.6-12.2 7.2 0 .1-.1.2-.3.2-.1 0-.2-.1-.2-.2-1.3-10.9-8.1-19.7-18.7-22.6-11.1-3-21.9 1.2-24.9 11.9-2.4 8.8 3.2 19.7 13.2 22.4 7.8 2.1 13.5-1 15-6.5 1.3-4.8-1-9.5-4.9-10.6-5.6-1.5-9.4 4.2-5.9 8.9.1.1.1.2 0 .3-.1.1-.2.1-.3.1-4.1-1.7-7.2-5.9-5.9-10.7 1.2-4.4 6.2-8 14.1-5.8 9.4 2.6 16.4 14.2 12.4 29-5.5 20.2-31.4 25-46.9 10.1 4.4 6.6 9.3 12.9 20.3 15.9 20.8 5.7 40.4-11 38.7-37.5 0-.1.1-.2.2-.3.1 0 .2 0 .3.2 3.1 8.1 8.4 17.2 20.6 20.5 12.7 3.5 24-2.5 27.6-15.5 2.8-10.1-1.7-18.2-8.9-20.2-5.6-1.5-11 .9-12.7 7-2.5 9.2 6.6 15 12.4 11.5.1-.1.2 0 .3 0 .1.1.1.2 0 .3-2.4 4.3-8.3 7.4-15.3 5.5-12.1-3.3-17.1-16.7-13.7-29.1 1.6-5.8 4.8-10.9 9.2-14.6 3.9 1.6 8.7 1.5 12.2.3-7.1.1-17.5-4.9-14.7-15.1 1.6-5.7 6.9-8.2 12.1-6.8 6.1 1.7 7.5 7.6 5.8 11.6 0 .1-.2.2-.3.2-.1 0-.2-.1-.2-.2-.2-1.7-1.4-3.4-3.3-4-2.4-.7-4.3.8-4.9 2.7-.9 3.2 2.2 5.9 6.4 5.9 3-.3 6.2 0 9.6.9 16.2 4.4 26.8 26.2 20.8 48.3-6.4 23.4-26.4 31.2-43.6 26.5-9.2-2.5-15.2-7.9-18.5-13.5-3.2 19.8-14.7 29.7-28.4 33-2.5-5.3-7.5-8.4-7.5-8.4 5.4 7 8.9 17.5 5.5 30-5.2 18.9-27.7 28.6-47.6 23.2-12.6-3.4-23.6-11.4-29.2-23.1-6.6 5.1-14.4 5.7-19.4 1.4z" class="st2"/><g class="st3"><path d="M530.1-437c-.1 0-.2.1-.2.2-2.4 16-11.7 29.4-24.4 37.4-.1.1-.1.2-.1.3 0 .1.2.2.3.2 10.5-2.1 19.8-7.9 26.4-16 4.6 13.4 15.2 22 28.3 25.7-4.8 5.6-2.3 13.5 5.1 14.8.1 0 .2 0 .3-.1 0-.1 0-.2-.1-.3-4-3.3-2.5-11.4 9.3-11.4 7.8 0 12.8 3.2 12.8 7.5 0 3.4-3.1 5.2-5.6 5.2-4.4 0-6.9-4-5-7.5.1-.1 0-.2-.1-.3-.1-.1-.2-.1-.3 0-2.2 1.6-3.8 3.6-3.8 6.8 0 5.4 5 11.1 13.3 11.1 8.9 0 17-6.9 17-15.3 0-11.8-10-17.4-20.6-18.4 0 0 4.4-1.7 7.6-6.5.1-.1.1-.2 0-.3-.1-.1-.2-.1-.3-.1-5.8 3.1-12.5 4.7-19.5 4.7-19.6 0-36.5-16.4-40.2-37.4.1-.2 0-.3-.2-.3zm-76.6 52.4c-4.6 7.7-6.3 20.8-2 30.7 0 .1 0 .2-.1.3-.1.1-.2.1-.3 0-4.8-4.6-8.9-15.2-6.7-27.5-3.1-2.4-5-4.8-6.5-8 0-.1 0-.2.1-.3.1-.1.2-.1.3 0 4.9 3.4 9.4 4.6 15.2 4.8zm10.6-119.8c-.1-.1-.1-.2 0-.3.1-.1.2-.1.3 0 6.8 5.5 15.9 9.1 27 9.1 27.6 0 45-16.5 47.7-33.9 0-.1.1-.2.2-.2s.2 0 .3.1c2.7 6.3 4.4 15.3-4 27.5-5 7.3-11.1 12.3-11.1 18.8 0 4.3 2.3 7.2 5.7 7.2 3.6 0 5.9-3.1 5.9-6.6 0-1.7-.5-3.5-1.4-5-.1-.1 0-.2 0-.3.1-.1.2-.1.3 0 3 1.9 5.6 5.4 5.6 10.3 0 7.2-6.1 13.2-14.5 13.2-9 0-16.3-7-16.3-17.2 0-3.5 1-7.7 3.5-11.1-3.4 2.8-5.2 4.8-6.7 9.2-10.4 1.8-21.5.1-30.3-5.6-.3 6.1-2.2 11.2-6.3 15.3-.1.1-.2.1-.3 0-.1-.1-.1-.2-.1-.3 2.9-8.2.9-20.4-5.5-30.2zm-87.4 6.7c2.2-4.8 7.5-7.5 13.5-7.6.1 0 .2.1.3.2 0 .1 0 .2-.2.3-2 .8-3.7 2.1-4.5 3.9-2.2 4.7 1.4 11.1 8 14.4.1 0 .1.1.1.2s0 .2-.1.2c-4.3 3.5-9.4 10.1-9.4 23.4 0 18.7 12.2 36.5 28.3 36.5 9.2 0 16.6-6.4 20.5-16-4.2 5.8-10 10.1-17.9 10.1-11.6 0-20.9-12.4-20.9-30.3 0-16.9 11.9-36.6 27.8-36.6 8.7 0 15.2 7 15.2 16.1 0 8.1-5.2 12.7-11.1 12.7-4.4 0-7.5-3.1-8.4-6.5 0-.1 0-.2.1-.3.1-.1.2 0 .3.1.8.9 1.9 1.6 3.7 1.6 2.9 0 4.5-2.5 4.5-4.3 0-3.5-2.6-5.9-6.4-5.9-5.2 0-9.3 5.8-9.3 13.2 0 9.2 8.8 17.7 17.7 17.7 9 0 18.7-8.1 18.7-23 0-14.7-10-31.6-25.8-31.6-9.2 0-17.1 4.2-23.1 11.1-.1.1-.2.1-.3.1-.1-.1-.2-.2-.1-.3 4.4-12.9 2-25.1-4.8-25.1-3.3 0-5 2.4-5 4.9 0 2.6 1.9 4.8 5 5.2.1 0 .2.1.2.2s-.1.2-.2.3c-6.8 1.8-13.8-1.9-13.8-9 0-6.3 5.4-11.1 12.4-11.1 10.6 0 15.7 11.3 13.5 21.5 5.5-7 13.6-12.8 25.2-12.8 23.5 0 35.4 26.9 35.4 44.9 0 16.4-3.3 26.9-10.2 34.9 8.1-6.1 11.4-12.9 12.9-22.3 0 0 6.1-8.4 22.1-8.4 6.7 0 12.9 2.5 17.8 7.2l.1.1c.3.3.6.6.9 1 5.1 4.8 15.2 9.4 24.4 5.6.1 0 .2 0 .3.1.1.1.1.2 0 .3-4.4 6-12 7.9-17.7 7.1 1 3.7 1.6 7.9 1.6 12.5 0 16.4-8.8 28-18.4 33.6 3.2 3.8 2.5 9.8-1 13.8-.1.1-.2.1-.3.1-.1-.1-.2-.2-.1-.3 1.7-5.5-3.4-10.1-10.2-9.9-.1 0-.2-.1-.3-.2 0-.1 0-.2.2-.3 10.1-4.2 16.9-13 16.9-24 0-11.5-6.9-20.9-18-20.9-9.1 0-18.2 8.3-18.2 18.7 0 8.1 4.5 12.8 10.2 12.8 5 0 9-3.5 9-7.6 0-5.9-6.6-8-10.1-3.3-.1.1-.2.1-.3.1-.1 0-.2-.2-.2-.3.5-4.4 3.8-8.5 8.8-8.5 4.6 0 9.3 3.8 9.3 12 0 9.7-9.3 19.6-24.7 19.6-21 0-32.4-23.7-22.1-42.6-5.2 6-10 12.4-10 23.8 0 21.5 21.3 36 46.4 27.5.1 0 .2 0 .3.1.1.1 0 .2-.1.3-7 5.1-14.3 12.6-14.3 25.3 0 13.2 8.7 22.5 22.3 22.5 10.5 0 17.1-6.4 17.1-13.9 0-5.8-3.7-10.4-10.1-10.4-9.5 0-12.7 10.3-7.8 15 .1.1.1.2 0 .3-.1.1-.2.2-.3.1-4.8-1.2-9.3-6.1-9.3-13.4 0-12.5 11.6-20.9 24.4-20.9 6 0 11.8 1.8 16.5 5-.6 4.2.9 8.7 3 11.8-1.9-6.9.2-18.2 10.7-18.2 5.9 0 9.8 4.5 9.8 9.9 0 6.3-5.3 9.3-9.7 8.7-.1 0-.2-.1-.2-.2s.1-.2.2-.3c1.6-.6 2.9-2.3 2.9-4.3 0-2.5-1.9-4-3.9-4-3.3 0-5.1 3.7-4 7.7 1.1 2.8 1.7 6 1.7 9.5 0 16.8-18.2 32.7-41.1 32.7-24.2 0-37.1-17.3-37.1-35.1 0-9.5 3.6-16.8 8.2-21.4-19.9 2.1-32.5-6.4-39.3-18.7 4.5-3.8 6.1-9.5 6.1-9.5-5.4 7-14.6 13.2-27.5 13.2-19.6 0-34.9-19.2-34.9-39.8 0-13.1 4.8-25.8 14.6-34.2-6.6-5.2-9.2-12.5-6.4-18.4z" class="st4"/></g><path d="M240.3-430.4c.1 0 .2-.1.2-.2 2.4-16 11.7-29.4 24.4-37.4.1-.1.1-.2.1-.3 0-.1-.2-.2-.3-.2-10.5 2.1-19.8 7.9-26.4 16-4.6-13.4-15.2-22-28.3-25.7 4.8-5.6 2.3-13.5-5.1-14.8-.1 0-.2 0-.3.1 0 .1 0 .2.1.3 4 3.3 2.5 11.4-9.3 11.4-7.8 0-12.8-3.2-12.8-7.5 0-3.4 3.1-5.2 5.6-5.2 4.4 0 6.9 4 5 7.5-.1.1 0 .2.1.3.1.1.2.1.3 0 2.2-1.6 3.8-3.6 3.8-6.8 0-5.4-5-11.1-13.3-11.1-8.9 0-17 6.9-17 15.3 0 11.8 10 17.4 20.6 18.4 0 0-4.4 1.7-7.6 6.5-.1.1-.1.2 0 .3.1.1.2.1.3.1 5.8-3.1 12.5-4.7 19.5-4.7 19.6 0 36.5 16.4 40.2 37.4-.1.2 0 .3.2.3zm76.6-52.4c4.6-7.7 6.3-20.8 2-30.7 0-.1 0-.2.1-.3.1-.1.2-.1.3 0 4.8 4.6 8.9 15.2 6.7 27.5 3.1 2.4 5 4.8 6.5 8 0 .1 0 .2-.1.3-.1.1-.2.1-.3 0-4.9-3.4-9.4-4.5-15.2-4.8zM306.3-363c.1.1.1.2 0 .3-.1.1-.2.1-.3 0-6.8-5.5-15.9-9.1-27-9.1-27.6 0-45 16.5-47.7 33.9 0 .1-.1.2-.2.2s-.2 0-.3-.2c-2.7-6.3-4.4-15.3 4-27.5 5-7.3 11.1-12.3 11.1-18.8 0-4.3-2.3-7.2-5.7-7.2-3.6 0-5.9 3.1-5.9 6.6 0 1.7.5 3.5 1.4 5 .1.1 0 .2 0 .3-.1.1-.2.1-.3 0-3-1.9-5.6-5.4-5.6-10.3 0-7.2 6.1-13.2 14.5-13.2 9 0 16.3 7 16.3 17.2 0 3.5-1 7.7-3.5 11.1 3.4-2.8 5.2-4.8 6.7-9.2 10.4-1.8 21.5-.1 30.3 5.6.3-6.1 2.3-11.2 6.3-15.3.1-.1.2-.1.3 0 .1.1.1.2.1.3-2.9 8.4-.9 20.6 5.5 30.3zm87.4-6.6c-2.2 4.8-7.5 7.5-13.5 7.6-.1 0-.2-.1-.3-.2 0-.1 0-.2.2-.3 2-.8 3.7-2.1 4.5-3.9 2.2-4.7-1.4-11.1-8-14.4-.1 0-.1-.1-.1-.2s0-.2.1-.2c4.3-3.5 9.4-10.1 9.4-23.4 0-18.7-12.2-36.5-28.3-36.5-9.2 0-16.6 6.4-20.5 16 4.2-5.8 10-10.1 17.9-10.1 11.6 0 20.9 12.4 20.9 30.3 0 16.9-11.9 36.6-27.8 36.6-8.7 0-15.2-7-15.2-16.1 0-8.1 5.2-12.7 11.1-12.7 4.4 0 7.5 3.1 8.4 6.5 0 .1 0 .2-.1.3-.1.1-.2 0-.3-.1-.8-.9-1.9-1.6-3.7-1.6-2.9 0-4.5 2.5-4.5 4.3 0 3.5 2.6 5.9 6.4 5.9 5.2 0 9.3-5.8 9.3-13.2 0-9.2-8.8-17.7-17.7-17.7-9 0-18.7 8.1-18.7 23 0 14.7 10 31.6 25.8 31.6 9.2 0 17.1-4.2 23.1-11.1.1-.1.2-.1.3-.1.1.1.2.2.1.3-4.4 12.9-2 25.1 4.8 25.1 3.3 0 5-2.4 5-4.9 0-2.6-1.9-4.8-5-5.2-.1 0-.2-.1-.2-.2s.1-.2.2-.3c6.8-1.8 13.8 1.9 13.8 9 0 6.3-5.4 11.1-12.4 11.1-10.6 0-15.7-11.3-13.5-21.5-5.5 7-13.6 12.8-25.2 12.8-23.5 0-35.4-26.9-35.4-44.9 0-16.4 3.3-26.9 10.2-34.9-8.1 6.1-11.4 12.9-12.9 22.3 0 0-6.1 8.4-22.1 8.4-6.7 0-12.9-2.5-17.8-7.2l-.1-.1c-.3-.3-.6-.6-.9-1-5.1-4.8-15.2-9.4-24.4-5.6-.1 0-.2 0-.3-.1-.1-.1-.1-.2 0-.3 4.4-6 12-7.9 17.7-7.1-1-3.7-1.6-7.9-1.6-12.5 0-16.4 8.8-28 18.4-33.6-3.2-3.8-2.5-9.8 1-13.8.1-.1.2-.1.3-.1.1.1.2.2.1.3-1.7 5.5 3.4 10.1 10.2 9.9.1 0 .2.1.3.2 0 .1 0 .2-.2.3-10.1 4.2-16.9 13-16.9 24 0 11.5 6.9 20.9 18 20.9 9.1 0 18.2-8.3 18.2-18.7 0-8.1-4.5-12.8-10.2-12.8-5 0-9 3.5-9 7.5 0 5.9 6.6 8 10.1 3.3.1-.1.2-.1.3-.1.1 0 .2.2.2.3-.5 4.4-3.8 8.5-8.8 8.5-4.6 0-9.3-3.8-9.3-12 0-9.7 9.3-19.6 24.7-19.6 21 0 32.4 23.7 22.1 42.6 5.2-6 10-12.4 10-23.8 0-21.5-21.3-36-46.4-27.5-.1 0-.2 0-.3-.1-.1-.1 0-.2.1-.3 7-5.1 14.3-12.6 14.3-25.3 0-13.2-8.7-22.5-22.3-22.5-10.5 0-17.1 6.4-17.1 13.9 0 5.8 3.7 10.4 10.1 10.4 9.5 0 12.7-10.3 7.8-15-.1-.1-.1-.2 0-.3.1-.1.2-.2.3-.1 4.8 1.2 9.3 6.1 9.3 13.4 0 12.5-11.6 20.9-24.4 20.9-6 0-11.8-1.8-16.5-5 .6-4.2-.9-8.8-3-11.8 1.9 6.9-.2 18.2-10.7 18.2-5.9 0-9.8-4.5-9.8-9.9 0-6.3 5.3-9.3 9.7-8.7.1 0 .2.1.2.2s-.1.2-.2.3c-1.6.6-2.9 2.3-2.9 4.3 0 2.5 1.9 4 3.9 4 3.3 0 5.1-3.7 4-7.7-1.1-2.8-1.7-6-1.7-9.5 0-16.8 18.2-32.7 41.1-32.7 24.2 0 37.1 17.3 37.1 35.1 0 9.5-3.6 16.8-8.2 21.4 19.9-2.1 32.5 6.4 39.3 18.7-4.5 3.8-6.1 9.5-6.1 9.5 5.4-7 14.6-13.2 27.5-13.2 19.6 0 34.9 19.2 34.9 39.8 0 13.1-4.8 25.8-14.6 34.2 6.6 5.2 9.2 12.6 6.4 18.5z" class="st1"/><path d="M315.2-494.9c0 .1 0 .2.1.3 14.8 6.5 25.3 19 29.7 33.4 0 .1.1.2.3.2.1 0 .2-.1.2-.2.7-10.7-2.4-21.2-8.5-29.7 14.1-.9 25.2-8.9 32.2-20.5 4.1 6.1 12.5 5.8 15.7-1 .1-.1 0-.2-.1-.3-.1-.1-.2-.1-.3 0-4.3 3-11.7-.6-8.6-12 2.1-7.5 6.4-11.5 10.6-10.4 3.3.9 4.2 4.3 3.6 6.8-1.2 4.3-5.6 5.7-8.6 2.9-.1-.1-.2-.1-.3 0-.1.1-.1.2-.1.3.9 2.6 2.5 4.6 5.5 5.5 5.2 1.4 12.1-1.9 14.2-9.9 2.3-8.6-2.1-18.2-10.3-20.4-11.4-3.1-19.5 5.1-23.2 15 0 0-.5-4.7-4.3-9.1-.1-.1-.2-.1-.3-.1-.1.1-.2.2-.1.3 1.4 6.4 1.3 13.3-.6 20.1-5.2 18.9-25.4 30.9-46.6 28.9 0-.3-.2-.2-.2-.1zm30.4 87.8c6.2 6.5 18.5 11.5 29.1 10 .1 0 .2.1.3.2 0 .1 0 .2-.1.3-5.7 3.4-17 4.6-28.3-.8-3.1 2.4-5.9 3.6-9.4 4.2-.1 0-.2 0-.3-.1 0-.1 0-.2.1-.3 4.5-4 6.8-8.1 8.6-13.5zm-112.8-41.8c-.1 0-.2 0-.3-.1-.1-.1 0-.2.1-.3 7.1-5.1 12.9-12.9 15.9-23.7 7.3-26.6-4.1-47.7-20.2-55-.1 0-.2-.2-.1-.3 0-.1.1-.2.2-.2 6.8-1 15.9-.2 25.5 11.1 5.7 6.8 8.9 14 15.2 15.7 4.1 1.1 7.5-.3 8.4-3.6.9-3.5-1.4-6.5-4.8-7.5-1.7-.5-3.5-.4-5.2 0-.1 0-.2 0-.3-.1-.1-.1 0-.2.1-.3 2.7-2.4 6.7-4 11.4-2.7 6.9 1.9 11.1 9.4 8.9 17.4-2.4 8.7-11.1 13.9-20.9 11.2-3.4-.9-7.1-3-9.8-6.3 1.8 4 3.3 6.3 7.1 8.9-1 10.5-5.5 20.8-13.4 27.8 5.8 1.9 10.2 5.1 13.1 10.2.1.1 0 .2 0 .3-.1.1-.2.1-.3 0-7.2-4.8-19.5-6.2-30.6-2.5zm-16.6 86c-4-3.4-5.3-9.2-3.8-15 0-.1.1-.2.3-.2.1 0 .2.1.2.2.2 2.2 1 4.1 2.6 5.4 4 3.4 11.1 1.6 16-3.9.1-.1.1-.1.2-.1s.2.1.2.1c2.3 5.1 7.2 11.7 20.1 15.2 18 4.9 38.4-2.1 42.6-17.7 2.4-8.9-1.8-17.7-10-24 4.4 5.6 7.1 12.3 5 19.9-3.1 11.2-17.5 16.9-34.7 12.1-16.3-4.4-32.2-21.1-28-36.4 2.3-8.4 10.8-12.8 19.6-10.4 7.8 2.1 10.8 8.4 9.3 14.1-1.2 4.3-5 6.4-8.5 6.4-.1 0-.2-.1-.2-.2s0-.2.1-.3c1.1-.5 2.1-1.4 2.5-3.1.8-2.8-1.3-5-3-5.5-3.3-.9-6.4.9-7.4 4.6-1.4 5.1 3.1 10.5 10.3 12.5 8.9 2.4 19.4-3.9 21.7-12.4 2.4-8.7-2.9-20.1-17.3-24.1-14.2-3.9-33.1 1.3-37.3 16.6-2.4 8.9-.5 17.6 4.6 25.2.1.1.1.2 0 .3-.1.1-.2.1-.3 0-11.3-7.7-23.7-8.5-25.5-2-.9 3.2 1 5.5 3.4 6.1 2.5.7 5.1-.6 6.3-3.4 0-.1.2-.2.3-.2.1 0 .2.1.2.3-.1 7-5.5 12.8-12.4 11-6.1-1.7-9.3-8.1-7.5-14.9 2.8-10.3 15-12.2 24.3-7.3-5.4-7.1-8.8-16.5-5.8-27.7 6.2-22.7 35.3-27.1 52.7-22.4 15.8 4.3 25 10.3 31 19.1-3.8-9.4-9.5-14.4-18.1-18.3 0 0-6.5-8.1-2.3-23.6 1.8-6.5 5.8-11.8 11.6-15.3l.1-.1c.4-.2.8-.4 1.2-.7 6-3.6 13.1-12.2 11.8-22.1 0-.1 0-.2.2-.3.1 0 .2 0 .3.1 4.7 5.8 4.5 13.7 2.2 18.9 3.9 0 8 .5 12.5 1.7 15.8 4.3 24.7 15.9 27.6 26.6 4.5-2 10.1.2 13.1 4.6.1.1.1.2 0 .3-.1.1-.2.1-.3 0-4.9-3.1-10.7.6-12.2 7.2 0 .1-.1.2-.3.2-.1 0-.2-.1-.2-.2-1.3-10.9-8.1-19.7-18.7-22.6-11.1-3-21.9 1.2-24.9 11.9-2.4 8.8 3.2 19.7 13.2 22.4 7.8 2.1 13.5-1 15-6.5 1.3-4.8-1-9.5-4.9-10.6-5.6-1.5-9.4 4.2-5.9 8.9.1.1.1.2 0 .3-.1.1-.2.1-.3.1-4.1-1.7-7.2-5.9-5.9-10.7 1.2-4.4 6.2-8 14.1-5.8 9.4 2.6 16.4 14.2 12.4 29-5.5 20.2-31.4 25-46.9 10.1 4.4 6.6 9.3 12.9 20.3 15.9 20.8 5.7 40.4-11 38.7-37.5 0-.1.1-.2.2-.3.1 0 .2 0 .3.2 3.1 8.1 8.4 17.2 20.6 20.5 12.7 3.5 24-2.5 27.6-15.5 2.8-10.1-1.7-18.2-8.9-20.2-5.6-1.5-11 .9-12.7 7-2.5 9.2 6.6 15 12.4 11.5.1-.1.2 0 .3 0 .1.1.1.2 0 .3-2.4 4.3-8.3 7.4-15.3 5.5-12.1-3.3-17.1-16.7-13.7-29.1 1.6-5.8 4.8-10.9 9.2-14.6 3.9 1.6 8.7 1.5 12.2.3-7.1.1-17.5-4.9-14.7-15.1 1.6-5.7 6.9-8.2 12.1-6.8 6.1 1.7 7.5 7.6 5.8 11.6 0 .1-.2.2-.3.2-.1 0-.2-.1-.2-.2-.2-1.7-1.4-3.4-3.3-4-2.4-.7-4.3.8-4.9 2.7-.9 3.2 2.2 5.9 6.4 5.9 3-.3 6.2 0 9.6.9 16.2 4.4 26.8 26.2 20.8 48.3-6.4 23.4-26.4 31.2-43.6 26.5-9.2-2.5-15.2-7.9-18.5-13.5-3.2 19.8-14.7 29.7-28.4 33-2.5-5.3-7.5-8.4-7.5-8.4 5.4 7 8.9 17.5 5.5 30-5.2 18.9-27.7 28.6-47.6 23.2-12.6-3.4-23.6-11.4-29.2-23.1-6.6 5.1-14.4 5.7-19.4 1.4z" class="st2"/><g class="st3"><path d="M363.1-437c-.1 0-.2.1-.2.2-2.4 16-11.7 29.4-24.4 37.4-.1.1-.1.2-.1.3 0 .1.2.2.3.2 10.5-2.1 19.8-7.9 26.4-16 4.6 13.4 15.2 22 28.3 25.7-4.8 5.6-2.3 13.5 5.1 14.8.1 0 .2 0 .3-.1 0-.1 0-.2-.1-.3-4-3.3-2.5-11.4 9.3-11.4 7.8 0 12.8 3.2 12.8 7.5 0 3.4-3.1 5.2-5.6 5.2-4.4 0-6.9-4-5-7.5.1-.1 0-.2-.1-.3-.1-.1-.2-.1-.3 0-2.2 1.6-3.8 3.6-3.8 6.8 0 5.4 5 11.1 13.3 11.1 8.9 0 17-6.9 17-15.3 0-11.8-10-17.4-20.6-18.4 0 0 4.4-1.7 7.6-6.5.1-.1.1-.2 0-.3-.1-.1-.2-.1-.3-.1-5.8 3.1-12.5 4.7-19.5 4.7-19.6 0-36.5-16.4-40.2-37.4.1-.2 0-.3-.2-.3zm-76.6 52.4c-4.6 7.7-6.3 20.8-2 30.7 0 .1 0 .2-.1.3-.1.1-.2.1-.3 0-4.8-4.6-8.9-15.2-6.7-27.5-3.1-2.4-5-4.8-6.5-8 0-.1 0-.2.1-.3.1-.1.2-.1.3 0 4.9 3.4 9.4 4.6 15.2 4.8zm10.6-119.8c-.1-.1-.1-.2 0-.3.1-.1.2-.1.3 0 6.8 5.5 15.9 9.1 27 9.1 27.6 0 45-16.5 47.7-33.9 0-.1.1-.2.2-.2s.2 0 .3.1c2.7 6.3 4.4 15.3-4 27.5-5 7.3-11.1 12.3-11.1 18.8 0 4.3 2.3 7.2 5.7 7.2 3.6 0 5.9-3.1 5.9-6.6 0-1.7-.5-3.5-1.4-5-.1-.1 0-.2 0-.3.1-.1.2-.1.3 0 3 1.9 5.6 5.4 5.6 10.3 0 7.2-6.1 13.2-14.5 13.2-9 0-16.3-7-16.3-17.2 0-3.5 1-7.7 3.5-11.1-3.4 2.8-5.2 4.8-6.7 9.2-10.4 1.8-21.5.1-30.3-5.6-.3 6.1-2.2 11.2-6.3 15.3-.1.1-.2.1-.3 0-.1-.1-.1-.2-.1-.3 2.9-8.2.9-20.4-5.5-30.2zm-87.4 6.7c2.2-4.8 7.5-7.5 13.5-7.6.1 0 .2.1.3.2 0 .1 0 .2-.2.3-2 .8-3.7 2.1-4.5 3.9-2.2 4.7 1.4 11.1 8 14.4.1 0 .1.1.1.2s0 .2-.1.2c-4.3 3.5-9.4 10.1-9.4 23.4 0 18.7 12.2 36.5 28.3 36.5 9.2 0 16.6-6.4 20.5-16-4.2 5.8-10 10.1-17.9 10.1-11.6 0-20.9-12.4-20.9-30.3 0-16.9 11.9-36.6 27.8-36.6 8.7 0 15.2 7 15.2 16.1 0 8.1-5.2 12.7-11.1 12.7-4.4 0-7.5-3.1-8.4-6.5 0-.1 0-.2.1-.3.1-.1.2 0 .3.1.8.9 1.9 1.6 3.7 1.6 2.9 0 4.5-2.5 4.5-4.3 0-3.5-2.6-5.9-6.4-5.9-5.2 0-9.3 5.8-9.3 13.2 0 9.2 8.8 17.7 17.7 17.7 9 0 18.7-8.1 18.7-23 0-14.7-10-31.6-25.8-31.6-9.2 0-17.1 4.2-23.1 11.1-.1.1-.2.1-.3.1-.1-.1-.2-.2-.1-.3 4.4-12.9 2-25.1-4.8-25.1-3.3 0-5 2.4-5 4.9 0 2.6 1.9 4.8 5 5.2.1 0 .2.1.2.2s-.1.2-.2.3c-6.8 1.8-13.8-1.9-13.8-9 0-6.3 5.4-11.1 12.4-11.1 10.6 0 15.7 11.3 13.5 21.5 5.5-7 13.6-12.8 25.2-12.8 23.5 0 35.4 26.9 35.4 44.9 0 16.4-3.3 26.9-10.2 34.9 8.1-6.1 11.4-12.9 12.9-22.3 0 0 6.1-8.4 22.1-8.4 6.7 0 12.9 2.5 17.8 7.2l.1.1c.3.3.6.6.9 1 5.1 4.8 15.2 9.4 24.4 5.6.1 0 .2 0 .3.1.1.1.1.2 0 .3-4.4 6-12 7.9-17.7 7.1 1 3.7 1.6 7.9 1.6 12.5 0 16.4-8.8 28-18.4 33.6 3.2 3.8 2.5 9.8-1 13.8-.1.1-.2.1-.3.1-.1-.1-.2-.2-.1-.3 1.7-5.5-3.4-10.1-10.2-9.9-.1 0-.2-.1-.3-.2 0-.1 0-.2.2-.3 10.1-4.2 16.9-13 16.9-24 0-11.5-6.9-20.9-18-20.9-9.1 0-18.2 8.3-18.2 18.7 0 8.1 4.5 12.8 10.2 12.8 5 0 9-3.5 9-7.6 0-5.9-6.6-8-10.1-3.3-.1.1-.2.1-.3.1-.1 0-.2-.2-.2-.3.5-4.4 3.8-8.5 8.8-8.5 4.6 0 9.3 3.8 9.3 12 0 9.7-9.3 19.6-24.7 19.6-21 0-32.4-23.7-22.1-42.6-5.2 6-10 12.4-10 23.8 0 21.5 21.3 36 46.4 27.5.1 0 .2 0 .3.1.1.1 0 .2-.1.3-7 5.1-14.3 12.6-14.3 25.3 0 13.2 8.7 22.5 22.3 22.5 10.5 0 17.1-6.4 17.1-13.9 0-5.8-3.7-10.4-10.1-10.4-9.5 0-12.7 10.3-7.8 15 .1.1.1.2 0 .3-.1.1-.2.2-.3.1-4.8-1.2-9.3-6.1-9.3-13.4 0-12.5 11.6-20.9 24.4-20.9 6 0 11.8 1.8 16.5 5-.6 4.2.9 8.7 3 11.8-1.9-6.9.2-18.2 10.7-18.2 5.9 0 9.8 4.5 9.8 9.9 0 6.3-5.3 9.3-9.7 8.7-.1 0-.2-.1-.2-.2s.1-.2.2-.3c1.6-.6 2.9-2.3 2.9-4.3 0-2.5-1.9-4-3.9-4-3.3 0-5.1 3.7-4 7.7 1.1 2.8 1.7 6 1.7 9.5 0 16.8-18.2 32.7-41.1 32.7-24.2 0-37.1-17.3-37.1-35.1 0-9.5 3.6-16.8 8.2-21.4-19.9 2.1-32.5-6.4-39.3-18.7 4.5-3.8 6.1-9.5 6.1-9.5-5.4 7-14.6 13.2-27.5 13.2-19.6 0-34.9-19.2-34.9-39.8 0-13.1 4.8-25.8 14.6-34.2-6.6-5.2-9.2-12.5-6.4-18.4z" class="st4"/></g><path d="M73.3-430.4c.1 0 .2-.1.2-.2 2.4-16 11.7-29.4 24.4-37.4.1-.1.1-.2.1-.3 0-.1-.2-.2-.3-.2-10.5 2.1-19.8 7.9-26.4 16-4.6-13.4-15.2-22-28.3-25.7 4.8-5.6 2.3-13.5-5.1-14.8-.1 0-.2 0-.3.1 0 .1 0 .2.1.3 4 3.3 2.5 11.4-9.3 11.4-7.8 0-12.8-3.2-12.8-7.5 0-3.4 3.1-5.2 5.6-5.2 4.4 0 6.9 4 5 7.5-.1.1 0 .2.1.3.1.1.2.1.3 0 2.2-1.6 3.8-3.6 3.8-6.8 0-5.4-5-11.1-13.3-11.1-8.9 0-17 6.9-17 15.3 0 11.8 10 17.4 20.6 18.4 0 0-4.4 1.7-7.6 6.5-.1.1-.1.2 0 .3.1.1.2.1.3.1 5.8-3.1 12.5-4.7 19.5-4.7 19.6 0 36.5 16.4 40.2 37.4-.1.2 0 .3.2.3zm76.6-52.4c4.6-7.7 6.3-20.8 2-30.7 0-.1 0-.2.1-.3.1-.1.2-.1.3 0 4.8 4.6 8.9 15.2 6.7 27.5 3.1 2.4 5 4.8 6.5 8 0 .1 0 .2-.1.3-.1.1-.2.1-.3 0-4.9-3.4-9.4-4.5-15.2-4.8zM139.3-363c.1.1.1.2 0 .3-.1.1-.2.1-.3 0-6.8-5.5-15.9-9.1-27-9.1-27.6 0-45 16.5-47.7 33.9 0 .1-.1.2-.2.2s-.2 0-.3-.2c-2.7-6.3-4.4-15.3 4-27.5 5-7.3 11.1-12.3 11.1-18.8 0-4.3-2.3-7.2-5.7-7.2-3.6 0-5.9 3.1-5.9 6.6 0 1.7.5 3.5 1.4 5 .1.1 0 .2 0 .3-.1.1-.2.1-.3 0-3-1.9-5.6-5.4-5.6-10.3 0-7.2 6.1-13.2 14.5-13.2 9 0 16.3 7 16.3 17.2 0 3.5-1 7.7-3.5 11.1 3.4-2.8 5.2-4.8 6.7-9.2 10.4-1.8 21.5-.1 30.3 5.6.3-6.1 2.3-11.2 6.3-15.3.1-.1.2-.1.3 0 .1.1.1.2.1.3-2.9 8.4-.9 20.6 5.5 30.3zm87.4-6.6c-2.2 4.8-7.5 7.5-13.5 7.6-.1 0-.2-.1-.3-.2 0-.1 0-.2.2-.3 2-.8 3.7-2.1 4.5-3.9 2.2-4.7-1.4-11.1-8-14.4-.1 0-.1-.1-.1-.2s0-.2.1-.2c4.3-3.5 9.4-10.1 9.4-23.4 0-18.7-12.2-36.5-28.3-36.5-9.2 0-16.6 6.4-20.5 16 4.2-5.8 10-10.1 17.9-10.1 11.6 0 20.9 12.4 20.9 30.3 0 16.9-11.9 36.6-27.8 36.6-8.7 0-15.2-7-15.2-16.1 0-8.1 5.2-12.7 11.1-12.7 4.4 0 7.5 3.1 8.4 6.5 0 .1 0 .2-.1.3-.1.1-.2 0-.3-.1-.8-.9-1.9-1.6-3.7-1.6-2.9 0-4.5 2.5-4.5 4.3 0 3.5 2.6 5.9 6.4 5.9 5.2 0 9.3-5.8 9.3-13.2 0-9.2-8.8-17.7-17.7-17.7-9 0-18.7 8.1-18.7 23 0 14.7 10 31.6 25.8 31.6 9.2 0 17.1-4.2 23.1-11.1.1-.1.2-.1.3-.1.1.1.2.2.1.3-4.4 12.9-2 25.1 4.8 25.1 3.3 0 5-2.4 5-4.9 0-2.6-1.9-4.8-5-5.2-.1 0-.2-.1-.2-.2s.1-.2.2-.3c6.8-1.8 13.8 1.9 13.8 9 0 6.3-5.4 11.1-12.4 11.1-10.6 0-15.7-11.3-13.5-21.5-5.5 7-13.6 12.8-25.2 12.8-23.5 0-35.4-26.9-35.4-44.9 0-16.4 3.3-26.9 10.2-34.9-8.1 6.1-11.4 12.9-12.9 22.3 0 0-6.1 8.4-22.1 8.4-6.7 0-12.9-2.5-17.8-7.2l-.1-.1c-.3-.3-.6-.6-.9-1-5.1-4.8-15.2-9.4-24.4-5.6-.1 0-.2 0-.3-.1-.1-.1-.1-.2 0-.3 4.4-6 12-7.9 17.7-7.1-1-3.7-1.6-7.9-1.6-12.5 0-16.4 8.8-28 18.4-33.6-3.2-3.8-2.5-9.8 1-13.8.1-.1.2-.1.3-.1.1.1.2.2.1.3-1.7 5.5 3.4 10.1 10.2 9.9.1 0 .2.1.3.2 0 .1 0 .2-.2.3-10.1 4.2-16.9 13-16.9 24 0 11.5 6.9 20.9 18 20.9 9.1 0 18.2-8.3 18.2-18.7 0-8.1-4.5-12.8-10.2-12.8-5 0-9 3.5-9 7.5 0 5.9 6.6 8 10.1 3.3.1-.1.2-.1.3-.1.1 0 .2.2.2.3-.5 4.4-3.8 8.5-8.8 8.5-4.6 0-9.3-3.8-9.3-12 0-9.7 9.3-19.6 24.7-19.6 21 0 32.4 23.7 22.1 42.6 5.2-6 10-12.4 10-23.8 0-21.5-21.3-36-46.4-27.5-.1 0-.2 0-.3-.1-.1-.1 0-.2.1-.3 7-5.1 14.3-12.6 14.3-25.3 0-13.2-8.7-22.5-22.3-22.5-10.5 0-17.1 6.4-17.1 13.9 0 5.8 3.7 10.4 10.1 10.4 9.5 0 12.7-10.3 7.8-15-.1-.1-.1-.2 0-.3.1-.1.2-.2.3-.1 4.8 1.2 9.3 6.1 9.3 13.4 0 12.5-11.6 20.9-24.4 20.9-6 0-11.8-1.8-16.5-5 .6-4.2-.9-8.8-3-11.8 1.9 6.9-.2 18.2-10.7 18.2-5.9 0-9.8-4.5-9.8-9.9 0-6.3 5.3-9.3 9.7-8.7.1 0 .2.1.2.2s-.1.2-.2.3c-1.6.6-2.9 2.3-2.9 4.3 0 2.5 1.9 4 3.9 4 3.3 0 5.1-3.7 4-7.7-1.1-2.8-1.7-6-1.7-9.5 0-16.8 18.2-32.7 41.1-32.7 24.2 0 37.1 17.3 37.1 35.1 0 9.5-3.6 16.8-8.2 21.4 19.9-2.1 32.5 6.4 39.3 18.7-4.5 3.8-6.1 9.5-6.1 9.5 5.4-7 14.6-13.2 27.5-13.2 19.6 0 34.9 19.2 34.9 39.8 0 13.1-4.8 25.8-14.6 34.2 6.6 5.2 9.2 12.6 6.4 18.5z" class="st1"/><path d="M148.2-494.9c0 .1 0 .2.1.3 14.8 6.5 25.3 19 29.7 33.4 0 .1.1.2.3.2.1 0 .2-.1.2-.2.7-10.7-2.4-21.2-8.5-29.7 14.1-.9 25.2-8.9 32.2-20.5 4.1 6.1 12.5 5.8 15.7-1 .1-.1 0-.2-.1-.3-.1-.1-.2-.1-.3 0-4.3 3-11.7-.6-8.6-12 2.1-7.5 6.4-11.5 10.6-10.4 3.3.9 4.2 4.3 3.6 6.8-1.2 4.3-5.6 5.7-8.6 2.9-.1-.1-.2-.1-.3 0-.1.1-.1.2-.1.3.9 2.6 2.5 4.6 5.5 5.5 5.2 1.4 12.1-1.9 14.2-9.9 2.3-8.6-2.1-18.2-10.3-20.4-11.4-3.1-19.5 5.1-23.2 15 0 0-.5-4.7-4.3-9.1-.1-.1-.2-.1-.3-.1-.1.1-.2.2-.1.3 1.4 6.4 1.3 13.3-.6 20.1-5.2 18.9-25.4 30.9-46.6 28.9 0-.3-.2-.2-.2-.1zm30.4 87.8c6.2 6.5 18.5 11.5 29.1 10 .1 0 .2.1.3.2 0 .1 0 .2-.1.3-5.7 3.4-17 4.6-28.3-.8-3.1 2.4-5.9 3.6-9.4 4.2-.1 0-.2 0-.3-.1 0-.1 0-.2.1-.3 4.5-4 6.8-8.1 8.6-13.5zM65.8-448.9c-.1 0-.2 0-.3-.1s0-.2.1-.3c7.1-5.1 12.9-12.9 15.9-23.7 7.3-26.6-4.1-47.7-20.2-55-.1 0-.2-.2-.1-.3 0-.1.1-.2.2-.2 6.8-1 15.9-.2 25.5 11.1 5.7 6.8 8.9 14 15.2 15.7 4.1 1.1 7.5-.3 8.4-3.6.9-3.5-1.4-6.5-4.8-7.5-1.7-.5-3.5-.4-5.2 0-.1 0-.2 0-.3-.1-.1-.1 0-.2.1-.3 2.7-2.4 6.7-4 11.4-2.7 6.9 1.9 11.1 9.4 8.9 17.4-2.4 8.7-11.1 13.9-20.9 11.2-3.4-.9-7.1-3-9.8-6.3 1.8 4 3.3 6.3 7.1 8.9-1 10.5-5.5 20.8-13.4 27.8 5.8 1.9 10.2 5.1 13.1 10.2.1.1 0 .2 0 .3-.1.1-.2.1-.3 0-7.2-4.8-19.5-6.2-30.6-2.5zm-16.6 86c-4-3.4-5.3-9.2-3.8-15 0-.1.1-.2.3-.2.1 0 .2.1.2.2.2 2.2 1 4.1 2.6 5.4 4 3.4 11.1 1.6 16-3.9.1-.1.1-.1.2-.1s.2.1.2.1c2.3 5.1 7.2 11.7 20.1 15.2 18 4.9 38.4-2.1 42.6-17.7 2.4-8.9-1.8-17.7-10-24 4.4 5.6 7.1 12.3 5 19.9-3.1 11.2-17.5 16.9-34.7 12.1-16.3-4.4-32.2-21.1-28-36.4 2.3-8.4 10.8-12.8 19.6-10.4 7.8 2.1 10.8 8.4 9.3 14.1-1.2 4.3-5 6.4-8.5 6.4-.1 0-.2-.1-.2-.2s0-.2.1-.3c1.1-.5 2.1-1.4 2.5-3.1.8-2.8-1.3-5-3-5.5-3.3-.9-6.4.9-7.4 4.6-1.4 5.1 3.1 10.5 10.3 12.5 8.9 2.4 19.4-3.9 21.7-12.4 2.4-8.7-2.9-20.1-17.3-24.1-14.2-3.9-33.1 1.3-37.3 16.6-2.4 8.9-.5 17.6 4.6 25.2.1.1.1.2 0 .3-.1.1-.2.1-.3 0-11.3-7.7-23.7-8.5-25.5-2-.9 3.2 1 5.5 3.4 6.1 2.5.7 5.1-.6 6.3-3.4 0-.1.2-.2.3-.2.1 0 .2.1.2.3-.1 7-5.5 12.8-12.4 11-6.1-1.7-9.3-8.1-7.5-14.9 2.8-10.3 15-12.2 24.3-7.3-5.4-7.1-8.8-16.5-5.8-27.7 6.2-22.7 35.3-27.1 52.7-22.4 15.8 4.3 25 10.3 31 19.1-3.8-9.4-9.5-14.4-18.1-18.3 0 0-6.5-8.1-2.3-23.6 1.8-6.5 5.8-11.8 11.6-15.3l.1-.1c.4-.2.8-.4 1.2-.7 6-3.6 13.1-12.2 11.8-22.1 0-.1 0-.2.2-.3.1 0 .2 0 .3.1 4.7 5.8 4.5 13.7 2.2 18.9 3.9 0 8 .5 12.5 1.7 15.8 4.3 24.7 15.9 27.6 26.6 4.5-2 10.1.2 13.1 4.6.1.1.1.2 0 .3-.1.1-.2.1-.3 0-4.9-3.1-10.7.6-12.2 7.2 0 .1-.1.2-.3.2-.1 0-.2-.1-.2-.2-1.3-10.9-8.1-19.7-18.7-22.6-11.1-3-21.9 1.2-24.9 11.9-2.4 8.8 3.2 19.7 13.2 22.4 7.8 2.1 13.5-1 15-6.5 1.3-4.8-1-9.5-4.9-10.6-5.6-1.5-9.4 4.2-5.9 8.9.1.1.1.2 0 .3-.1.1-.2.1-.3.1-4.1-1.7-7.2-5.9-5.9-10.7 1.2-4.4 6.2-8 14.1-5.8 9.4 2.6 16.4 14.2 12.4 29-5.5 20.2-31.4 25-46.9 10.1 4.4 6.6 9.3 12.9 20.3 15.9 20.8 5.7 40.4-11 38.7-37.5 0-.1.1-.2.2-.3.1 0 .2 0 .3.2 3.1 8.1 8.4 17.2 20.6 20.5 12.7 3.5 24-2.5 27.6-15.5 2.8-10.1-1.7-18.2-8.9-20.2-5.6-1.5-11 .9-12.7 7-2.5 9.2 6.6 15 12.4 11.5.1-.1.2 0 .3 0 .1.1.1.2 0 .3-2.4 4.3-8.3 7.4-15.3 5.5-12.1-3.3-17.1-16.7-13.7-29.1 1.6-5.8 4.8-10.9 9.2-14.6 3.9 1.6 8.7 1.5 12.2.3-7.1.1-17.5-4.9-14.7-15.1 1.6-5.7 6.9-8.2 12.1-6.8 6.1 1.7 7.5 7.6 5.8 11.6 0 .1-.2.2-.3.2-.1 0-.2-.1-.2-.2-.2-1.7-1.4-3.4-3.3-4-2.4-.7-4.3.8-4.9 2.7-.9 3.2 2.2 5.9 6.4 5.9 3-.3 6.2 0 9.6.9 16.2 4.4 26.8 26.2 20.8 48.3-6.4 23.4-26.4 31.2-43.6 26.5-9.2-2.5-15.2-7.9-18.5-13.5-3.2 19.8-14.7 29.7-28.4 33-2.5-5.3-7.5-8.4-7.5-8.4 5.4 7 8.9 17.5 5.5 30-5.2 18.9-27.7 28.6-47.6 23.2-12.8-2.9-23.8-10.9-29.4-22.5-6.4 4.5-14.2 5.1-19.2.8z" class="st2"/><g class="st3"><path d="M196.1-437c-.1 0-.2.1-.2.2-2.4 16-11.7 29.4-24.4 37.4-.1.1-.1.2-.1.3 0 .1.2.2.3.2 10.5-2.1 19.8-7.9 26.4-16 4.6 13.4 15.2 22 28.3 25.7-4.8 5.6-2.3 13.5 5.1 14.8.1 0 .2 0 .3-.1 0-.1 0-.2-.1-.3-4-3.3-2.5-11.4 9.3-11.4 7.8 0 12.8 3.2 12.8 7.5 0 3.4-3.1 5.2-5.6 5.2-4.4 0-6.9-4-5-7.5.1-.1 0-.2-.1-.3-.1-.1-.2-.1-.3 0-2.2 1.6-3.8 3.6-3.8 6.8 0 5.4 5 11.1 13.3 11.1 8.9 0 17-6.9 17-15.3 0-11.8-10-17.4-20.6-18.4 0 0 4.4-1.7 7.6-6.5.1-.1.1-.2 0-.3-.1-.1-.2-.1-.3-.1-5.8 3.1-12.5 4.7-19.5 4.7-19.6 0-36.5-16.4-40.2-37.4.1-.2 0-.3-.2-.3zm-76.6 52.4c-4.6 7.7-6.3 20.8-2 30.7 0 .1 0 .2-.1.3-.1.1-.2.1-.3 0-4.8-4.6-8.9-15.2-6.7-27.5-3.1-2.4-5-4.8-6.5-8 0-.1 0-.2.1-.3.1-.1.2-.1.3 0 4.9 3.4 9.4 4.6 15.2 4.8zm10.6-119.8c-.1-.1-.1-.2 0-.3.1-.1.2-.1.3 0 6.8 5.5 15.9 9.1 27 9.1 27.6 0 45-16.5 47.7-33.9 0-.1.1-.2.2-.2s.2 0 .3.1c2.7 6.3 4.4 15.3-4 27.5-5 7.3-11.1 12.3-11.1 18.8 0 4.3 2.3 7.2 5.7 7.2 3.6 0 5.9-3.1 5.9-6.6 0-1.7-.5-3.5-1.4-5-.1-.1 0-.2 0-.3.1-.1.2-.1.3 0 3 1.9 5.6 5.4 5.6 10.3 0 7.2-6.1 13.2-14.5 13.2-9 0-16.3-7-16.3-17.2 0-3.5 1-7.7 3.5-11.1-3.4 2.8-5.2 4.8-6.7 9.2-10.4 1.8-21.5.1-30.3-5.6-.3 6.1-2.2 11.2-6.3 15.3-.1.1-.2.1-.3 0-.1-.1-.1-.2-.1-.3 2.9-8.2.9-20.4-5.5-30.2zm-87.4 6.7c2.2-4.8 7.5-7.5 13.5-7.6.1 0 .2.1.3.2 0 .1 0 .2-.2.3-2 .8-3.7 2.1-4.5 3.9-2.2 4.7 1.4 11.1 8 14.4.1 0 .1.1.1.2s0 .2-.1.2c-4.3 3.5-9.4 10.1-9.4 23.4 0 18.7 12.2 36.5 28.3 36.5 9.2 0 16.6-6.4 20.5-16-4.2 5.8-10 10.1-17.9 10.1-11.6 0-20.9-12.4-20.9-30.3 0-16.9 11.9-36.6 27.8-36.6 8.7 0 15.2 7 15.2 16.1 0 8.1-5.2 12.7-11.1 12.7-4.4 0-7.5-3.1-8.4-6.5 0-.1 0-.2.1-.3.1-.1.2 0 .3.1.8.9 1.9 1.6 3.7 1.6 2.9 0 4.5-2.5 4.5-4.3 0-3.5-2.6-5.9-6.4-5.9-5.2 0-9.3 5.8-9.3 13.2 0 9.2 8.8 17.7 17.7 17.7 9 0 18.7-8.1 18.7-23 0-14.7-10-31.6-25.8-31.6-9.2 0-17.1 4.2-23.1 11.1-.1.1-.2.1-.3.1-.1-.1-.2-.2-.1-.3 4.4-12.9 2-25.1-4.8-25.1-3.3 0-5 2.4-5 4.9 0 2.6 1.9 4.8 5 5.2.1 0 .2.1.2.2s-.1.2-.2.3c-6.8 1.8-13.8-1.9-13.8-9 0-6.3 5.4-11.1 12.4-11.1 10.6 0 15.7 11.3 13.5 21.5 5.5-7 13.6-12.8 25.2-12.8 23.5 0 35.4 26.9 35.4 44.9 0 16.4-3.3 26.9-10.2 34.9 8.1-6.1 11.4-12.9 12.9-22.3 0 0 6.1-8.4 22.1-8.4 6.7 0 12.9 2.5 17.8 7.2l.1.1c.3.3.6.6.9 1 5.1 4.8 15.2 9.4 24.4 5.6.1 0 .2 0 .3.1.1.1.1.2 0 .3-4.4 6-12 7.9-17.7 7.1 1 3.7 1.6 7.9 1.6 12.5 0 16.4-8.8 28-18.4 33.6 3.2 3.8 2.5 9.8-1 13.8-.1.1-.2.1-.3.1-.1-.1-.2-.2-.1-.3 1.7-5.5-3.4-10.1-10.2-9.9-.1 0-.2-.1-.3-.2 0-.1 0-.2.2-.3 10.1-4.2 16.9-13 16.9-24 0-11.5-6.9-20.9-18-20.9-9.1 0-18.2 8.3-18.2 18.7 0 8.1 4.5 12.8 10.2 12.8 5 0 9-3.5 9-7.6 0-5.9-6.6-8-10.1-3.3-.1.1-.2.1-.3.1-.1 0-.2-.2-.2-.3.5-4.4 3.8-8.5 8.8-8.5 4.6 0 9.3 3.8 9.3 12 0 9.7-9.3 19.6-24.7 19.6-21 0-32.4-23.7-22.1-42.6-5.2 6-10 12.4-10 23.8 0 21.5 21.3 36 46.4 27.5.1 0 .2 0 .3.1.1.1 0 .2-.1.3-7 5.1-14.3 12.6-14.3 25.3 0 13.2 8.7 22.5 22.3 22.5 10.5 0 17.1-6.4 17.1-13.9 0-5.8-3.7-10.4-10.1-10.4-9.5 0-12.7 10.3-7.8 15 .1.1.1.2 0 .3-.1.1-.2.2-.3.1-4.8-1.2-9.3-6.1-9.3-13.4 0-12.5 11.6-20.9 24.4-20.9 6 0 11.8 1.8 16.5 5-.6 4.2.9 8.7 3 11.8-1.9-6.9.2-18.2 10.7-18.2 5.9 0 9.8 4.5 9.8 9.9 0 6.3-5.3 9.3-9.7 8.7-.1 0-.2-.1-.2-.2s.1-.2.2-.3c1.6-.6 2.9-2.3 2.9-4.3 0-2.5-1.9-4-3.9-4-3.3 0-5.1 3.7-4 7.7 1.1 2.8 1.7 6 1.7 9.5 0 16.8-18.2 32.7-41.1 32.7-24.2 0-37.1-17.3-37.1-35.1 0-9.5 3.6-16.8 8.2-21.4-19.9 2.1-32.5-6.4-39.3-18.7 4.5-3.8 6.1-9.5 6.1-9.5-5.4 7-14.6 13.2-27.5 13.2-19.6 0-34.9-19.2-34.9-39.8 0-13.1 4.8-25.8 14.6-34.2-6.6-5.2-9.2-12.5-6.4-18.4z" class="st4"/></g></pattern><path d="M20.2 24.8h96.6" style="fill:none;stroke:#000;stroke-miterlimit:10"/><ellipse cx="89.4" cy="103.3" rx="27.5" ry="10.8" style="fill:url(#Pompadour);stroke:#000;stroke-miterlimit:10"/><path d="M20.2 36.2h38.9v38.9H20.2z" class="st7"/><circle cx="105.4" cy="58.7" r="25" class="st7"/></svg>