<?xml version="1.0" encoding="utf-8"?>
<!-- Generator: Adobe Illustrator 24.1.0, SVG Export Plug-In . SVG Version: 6.00 Build 0)  -->
<svg version="1.1" id="Layer_1" xmlns="http://www.w3.org/2000/svg" xmlns:xlink="http://www.w3.org/1999/xlink" x="0px" y="0px"
	 viewBox="0 0 400 400" style="enable-background:new 0 0 400 400;background:#fff;" xml:space="preserve">
<style type="text/css">
	.st0{fill:#DEEAA9;}
	.st1{fill:none;stroke:#000000;stroke-miterlimit:10;}
	.st2{fill:#D88EBD;stroke:#000000;stroke-miterlimit:10;}
</style>

		<path class="st0" d="M200,100c-55.2,0-100,44.8-100,100s44.8,100,100,100s100-44.8,100-100S255.2,100,200,100z M200,260.6
			c-31.8,0-57.7-25.8-57.7-57.7c0-31.8,25.8-57.7,57.7-57.7s57.7,25.8,57.7,57.7C257.7,234.7,231.8,260.6,200,260.6z"/>
		<path class="st1" d="M200,100c-55.2,0-100,44.8-100,100s44.8,100,100,100s100-44.8,100-100S255.2,100,200,100z M200,260.6
			c-31.8,0-57.7-25.8-57.7-57.7c0-31.8,25.8-57.7,57.7-57.7s57.7,25.8,57.7,57.7C257.7,234.7,231.8,260.6,200,260.6z"/>
<circle class="st2" cx="300" cy="300" r="57.7"/>
</svg>
