<svg xmlns="http://www.w3.org/2000/svg" xml:space="preserve" style="enable-background:new 0 0 24 24" viewBox="0 0 24 24" fill='#333' ><path d="M18.1 3.6h-.9v-.5c0-.4-.3-.7-.7-.7s-.7.3-.7.7v.5H8.1v-.5c0-.4-.3-.7-.7-.7s-.7.3-.7.7v.5h-.9C3.9 3.6 2.3 5.1 2.3 7v10.9c0 1.9 1.5 3.4 3.4 3.4H18c1.9 0 3.4-1.5 3.4-3.4V7c.1-1.9-1.4-3.4-3.3-3.4zm2 14.3c0 1.1-.9 2-2 2H5.8c-1.1 0-2-.9-2-2V9.5h16.4v8.4zm0-9.8H3.7V7c0-1.1.9-2 2-2h.9v.8c0 .4.3.7.7.7s.7-.3.7-.7V5h7.7v.8c0 .4.3.7.7.7s.7-.3.7-.7V5h.9c1.1 0 2 .9 2 2v1.1z" /><path d="M10.3 12.7h2.1l-2.3 4.9c0 .1-.1.1-.1.2s-.1.2 0 .4c0 .2.1.3.2.4.1.1.3.2.5.2.3 0 .5 0 .7-.1.2-.1.4-.3.5-.5.4-.8.7-1.5.9-2.1l.7-1.6c.3-.6.5-1.2.8-1.9.1-.2.1-.4.2-.5 0-.1.1-.2.1-.3.1-.3 0-.6-.1-.7-.1-.1-.3-.3-.7-.3h-3.5c-.3 0-.5.1-.6.3-.1.2-.1.4-.1.7.1.8.5.9.7.9z"/></svg>