<?xml version="1.0" encoding="utf-8"?>
<!-- Generator: Adobe Illustrator 24.1.0, SVG Export Plug-In . SVG Version: 6.00 Build 0)  -->
<svg version="1.1" id="Layer_1" xmlns="http://www.w3.org/2000/svg" xmlns:xlink="http://www.w3.org/1999/xlink" x="0px" y="0px"
	 viewBox="0 0 24 24" style="enable-background:new 0 0 24 24;" xml:space="preserve">
<symbol  id="New_Symbol" viewBox="-10 -9 20 18">
	<g>
		<path d="M6.2,6.2C8.5,4.7,10,2.4,10,0c0-4.2-4.7-8-10-8c-0.8,0-1.7,0.1-2.5,0.3l1.1,1.8C-0.9-6-0.4-6,0-6c4.3,0,8,3,8,6
			c0,1.7-1.1,3.3-2.8,4.5L6.2,6.2z M0,8c0.8,0,1.7-0.1,2.5-0.3L1.3,5.9C0.9,6,0.4,6,0,6c-4.3,0-8-3-8-6c0-1.7,1.1-3.3,2.8-4.5
			l-1.1-1.7C-8.5-4.7-10-2.4-10,0C-10,4.2-5.3,8,0,8z M3.5,1.9c1-1.9,0.3-4.4-1.7-5.4C1.3-3.8,0.7-4,0-4l-0.1,0l1.8,2.9l0,0
			C1.7-1.1,3.5,1.9,3.5,1.9z M0,4l0.1,0l-1.8-2.9l0-0.1l-1.8-2.9c-1,2-0.3,4.4,1.7,5.4C-1.3,3.8-0.7,4,0,4L0,4z M4.2,8.5
			C4.4,9,5.1,9.1,5.5,8.8C6,8.6,6.1,7.9,5.8,7.5l0,0l-10-16C-4.4-9-5.1-9.1-5.5-8.8C-6-8.6-6.1-7.9-5.8-7.5l0,0
			C-5.8-7.5,4.2,8.5,4.2,8.5z"/>
	</g>
</symbol>
<use xlink:href="#New_Symbol"  width="20" height="18" x="-10" y="-9" transform="matrix(1 0 0 -1 12 12)" style="overflow:visible;"/>
</svg>
