<svg xmlns="http://www.w3.org/2000/svg" xml:space="preserve"  viewBox="0 0 18 18" fill='#fff'
><path d="M15.7 7.6c-.4-.6-1-.9-1.8-1h-2.3c.1-.5.2-1 .2-1.4 0-.5-.1-.9-.2-1.5-.1-.5-.4-.8-.8-1.1-.8-.7-2.1-.6-2.8.2-.4.4-.6 1-.6 1.7 0 .6-.3 1.2-.7 1.7-.4.5-1 .8-1.7.9l-3 .5.5 8.3H13c.5 0 .8-.2 1-.3.3-.2.6-.5.8-1.1L16 8.9v-.1c0-.5-.1-.9-.3-1.2zM3.4 8.8l1.4-.3v6H3.7l-.3-5.7zm10.1 5.1c-.2.3-.2.4-.3.4-.2.1-.2.1-.3.1H6.3V8.2h-.1c.6-.2 1.1-.6 1.6-1 .7-.7 1.1-1.6 1.1-2.6 0-.3.1-.6.2-.8.2-.2.6-.2.8 0 .1.1.2.2.3.4.1.4.1.8.1 1.1 0 .6-.1 1.3-.4 1.9l-.3.8h4.2c.4 0 .6.2.6.3.1.1.1.2.1.4l-1 5.2z" /></svg>